<svg xmlns="http://www.w3.org/2000/svg" xmlns:xlink="http://www.w3.org/1999/xlink" x="0" y="0" width="324.5907897949219" height="324.5907897949219" style="background: white;margin:auto;"><svg xmlns="http://www.w3.org/2000/svg" class="role-diagram-draw-area" style="overflow: visible;"><g class="shapes-region"><g class="composite-shape"><path class="real" d=" M120.91,146.74 C133.54,124.86 161.52,117.37 183.4,130 L284.04,188.1 C305.92,200.73 313.41,228.71 300.78,250.59 L300.78,250.59 C288.15,272.47 260.17,279.96 238.29,267.33 L137.66,209.23 C115.78,196.6 108.28,168.62 120.91,146.74 Z" style="stroke-width: 2;stroke: rgb(0, 0, 0);fill: rgb(0, 0, 0);stroke-opacity: 0.4;fill-opacity: 0.06;"/></g><g class="composite-shape"><path class="real" d=" M18.74,250.59 C6.11,228.71 13.61,200.73 35.49,188.1 L136.12,130 C158,117.37 185.98,124.86 198.61,146.74 L198.61,146.74 C211.24,168.62 203.75,196.6 181.87,209.23 L81.23,267.33 C59.35,279.96 31.38,272.47 18.74,250.59 Z" style="stroke-width: 2;stroke: rgb(0, 0, 0);stroke-opacity: 0.4;fill: rgb(0, 0, 0);fill-opacity: 0.06;"/></g><g class="composite-shape"><path class="real" d=" M159.85,7.04 C185.11,7.04 205.59,27.52 205.59,52.79 L205.59,168.99 C205.59,194.25 185.11,214.74 159.85,214.74 L159.85,214.74 C134.58,214.74 114.1,194.25 114.1,168.99 L114.1,52.79 C114.1,27.52 134.58,7.04 159.85,7.04 Z" style="stroke-width: 2px;stroke: rgb(0, 0, 0);stroke-opacity: 0.4;fill: rgb(0, 0, 0);fill-opacity: 0.06;"/></g><g/></g><g/><g/><g/></svg>
        <svg xmlns="http://www.w3.org/2000/svg" xmlns:xlink="http://www.w3.org/1999/xlink" width="699.9938354492188" height="323.2680358886719" style="width:699.9938354492188px;height:323.2680358886719px;font-family:LatinModern-Math, LatinModern, Asana-Math, Asana;background:transparent;"><g><g><g><g transform="matrix(1,0,0,1,116.45379638671875,305.1862921142578)"><path transform="matrix(0.03519,0,0,-0.03519,0,0)" d="M721 20C721 31 711 31 698 31C636 31 636 38 633 67L572 692C570 712 570 716 553 716C537 716 533 709 527 699L179 115C139 48 100 34 56 31C44 30 35 30 35 11C35 5 40 0 48 0C75 0 106 3 134 3C167 3 202 0 234 0C240 0 253 0 253 19C253 30 244 31 237 31C214 33 190 41 190 66C190 78 196 89 204 103C211 115 212 115 280 231L531 231C533 210 547 74 547 64C547 34 495 31 475 31C461 31 451 31 451 11C451 0 465 0 465 0C506 0 549 3 590 3C615 3 678 0 703 0C709 0 721 0 721 20ZM528 262L299 262L496 592Z" stroke="rgb(0,0,0)" stroke-opacity="1" stroke-width="8" fill="rgb(0,0,0)" fill-opacity="1"/></g></g><g><g><g><g><g transform="matrix(1,0,0,1,143.90087890625,312.06273327636717)"><path transform="matrix(0.024633,0,0,-0.024633,0,0)" d="M848 143C848 153 839 153 836 153C826 153 826 150 821 135C806 82 774 11 719 11C702 11 695 21 695 44C695 69 704 93 713 115C732 167 774 278 774 335C774 400 734 442 659 442C584 442 533 398 496 345C495 358 492 392 464 416C439 437 407 442 382 442C292 442 243 378 226 355C221 412 179 442 134 442C88 442 69 403 60 385C42 350 29 291 29 288C29 278 41 278 41 278C51 278 52 279 58 301C75 372 95 420 131 420C147 420 162 412 162 374C162 353 159 342 146 290L88 59C85 44 79 21 79 16C79 -2 93 -11 108 -11C120 -11 138 -3 145 17C146 19 158 66 164 91L186 181C192 203 198 225 203 248L216 298C231 329 284 420 379 420C424 420 433 383 433 350C433 325 426 297 418 267L390 151C380 114 379 108 370 75C366 55 357 21 357 16C357 -2 371 -11 386 -11C417 -11 423 14 431 46L491 287C494 300 547 420 656 420C699 420 710 386 710 350C710 293 668 179 648 126C639 102 635 91 635 71C635 24 670 -11 717 -11C811 -11 848 135 848 143ZM1502 15C1510 22 1510 35 1502 43L1295 250L1502 457C1510 465 1510 478 1502 485C1495 493 1482 493 1474 485L1267 278L1060 485C1052 493 1039 493 1032 485C1024 478 1024 465 1032 457L1239 250L1032 43C1024 35 1024 22 1032 15C1039 7 1052 7 1060 15L1267 222L1474 15C1482 7 1495 7 1502 15ZM2227 143C2227 153 2218 153 2215 153C2205 153 2205 150 2200 135C2180 67 2147 11 2098 11C2081 11 2074 21 2074 44C2074 69 2083 93 2092 115C2111 168 2153 278 2153 335C2153 402 2110 442 2038 442C1948 442 1899 378 1882 355C1877 411 1836 442 1790 442C1744 442 1725 403 1715 385C1699 351 1685 292 1685 288C1685 278 1697 278 1697 278C1707 278 1708 279 1714 301C1731 372 1751 420 1787 420C1807 420 1818 407 1818 374C1818 353 1815 342 1802 290L1744 59C1741 44 1735 21 1735 16C1735 -2 1749 -11 1764 -11C1776 -11 1794 -3 1801 17C1802 19 1814 66 1820 91L1842 181C1848 203 1854 225 1859 248L1872 298C1887 329 1940 420 2035 420C2080 420 2089 383 2089 350C2089 288 2040 160 2024 117C2015 94 2014 82 2014 71C2014 24 2049 -11 2096 -11C2190 -11 2227 135 2227 143Z" stroke="rgb(0,0,0)" stroke-opacity="1" stroke-width="8" fill="rgb(0,0,0)" fill-opacity="1"/></g></g></g></g></g></g></g><g><g><g><g transform="matrix(1,0,0,1,124.64862060546875,88.13740966796875)"><path transform="matrix(0.024480000000000002,0,0,-0.024480000000000002,0,0)" d="M848 143C848 153 839 153 836 153C826 153 826 150 821 135C806 82 774 11 719 11C702 11 695 21 695 44C695 69 704 93 713 115C732 167 774 278 774 335C774 400 734 442 659 442C584 442 533 398 496 345C495 358 492 392 464 416C439 437 407 442 382 442C292 442 243 378 226 355C221 412 179 442 134 442C88 442 69 403 60 385C42 350 29 291 29 288C29 278 41 278 41 278C51 278 52 279 58 301C75 372 95 420 131 420C147 420 162 412 162 374C162 353 159 342 146 290L88 59C85 44 79 21 79 16C79 -2 93 -11 108 -11C120 -11 138 -3 145 17C146 19 158 66 164 91L186 181C192 203 198 225 203 248L216 298C231 329 284 420 379 420C424 420 433 383 433 350C433 325 426 297 418 267L390 151C380 114 379 108 370 75C366 55 357 21 357 16C357 -2 371 -11 386 -11C417 -11 423 14 431 46L491 287C494 300 547 420 656 420C699 420 710 386 710 350C710 293 668 179 648 126C639 102 635 91 635 71C635 24 670 -11 717 -11C811 -11 848 135 848 143Z" stroke="rgb(0,0,0)" stroke-opacity="1" stroke-width="8" fill="rgb(0,0,0)" fill-opacity="1"/></g></g><g><g transform="matrix(1,0,0,1,153.48046875,88.13740966796875)"><path transform="matrix(0.024480000000000002,0,0,-0.024480000000000002,0,0)" d="M722 347C722 358 713 367 702 367L76 367C65 367 56 358 56 347C56 336 65 327 76 327L702 327C713 327 722 336 722 347ZM722 153C722 164 713 173 702 173L76 173C65 173 56 164 56 153C56 142 65 133 76 133L702 133C713 133 722 142 722 153Z" stroke="rgb(0,0,0)" stroke-opacity="1" stroke-width="8" fill="rgb(0,0,0)" fill-opacity="1"/></g></g><g><g transform="matrix(1,0,0,1,179.8631591796875,88.13740966796875)"><path transform="matrix(0.024480000000000002,0,0,-0.024480000000000002,0,0)" d="M571 143C571 153 562 153 559 153C549 153 549 150 544 135C524 67 491 11 442 11C425 11 418 21 418 44C418 69 427 93 436 115C455 168 497 278 497 335C497 402 454 442 382 442C292 442 243 378 226 355C221 411 180 442 134 442C88 442 69 403 59 385C43 351 29 292 29 288C29 278 41 278 41 278C51 278 52 279 58 301C75 372 95 420 131 420C151 420 162 407 162 374C162 353 159 342 146 290L88 59C85 44 79 21 79 16C79 -2 93 -11 108 -11C120 -11 138 -3 145 17C146 19 158 66 164 91L186 181C192 203 198 225 203 248L216 298C231 329 284 420 379 420C424 420 433 383 433 350C433 288 384 160 368 117C359 94 358 82 358 71C358 24 393 -11 440 -11C534 -11 571 135 571 143Z" stroke="rgb(0,0,0)" stroke-opacity="1" stroke-width="8" fill="rgb(0,0,0)" fill-opacity="1"/></g></g></g></g><g><g><g><g transform="matrix(1,0,0,1,184.4927978515625,226.71822204589844)"><path transform="matrix(0.020399999999999998,0,0,-0.020399999999999998,0,0)" d="M364 381C364 413 333 442 290 442C217 442 181 375 167 332L167 442L28 431L28 400C98 400 106 393 106 344L106 76C106 31 95 31 28 31L28 0L142 3C182 3 229 3 269 0L269 31L248 31C174 31 172 42 172 78L172 232C172 331 214 420 290 420C297 420 299 420 301 419C298 418 278 406 278 380C278 352 299 337 321 337C339 337 364 349 364 381ZM875 89L875 145L850 145L850 89C850 31 825 25 814 25C781 25 777 70 777 75L777 275C777 317 777 356 741 393C702 432 652 448 604 448C522 448 453 401 453 335C453 305 473 288 499 288C527 288 545 308 545 334C545 346 540 379 494 380C521 415 570 426 602 426C651 426 708 387 708 298L708 261C657 258 587 255 524 225C449 191 424 139 424 95C424 14 521 -11 584 -11C650 -11 696 29 715 76C719 36 746 -6 793 -6C814 -6 875 8 875 89ZM708 140C708 45 636 11 591 11C542 11 501 46 501 96C501 151 543 234 708 240ZM1427 0L1427 31C1375 31 1350 31 1349 61L1349 252C1349 338 1349 369 1318 405C1304 422 1271 442 1213 442C1140 442 1093 399 1065 337L1065 442L924 431L924 400C994 400 1002 393 1002 344L1002 76C1002 31 991 31 924 31L924 0L1037 3L1149 0L1149 31C1082 31 1071 31 1071 76L1071 260C1071 364 1142 420 1206 420C1269 420 1280 366 1280 309L1280 76C1280 31 1269 31 1202 31L1202 0L1315 3ZM1959 0L1959 31C1922 31 1900 31 1862 84L1735 263C1734 265 1729 271 1729 274C1729 278 1800 338 1810 346C1873 397 1915 399 1936 400L1936 431C1907 428 1894 428 1866 428C1830 428 1768 430 1754 431L1754 400C1773 399 1783 388 1783 375C1783 355 1769 343 1761 336L1620 214L1620 694L1476 683L1476 652C1546 652 1554 645 1554 596L1554 76C1554 31 1543 31 1476 31L1476 0L1585 3L1695 0L1695 31C1628 31 1617 31 1617 76L1617 179L1681 234C1758 128 1800 72 1800 54C1800 35 1783 31 1764 31L1764 0L1872 3C1901 3 1930 2 1959 0Z" stroke="rgb(0,0,0)" stroke-opacity="1" stroke-width="8" fill="rgb(0,0,0)" fill-opacity="1"/></g></g><g><g transform="matrix(1,0,0,1,224.80572509765625,226.71822204589844)"><path transform="matrix(0.020399999999999998,0,0,-0.020399999999999998,0,0)" d="M332 -238C332 -235 330 -232 328 -230C224 -152 155 48 155 208L155 292C155 452 224 652 328 730C330 732 332 735 332 738C332 743 327 748 322 748C320 748 318 747 316 746C206 663 101 463 101 292L101 208C101 37 206 -163 316 -246C318 -247 320 -248 322 -248C327 -248 332 -243 332 -238Z" stroke="rgb(0,0,0)" stroke-opacity="1" stroke-width="8" fill="rgb(0,0,0)" fill-opacity="1"/></g></g><g><g transform="matrix(1,0,0,1,232.74224853515625,226.71822204589844)"><path transform="matrix(0.020399999999999998,0,0,-0.020399999999999998,0,0)" d="M721 20C721 31 711 31 698 31C636 31 636 38 633 67L572 692C570 712 570 716 553 716C537 716 533 709 527 699L179 115C139 48 100 34 56 31C44 30 35 30 35 11C35 5 40 0 48 0C75 0 106 3 134 3C167 3 202 0 234 0C240 0 253 0 253 19C253 30 244 31 237 31C214 33 190 41 190 66C190 78 196 89 204 103C211 115 212 115 280 231L531 231C533 210 547 74 547 64C547 34 495 31 475 31C461 31 451 31 451 11C451 0 465 0 465 0C506 0 549 3 590 3C615 3 678 0 703 0C709 0 721 0 721 20ZM528 262L299 262L496 592Z" stroke="rgb(0,0,0)" stroke-opacity="1" stroke-width="8" fill="rgb(0,0,0)" fill-opacity="1"/></g></g><g><g transform="matrix(1,0,0,1,248.046875,226.71822204589844)"><path transform="matrix(0.020399999999999998,0,0,-0.020399999999999998,0,0)" d="M288 208L288 292C288 463 183 663 73 746C71 747 69 748 67 748C62 748 57 743 57 738C57 735 59 732 61 730C165 652 234 452 234 292L234 208C234 48 165 -152 61 -230C59 -232 57 -235 57 -238C57 -243 62 -248 67 -248C69 -248 71 -247 73 -246C183 -163 288 37 288 208Z" stroke="rgb(0,0,0)" stroke-opacity="1" stroke-width="8" fill="rgb(0,0,0)" fill-opacity="1"/></g></g><g><g transform="matrix(1,0,0,1,262.10113525390625,226.71822204589844)"><path transform="matrix(0.020399999999999998,0,0,-0.020399999999999998,0,0)" d="M722 347C722 358 713 367 702 367L76 367C65 367 56 358 56 347C56 336 65 327 76 327L702 327C713 327 722 336 722 347ZM722 153C722 164 713 173 702 173L76 173C65 173 56 164 56 153C56 142 65 133 76 133L702 133C713 133 722 142 722 153Z" stroke="rgb(0,0,0)" stroke-opacity="1" stroke-width="8" fill="rgb(0,0,0)" fill-opacity="1"/></g></g><g><g transform="matrix(1,0,0,1,284.09185791015625,226.71822204589844)"><path transform="matrix(0.020399999999999998,0,0,-0.020399999999999998,0,0)" d="M571 143C571 153 562 153 559 153C549 153 549 150 544 135C524 67 491 11 442 11C425 11 418 21 418 44C418 69 427 93 436 115C455 168 497 278 497 335C497 402 454 442 382 442C292 442 243 378 226 355C221 411 180 442 134 442C88 442 69 403 59 385C43 351 29 292 29 288C29 278 41 278 41 278C51 278 52 279 58 301C75 372 95 420 131 420C151 420 162 407 162 374C162 353 159 342 146 290L88 59C85 44 79 21 79 16C79 -2 93 -11 108 -11C120 -11 138 -3 145 17C146 19 158 66 164 91L186 181C192 203 198 225 203 248L216 298C231 329 284 420 379 420C424 420 433 383 433 350C433 288 384 160 368 117C359 94 358 82 358 71C358 24 393 -11 440 -11C534 -11 571 135 571 143Z" stroke="rgb(0,0,0)" stroke-opacity="1" stroke-width="8" fill="rgb(0,0,0)" fill-opacity="1"/></g></g></g></g><g><g><g><g transform="matrix(1,0,0,1,18.497833251953125,227.7206024169922)"><path transform="matrix(0.020399999999999998,0,0,-0.020399999999999998,0,0)" d="M364 381C364 413 333 442 290 442C217 442 181 375 167 332L167 442L28 431L28 400C98 400 106 393 106 344L106 76C106 31 95 31 28 31L28 0L142 3C182 3 229 3 269 0L269 31L248 31C174 31 172 42 172 78L172 232C172 331 214 420 290 420C297 420 299 420 301 419C298 418 278 406 278 380C278 352 299 337 321 337C339 337 364 349 364 381ZM875 89L875 145L850 145L850 89C850 31 825 25 814 25C781 25 777 70 777 75L777 275C777 317 777 356 741 393C702 432 652 448 604 448C522 448 453 401 453 335C453 305 473 288 499 288C527 288 545 308 545 334C545 346 540 379 494 380C521 415 570 426 602 426C651 426 708 387 708 298L708 261C657 258 587 255 524 225C449 191 424 139 424 95C424 14 521 -11 584 -11C650 -11 696 29 715 76C719 36 746 -6 793 -6C814 -6 875 8 875 89ZM708 140C708 45 636 11 591 11C542 11 501 46 501 96C501 151 543 234 708 240ZM1427 0L1427 31C1375 31 1350 31 1349 61L1349 252C1349 338 1349 369 1318 405C1304 422 1271 442 1213 442C1140 442 1093 399 1065 337L1065 442L924 431L924 400C994 400 1002 393 1002 344L1002 76C1002 31 991 31 924 31L924 0L1037 3L1149 0L1149 31C1082 31 1071 31 1071 76L1071 260C1071 364 1142 420 1206 420C1269 420 1280 366 1280 309L1280 76C1280 31 1269 31 1202 31L1202 0L1315 3ZM1959 0L1959 31C1922 31 1900 31 1862 84L1735 263C1734 265 1729 271 1729 274C1729 278 1800 338 1810 346C1873 397 1915 399 1936 400L1936 431C1907 428 1894 428 1866 428C1830 428 1768 430 1754 431L1754 400C1773 399 1783 388 1783 375C1783 355 1769 343 1761 336L1620 214L1620 694L1476 683L1476 652C1546 652 1554 645 1554 596L1554 76C1554 31 1543 31 1476 31L1476 0L1585 3L1695 0L1695 31C1628 31 1617 31 1617 76L1617 179L1681 234C1758 128 1800 72 1800 54C1800 35 1783 31 1764 31L1764 0L1872 3C1901 3 1930 2 1959 0Z" stroke="rgb(0,0,0)" stroke-opacity="1" stroke-width="8" fill="rgb(0,0,0)" fill-opacity="1"/></g></g><g><g transform="matrix(1,0,0,1,58.810760498046875,227.7206024169922)"><path transform="matrix(0.020399999999999998,0,0,-0.020399999999999998,0,0)" d="M332 -238C332 -235 330 -232 328 -230C224 -152 155 48 155 208L155 292C155 452 224 652 328 730C330 732 332 735 332 738C332 743 327 748 322 748C320 748 318 747 316 746C206 663 101 463 101 292L101 208C101 37 206 -163 316 -246C318 -247 320 -248 322 -248C327 -248 332 -243 332 -238Z" stroke="rgb(0,0,0)" stroke-opacity="1" stroke-width="8" fill="rgb(0,0,0)" fill-opacity="1"/></g></g><g><g transform="matrix(1,0,0,1,66.74725341796875,227.7206024169922)"><path transform="matrix(0.020399999999999998,0,0,-0.020399999999999998,0,0)" d="M721 20C721 31 711 31 698 31C636 31 636 38 633 67L572 692C570 712 570 716 553 716C537 716 533 709 527 699L179 115C139 48 100 34 56 31C44 30 35 30 35 11C35 5 40 0 48 0C75 0 106 3 134 3C167 3 202 0 234 0C240 0 253 0 253 19C253 30 244 31 237 31C214 33 190 41 190 66C190 78 196 89 204 103C211 115 212 115 280 231L531 231C533 210 547 74 547 64C547 34 495 31 475 31C461 31 451 31 451 11C451 0 465 0 465 0C506 0 549 3 590 3C615 3 678 0 703 0C709 0 721 0 721 20ZM528 262L299 262L496 592Z" stroke="rgb(0,0,0)" stroke-opacity="1" stroke-width="8" fill="rgb(0,0,0)" fill-opacity="1"/></g></g><g><g transform="matrix(1,0,0,1,82.05194091796875,227.7206024169922)"><path transform="matrix(0.020399999999999998,0,0,-0.020399999999999998,0,0)" d="M288 208L288 292C288 463 183 663 73 746C71 747 69 748 67 748C62 748 57 743 57 738C57 735 59 732 61 730C165 652 234 452 234 292L234 208C234 48 165 -152 61 -230C59 -232 57 -235 57 -238C57 -243 62 -248 67 -248C69 -248 71 -247 73 -246C183 -163 288 37 288 208Z" stroke="rgb(0,0,0)" stroke-opacity="1" stroke-width="8" fill="rgb(0,0,0)" fill-opacity="1"/></g></g><g><g transform="matrix(1,0,0,1,96.10614013671875,227.7206024169922)"><path transform="matrix(0.020399999999999998,0,0,-0.020399999999999998,0,0)" d="M722 347C722 358 713 367 702 367L76 367C65 367 56 358 56 347C56 336 65 327 76 327L702 327C713 327 722 336 722 347ZM722 153C722 164 713 173 702 173L76 173C65 173 56 164 56 153C56 142 65 133 76 133L702 133C713 133 722 142 722 153Z" stroke="rgb(0,0,0)" stroke-opacity="1" stroke-width="8" fill="rgb(0,0,0)" fill-opacity="1"/></g></g><g><g transform="matrix(1,0,0,1,118.09686279296875,227.7206024169922)"><path transform="matrix(0.020399999999999998,0,0,-0.020399999999999998,0,0)" d="M848 143C848 153 839 153 836 153C826 153 826 150 821 135C806 82 774 11 719 11C702 11 695 21 695 44C695 69 704 93 713 115C732 167 774 278 774 335C774 400 734 442 659 442C584 442 533 398 496 345C495 358 492 392 464 416C439 437 407 442 382 442C292 442 243 378 226 355C221 412 179 442 134 442C88 442 69 403 60 385C42 350 29 291 29 288C29 278 41 278 41 278C51 278 52 279 58 301C75 372 95 420 131 420C147 420 162 412 162 374C162 353 159 342 146 290L88 59C85 44 79 21 79 16C79 -2 93 -11 108 -11C120 -11 138 -3 145 17C146 19 158 66 164 91L186 181C192 203 198 225 203 248L216 298C231 329 284 420 379 420C424 420 433 383 433 350C433 325 426 297 418 267L390 151C380 114 379 108 370 75C366 55 357 21 357 16C357 -2 371 -11 386 -11C417 -11 423 14 431 46L491 287C494 300 547 420 656 420C699 420 710 386 710 350C710 293 668 179 648 126C639 102 635 91 635 71C635 24 670 -11 717 -11C811 -11 848 135 848 143Z" stroke="rgb(0,0,0)" stroke-opacity="1" stroke-width="8" fill="rgb(0,0,0)" fill-opacity="1"/></g></g></g></g><g><g><g><g transform="matrix(1,0,0,1,123.74444580078125,162.07896423339844)"><path transform="matrix(0.017,0,0,-0.017,0,0)" d="M2049 20C2049 31 2039 31 2026 31C1964 31 1964 38 1961 67L1900 692C1898 712 1898 716 1881 716C1865 716 1861 709 1855 699L1507 115C1467 48 1428 34 1384 31C1372 30 1363 30 1363 11C1363 5 1368 0 1376 0C1403 0 1434 3 1462 3C1495 3 1530 0 1562 0C1568 0 1581 0 1581 19C1581 30 1572 31 1565 31C1542 33 1518 41 1518 66C1518 78 1524 89 1532 103C1539 115 1540 115 1608 231L1859 231C1861 210 1875 74 1875 64C1875 34 1823 31 1803 31C1789 31 1779 31 1779 11C1779 0 1793 0 1793 0C1834 0 1877 3 1918 3C1943 3 2006 0 2031 0C2037 0 2049 0 2049 20ZM1856 262L1627 262L1824 592Z" stroke="rgb(0,0,0)" stroke-opacity="1" stroke-width="8" fill="rgb(0,0,0)" fill-opacity="1"/></g></g><g><g transform="matrix(1,0,0,1,164.7083740234375,162.07896423339844)"><path transform="matrix(0.017,0,0,-0.017,0,0)" d="M247 0L247 31C181 31 177 36 177 75L177 442L37 431L37 400C102 400 111 394 111 345L111 76C111 31 100 31 33 31L33 0L143 3C178 3 213 1 247 0ZM192 604C192 631 169 657 139 657C105 657 85 629 85 604C85 577 108 551 138 551C172 551 192 579 192 604ZM638 128C638 181 608 211 596 223C563 255 524 263 482 271C426 282 359 295 359 353C359 388 385 429 471 429C581 429 586 339 588 308C589 299 600 299 600 299C613 299 613 304 613 323L613 424C613 441 613 448 602 448C597 448 595 448 582 436C579 432 569 423 565 420C527 448 486 448 471 448C349 448 311 381 311 325C311 290 327 262 354 240C386 214 414 208 486 194C508 190 590 174 590 102C590 51 555 11 477 11C393 11 357 68 338 153C335 166 334 170 324 170C311 170 311 163 311 145L311 13C311 -4 311 -11 322 -11C327 -11 328 -10 347 9C349 11 349 13 367 32C411 -10 456 -11 477 -11C592 -11 638 56 638 128Z" stroke="rgb(0,0,0)" stroke-opacity="1" stroke-width="8" fill="rgb(0,0,0)" fill-opacity="1"/></g></g></g><g><g><g transform="matrix(1,0,0,1,123.74444580078125,182.47825622558594)"><path transform="matrix(0.017,0,0,-0.017,0,0)" d="M247 0L247 31C181 31 177 36 177 75L177 442L37 431L37 400C102 400 111 394 111 345L111 76C111 31 100 31 33 31L33 0L143 3C178 3 213 1 247 0ZM192 604C192 631 169 657 139 657C105 657 85 629 85 604C85 577 108 551 138 551C172 551 192 579 192 604ZM813 0L813 31C761 31 736 31 735 61L735 252C735 338 735 369 704 405C690 422 657 442 599 442C526 442 479 399 451 337L451 442L310 431L310 400C380 400 388 393 388 344L388 76C388 31 377 31 310 31L310 0L423 3L535 0L535 31C468 31 457 31 457 76L457 260C457 364 528 420 592 420C655 420 666 366 666 309L666 76C666 31 655 31 588 31L588 0L701 3ZM1342 400L1342 431C1319 429 1290 428 1267 428L1180 431L1180 400C1217 399 1228 376 1228 357C1228 348 1226 344 1222 333L1120 78L1008 357C1002 370 1002 374 1002 374C1002 400 1041 400 1059 400L1059 431L950 428C923 428 883 429 853 431L853 400C916 400 920 394 933 363L1077 8C1083 -6 1085 -11 1098 -11C1111 -11 1115 -2 1119 8L1250 333C1259 356 1276 399 1342 400ZM1777 119C1777 129 1769 131 1764 131C1755 131 1753 125 1751 117C1716 14 1626 14 1616 14C1566 14 1526 44 1503 81C1473 129 1473 195 1473 231L1752 231C1774 231 1777 231 1777 252C1777 351 1723 448 1598 448C1482 448 1390 345 1390 220C1390 86 1495 -11 1610 -11C1732 -11 1777 100 1777 119ZM1711 252L1474 252C1480 401 1564 426 1598 426C1701 426 1711 291 1711 252ZM2170 381C2170 413 2139 442 2096 442C2023 442 1987 375 1973 332L1973 442L1834 431L1834 400C1904 400 1912 393 1912 344L1912 76C1912 31 1901 31 1834 31L1834 0L1948 3C1988 3 2035 3 2075 0L2075 31L2054 31C1980 31 1978 42 1978 78L1978 232C1978 331 2020 420 2096 420C2103 420 2105 420 2107 419C2104 418 2084 406 2084 380C2084 352 2105 337 2127 337C2145 337 2170 349 2170 381ZM2530 124L2530 181L2505 181L2505 126C2505 52 2475 14 2438 14C2371 14 2371 105 2371 122L2371 400L2514 400L2514 431L2371 431L2371 615L2346 615C2345 533 2315 426 2217 422L2217 400L2302 400L2302 124C2302 1 2395 -11 2431 -11C2502 -11 2530 60 2530 124ZM2834 0L2834 31C2768 31 2764 36 2764 75L2764 442L2624 431L2624 400C2689 400 2698 394 2698 345L2698 76C2698 31 2687 31 2620 31L2620 0L2730 3C2765 3 2800 1 2834 0ZM2779 604C2779 631 2756 657 2726 657C2692 657 2672 629 2672 604C2672 577 2695 551 2725 551C2759 551 2779 579 2779 604ZM3386 216C3386 343 3288 442 3174 442C3096 442 3053 395 3037 377L3037 694L2893 683L2893 652C2963 652 2971 645 2971 596L2971 0L2996 0L3032 62C3047 39 3089 -11 3163 -11C3282 -11 3386 87 3386 216ZM3303 217C3303 180 3301 120 3272 75C3251 44 3213 11 3159 11C3114 11 3078 35 3054 72C3040 93 3040 96 3040 114L3040 320C3040 339 3040 340 3051 356C3090 412 3145 420 3169 420C3214 420 3250 394 3274 356C3300 315 3303 258 3303 217ZM3676 0L3676 31C3609 31 3598 31 3598 76L3598 694L3454 683L3454 652C3524 652 3532 645 3532 596L3532 76C3532 31 3521 31 3454 31L3454 0L3565 3ZM4114 119C4114 129 4106 131 4101 131C4092 131 4090 125 4088 117C4053 14 3963 14 3953 14C3903 14 3863 44 3840 81C3810 129 3810 195 3810 231L4089 231C4111 231 4114 231 4114 252C4114 351 4060 448 3935 448C3819 448 3727 345 3727 220C3727 86 3832 -11 3947 -11C4069 -11 4114 100 4114 119ZM4048 252L3811 252C3817 401 3901 426 3935 426C4038 426 4048 291 4048 252Z" stroke="rgb(0,0,0)" stroke-opacity="1" stroke-width="8" fill="rgb(0,0,0)" fill-opacity="1"/></g></g></g></g></svg>
</svg>