<svg version="1.1" viewBox="0.0 0.0 1182.4566929133857 562.3097112860893" fill="none" stroke="none" stroke-linecap="square" stroke-miterlimit="10" xmlns:xlink="http://www.w3.org/1999/xlink" xmlns="http://www.w3.org/2000/svg"><clipPath id="p.0"><path d="m0 0l1182.4567 0l0 562.3097l-1182.4567 0l0 -562.3097z" clip-rule="nonzero"/></clipPath><g clip-path="url(#p.0)"><path fill="#000000" fill-opacity="0.0" d="m0 0l1182.4567 0l0 562.3097l-1182.4567 0z" fill-rule="evenodd"/><path fill="#93c47d" d="m1143.4304 490.33875l0 0c0 26.509644 -21.490356 48.0 -48.0 48.0l0 0c-12.730347 0 -24.939331 -5.057129 -33.94104 -14.058899c-9.001831 -9.001709 -14.05896 -21.210724 -14.05896 -33.9411l0 0c0 -26.509674 21.490356 -48.0 48.0 -48.0l0 0c26.509644 0 48.0 21.490326 48.0 48.0z" fill-rule="evenodd"/><path stroke="#000000" stroke-width="8.0" stroke-linejoin="round" stroke-linecap="butt" d="m1143.4304 490.33875l0 0c0 26.509644 -21.490356 48.0 -48.0 48.0l0 0c-12.730347 0 -24.939331 -5.057129 -33.94104 -14.058899c-9.001831 -9.001709 -14.05896 -21.210724 -14.05896 -33.9411l0 0c0 -26.509674 21.490356 -48.0 48.0 -48.0l0 0c26.509644 0 48.0 21.490326 48.0 48.0z" fill-rule="evenodd"/><path fill="#93c47d" d="m999.42914 490.33875l0 0c0 26.509644 -21.490356 48.0 -48.0 48.0l0 0c-12.730408 0 -24.939392 -5.057129 -33.9411 -14.058899c-9.00177 -9.001709 -14.058899 -21.210724 -14.058899 -33.9411l0 0c0 -26.509674 21.490356 -48.0 48.0 -48.0l0 0c26.509644 0 48.0 21.490326 48.0 48.0z" fill-rule="evenodd"/><path stroke="#000000" stroke-width="8.0" stroke-linejoin="round" stroke-linecap="butt" d="m999.42914 490.33875l0 0c0 26.509644 -21.490356 48.0 -48.0 48.0l0 0c-12.730408 0 -24.939392 -5.057129 -33.9411 -14.058899c-9.00177 -9.001709 -14.058899 -21.210724 -14.058899 -33.9411l0 0c0 -26.509674 21.490356 -48.0 48.0 -48.0l0 0c26.509644 0 48.0 21.490326 48.0 48.0z" fill-rule="evenodd"/><path fill="#93c47d" d="m855.42914 490.33875l0 0c0 26.509644 -21.490356 48.0 -48.0 48.0l0 0c-12.730408 0 -24.939392 -5.057129 -33.9411 -14.058899c-9.00177 -9.001709 -14.058899 -21.210724 -14.058899 -33.9411l0 0c0 -26.509674 21.490356 -48.0 48.0 -48.0l0 0c26.509644 0 48.0 21.490326 48.0 48.0z" fill-rule="evenodd"/><path stroke="#000000" stroke-width="8.0" stroke-linejoin="round" stroke-linecap="butt" d="m855.42914 490.33875l0 0c0 26.509644 -21.490356 48.0 -48.0 48.0l0 0c-12.730408 0 -24.939392 -5.057129 -33.9411 -14.058899c-9.00177 -9.001709 -14.058899 -21.210724 -14.058899 -33.9411l0 0c0 -26.509674 21.490356 -48.0 48.0 -48.0l0 0c26.509644 0 48.0 21.490326 48.0 48.0z" fill-rule="evenodd"/><path fill="#93c47d" d="m711.4278 490.33875l0 0c0 26.509644 -21.490295 48.0 -48.0 48.0l0 0c-12.730347 0 -24.939331 -5.057129 -33.9411 -14.058899c-9.00177 -9.001709 -14.058899 -21.210724 -14.058899 -33.9411l0 0c0 -26.509674 21.490356 -48.0 48.0 -48.0l0 0c26.509705 0 48.0 21.490326 48.0 48.0z" fill-rule="evenodd"/><path stroke="#000000" stroke-width="8.0" stroke-linejoin="round" stroke-linecap="butt" d="m711.4278 490.33875l0 0c0 26.509644 -21.490295 48.0 -48.0 48.0l0 0c-12.730347 0 -24.939331 -5.057129 -33.9411 -14.058899c-9.00177 -9.001709 -14.058899 -21.210724 -14.058899 -33.9411l0 0c0 -26.509674 21.490356 -48.0 48.0 -48.0l0 0c26.509705 0 48.0 21.490326 48.0 48.0z" fill-rule="evenodd"/><path fill="#93c47d" d="m567.42914 490.33875l0 0c0 26.509644 -21.490356 48.0 -48.0 48.0l0 0c-12.730408 0 -24.939392 -5.057129 -33.94113 -14.058899c-9.0017395 -9.001709 -14.058868 -21.210724 -14.058868 -33.9411l0 0c0 -26.509674 21.490326 -48.0 48.0 -48.0l0 0c26.509644 0 48.0 21.490326 48.0 48.0z" fill-rule="evenodd"/><path stroke="#000000" stroke-width="8.0" stroke-linejoin="round" stroke-linecap="butt" d="m567.42914 490.33875l0 0c0 26.509644 -21.490356 48.0 -48.0 48.0l0 0c-12.730408 0 -24.939392 -5.057129 -33.94113 -14.058899c-9.0017395 -9.001709 -14.058868 -21.210724 -14.058868 -33.9411l0 0c0 -26.509674 21.490326 -48.0 48.0 -48.0l0 0c26.509644 0 48.0 21.490326 48.0 48.0z" fill-rule="evenodd"/><path fill="#93c47d" d="m423.42783 490.33875l0 0c0 26.509644 -21.490326 48.0 -48.0 48.0l0 0c-12.730408 0 -24.939392 -5.057129 -33.94113 -14.058899c-9.0017395 -9.001709 -14.058868 -21.210724 -14.058868 -33.9411l0 0c0 -26.509674 21.490326 -48.0 48.0 -48.0l0 0c26.509674 0 48.0 21.490326 48.0 48.0z" fill-rule="evenodd"/><path stroke="#000000" stroke-width="8.0" stroke-linejoin="round" stroke-linecap="butt" d="m423.42783 490.33875l0 0c0 26.509644 -21.490326 48.0 -48.0 48.0l0 0c-12.730408 0 -24.939392 -5.057129 -33.94113 -14.058899c-9.0017395 -9.001709 -14.058868 -21.210724 -14.058868 -33.9411l0 0c0 -26.509674 21.490326 -48.0 48.0 -48.0l0 0c26.509674 0 48.0 21.490326 48.0 48.0z" fill-rule="evenodd"/><path fill="#93c47d" d="m279.42783 490.33875l0 0c0 26.509644 -21.490326 48.0 -48.0 48.0l0 0c-12.730392 0 -24.939377 -5.057129 -33.94113 -14.058899c-9.0017395 -9.001709 -14.058868 -21.210724 -14.058868 -33.9411l0 0c0 -26.509674 21.490326 -48.0 48.0 -48.0l0 0c26.509674 0 48.0 21.490326 48.0 48.0z" fill-rule="evenodd"/><path stroke="#000000" stroke-width="8.0" stroke-linejoin="round" stroke-linecap="butt" d="m279.42783 490.33875l0 0c0 26.509644 -21.490326 48.0 -48.0 48.0l0 0c-12.730392 0 -24.939377 -5.057129 -33.94113 -14.058899c-9.0017395 -9.001709 -14.058868 -21.210724 -14.058868 -33.9411l0 0c0 -26.509674 21.490326 -48.0 48.0 -48.0l0 0c26.509674 0 48.0 21.490326 48.0 48.0z" fill-rule="evenodd"/><path fill="#93c47d" d="m135.42651 490.33875l0 0c0 26.509644 -21.490334 48.0 -48.0 48.0l0 0c-12.730392 0 -24.93938 -5.057129 -33.941128 -14.058899c-9.001743 -9.001709 -14.058872 -21.210724 -14.058872 -33.9411l0 0c0 -26.509674 21.49033 -48.0 48.0 -48.0l0 0c26.509666 0 48.0 21.490326 48.0 48.0z" fill-rule="evenodd"/><path stroke="#000000" stroke-width="8.0" stroke-linejoin="round" stroke-linecap="butt" d="m135.42651 490.33875l0 0c0 26.509644 -21.490334 48.0 -48.0 48.0l0 0c-12.730392 0 -24.93938 -5.057129 -33.941128 -14.058899c-9.001743 -9.001709 -14.058872 -21.210724 -14.058872 -33.9411l0 0c0 -26.509674 21.49033 -48.0 48.0 -48.0l0 0c26.509666 0 48.0 21.490326 48.0 48.0z" fill-rule="evenodd"/><path fill="#93c47d" d="m1071.4291 346.33875l0 0c0 26.509674 -21.490234 48.0 -47.99994 48.0l0 0c-12.730408 0 -24.939392 -5.057129 -33.9411 -14.058868c-9.00177 -9.0017395 -14.058899 -21.210754 -14.058899 -33.94113l0 0c0 -26.509674 21.490356 -48.0 48.0 -48.0l0 0c26.509705 0 47.99994 21.490326 47.99994 48.0z" fill-rule="evenodd"/><path stroke="#000000" stroke-width="8.0" stroke-linejoin="round" stroke-linecap="butt" d="m1071.4291 346.33875l0 0c0 26.509674 -21.490234 48.0 -47.99994 48.0l0 0c-12.730408 0 -24.939392 -5.057129 -33.9411 -14.058868c-9.00177 -9.0017395 -14.058899 -21.210754 -14.058899 -33.94113l0 0c0 -26.509674 21.490356 -48.0 48.0 -48.0l0 0c26.509705 0 47.99994 21.490326 47.99994 48.0z" fill-rule="evenodd"/><path fill="#93c47d" d="m783.4278 346.33875l0 0c0 26.509674 -21.490295 48.0 -48.0 48.0l0 0c-12.730347 0 -24.939331 -5.057129 -33.9411 -14.058868c-9.00177 -9.0017395 -14.058899 -21.210754 -14.058899 -33.94113l0 0c0 -26.509674 21.490356 -48.0 48.0 -48.0l0 0c26.509705 0 48.0 21.490326 48.0 48.0z" fill-rule="evenodd"/><path stroke="#000000" stroke-width="8.0" stroke-linejoin="round" stroke-linecap="butt" d="m783.4278 346.33875l0 0c0 26.509674 -21.490295 48.0 -48.0 48.0l0 0c-12.730347 0 -24.939331 -5.057129 -33.9411 -14.058868c-9.00177 -9.0017395 -14.058899 -21.210754 -14.058899 -33.94113l0 0c0 -26.509674 21.490356 -48.0 48.0 -48.0l0 0c26.509705 0 48.0 21.490326 48.0 48.0z" fill-rule="evenodd"/><path fill="#93c47d" d="m495.42783 346.33875l0 0c0 26.509674 -21.490326 48.0 -48.0 48.0l0 0c-12.730408 0 -24.939392 -5.057129 -33.94113 -14.058868c-9.0017395 -9.0017395 -14.058868 -21.210754 -14.058868 -33.94113l0 0c0 -26.509674 21.490326 -48.0 48.0 -48.0l0 0c26.509674 0 48.0 21.490326 48.0 48.0z" fill-rule="evenodd"/><path stroke="#000000" stroke-width="8.0" stroke-linejoin="round" stroke-linecap="butt" d="m495.42783 346.33875l0 0c0 26.509674 -21.490326 48.0 -48.0 48.0l0 0c-12.730408 0 -24.939392 -5.057129 -33.94113 -14.058868c-9.0017395 -9.0017395 -14.058868 -21.210754 -14.058868 -33.94113l0 0c0 -26.509674 21.490326 -48.0 48.0 -48.0l0 0c26.509674 0 48.0 21.490326 48.0 48.0z" fill-rule="evenodd"/><path fill="#93c47d" d="m207.42651 346.33875l0 0c0 26.509674 -21.490326 48.0 -48.0 48.0l0 0c-12.730392 0 -24.939377 -5.057129 -33.941124 -14.058868c-9.001747 -9.0017395 -14.058876 -21.210754 -14.058876 -33.94113l0 0c0 -26.509674 21.490326 -48.0 48.0 -48.0l0 0c26.509674 0 48.0 21.490326 48.0 48.0z" fill-rule="evenodd"/><path stroke="#000000" stroke-width="8.0" stroke-linejoin="round" stroke-linecap="butt" d="m207.42651 346.33875l0 0c0 26.509674 -21.490326 48.0 -48.0 48.0l0 0c-12.730392 0 -24.939377 -5.057129 -33.941124 -14.058868c-9.001747 -9.0017395 -14.058876 -21.210754 -14.058876 -33.94113l0 0c0 -26.509674 21.490326 -48.0 48.0 -48.0l0 0c26.509674 0 48.0 21.490326 48.0 48.0z" fill-rule="evenodd"/><path fill="#93c47d" d="m927.42914 202.33875l0 0c0 26.509674 -21.490356 48.0 -48.0 48.0l0 0c-12.730408 0 -24.939392 -5.057129 -33.9411 -14.058868c-9.00177 -9.001755 -14.058899 -21.21074 -14.058899 -33.94113l0 0c0 -26.509674 21.490356 -48.0 48.0 -48.0l0 0c26.509644 0 48.0 21.490326 48.0 48.0z" fill-rule="evenodd"/><path stroke="#000000" stroke-width="8.0" stroke-linejoin="round" stroke-linecap="butt" d="m927.42914 202.33875l0 0c0 26.509674 -21.490356 48.0 -48.0 48.0l0 0c-12.730408 0 -24.939392 -5.057129 -33.9411 -14.058868c-9.00177 -9.001755 -14.058899 -21.21074 -14.058899 -33.94113l0 0c0 -26.509674 21.490356 -48.0 48.0 -48.0l0 0c26.509644 0 48.0 21.490326 48.0 48.0z" fill-rule="evenodd"/><path fill="#93c47d" d="m351.42783 202.33875l0 0c0 26.509674 -21.490326 48.0 -48.0 48.0l0 0c-12.730408 0 -24.939392 -5.057129 -33.94113 -14.058868c-9.0017395 -9.001755 -14.058868 -21.21074 -14.058868 -33.94113l0 0c0 -26.509674 21.490326 -48.0 48.0 -48.0l0 0c26.509674 0 48.0 21.490326 48.0 48.0z" fill-rule="evenodd"/><path stroke="#000000" stroke-width="8.0" stroke-linejoin="round" stroke-linecap="butt" d="m351.42783 202.33875l0 0c0 26.509674 -21.490326 48.0 -48.0 48.0l0 0c-12.730408 0 -24.939392 -5.057129 -33.94113 -14.058868c-9.0017395 -9.001755 -14.058868 -21.21074 -14.058868 -33.94113l0 0c0 -26.509674 21.490326 -48.0 48.0 -48.0l0 0c26.509674 0 48.0 21.490326 48.0 48.0z" fill-rule="evenodd"/><path fill="#93c47d" d="m639.4278 58.338745l0 0c0 26.509666 -21.490295 48.0 -48.0 48.0l0 0c-12.730347 0 -24.939331 -5.057129 -33.9411 -14.058876c-9.00177 -9.001747 -14.058899 -21.210732 -14.058899 -33.941124l0 0c0 -26.509668 21.490356 -48.0 48.0 -48.0l0 0c26.509705 0 48.0 21.490334 48.0 48.0z" fill-rule="evenodd"/><path stroke="#000000" stroke-width="8.0" stroke-linejoin="round" stroke-linecap="butt" d="m639.4278 58.338745l0 0c0 26.509666 -21.490295 48.0 -48.0 48.0l0 0c-12.730347 0 -24.939331 -5.057129 -33.9411 -14.058876c-9.00177 -9.001747 -14.058899 -21.210732 -14.058899 -33.941124l0 0c0 -26.509668 21.490356 -48.0 48.0 -48.0l0 0c26.509705 0 48.0 21.490334 48.0 48.0z" fill-rule="evenodd"/><path fill="#000000" fill-opacity="0.0" d="m546.9752 73.78345l-209.60626 94.61417" fill-rule="evenodd"/><path stroke="#000000" stroke-width="8.0" stroke-linejoin="round" stroke-linecap="butt" d="m546.9752 73.78345l-165.85681 74.866104" fill-rule="evenodd"/><path fill="#000000" stroke="#000000" stroke-width="8.0" stroke-linecap="butt" d="m375.68198 136.60582l-27.653442 26.980179l38.526276 -2.8927155z" fill-rule="evenodd"/><path fill="#000000" fill-opacity="0.0" d="m269.4867 236.27988l-76.12598 76.12598" fill-rule="evenodd"/><path stroke="#000000" stroke-width="8.0" stroke-linejoin="round" stroke-linecap="butt" d="m269.4867 236.27988l-42.18486 42.184845" fill-rule="evenodd"/><path fill="#000000" stroke="#000000" stroke-width="8.0" stroke-linecap="butt" d="m217.95822 269.12112l-16.327744 35.014954l35.01497 -16.327728z" fill-rule="evenodd"/><path fill="#000000" fill-opacity="0.0" d="m125.48539 380.27988l-38.04725 62.04724" fill-rule="evenodd"/><path stroke="#000000" stroke-width="8.0" stroke-linejoin="round" stroke-linecap="butt" d="m125.48539 380.27985l-12.955505 21.127747" fill-rule="evenodd"/><path fill="#000000" stroke="#000000" stroke-width="8.0" stroke-linecap="butt" d="m101.26521 394.50015l-7.713455 37.856903l30.242805 -24.041962z" fill-rule="evenodd"/><path fill="#000000" fill-opacity="0.0" d="m193.36765 380.27988l38.04724 62.04724" fill-rule="evenodd"/><path stroke="#000000" stroke-width="8.0" stroke-linejoin="round" stroke-linecap="butt" d="m193.36765 380.27985l12.95549 21.127747" fill-rule="evenodd"/><path fill="#000000" stroke="#000000" stroke-width="8.0" stroke-linecap="butt" d="m195.05847 408.3151l30.242798 24.041962l-7.713455 -37.856903z" fill-rule="evenodd"/><path fill="#000000" fill-opacity="0.0" d="m413.4867 380.27988l-38.04724 62.04724" fill-rule="evenodd"/><path stroke="#000000" stroke-width="8.0" stroke-linejoin="round" stroke-linecap="butt" d="m413.48672 380.27985l-12.955505 21.127747" fill-rule="evenodd"/><path fill="#000000" stroke="#000000" stroke-width="8.0" stroke-linecap="butt" d="m389.26654 394.50015l-7.7134705 37.856903l30.242828 -24.041962z" fill-rule="evenodd"/><path fill="#000000" fill-opacity="0.0" d="m481.36896 380.27988l38.04724 62.04724" fill-rule="evenodd"/><path stroke="#000000" stroke-width="8.0" stroke-linejoin="round" stroke-linecap="butt" d="m481.36893 380.27985l12.955505 21.127747" fill-rule="evenodd"/><path fill="#000000" stroke="#000000" stroke-width="8.0" stroke-linecap="butt" d="m483.05975 408.3151l30.242798 24.041962l-7.71344 -37.856903z" fill-rule="evenodd"/><path fill="#000000" fill-opacity="0.0" d="m701.4867 380.27988l-38.04724 62.04724" fill-rule="evenodd"/><path stroke="#000000" stroke-width="8.0" stroke-linejoin="round" stroke-linecap="butt" d="m701.4867 380.27985l-12.955444 21.127747" fill-rule="evenodd"/><path fill="#000000" stroke="#000000" stroke-width="8.0" stroke-linecap="butt" d="m677.26654 394.50015l-7.71344 37.856903l30.242798 -24.041962z" fill-rule="evenodd"/><path fill="#000000" fill-opacity="0.0" d="m769.36896 380.27988l38.04724 62.04724" fill-rule="evenodd"/><path stroke="#000000" stroke-width="8.0" stroke-linejoin="round" stroke-linecap="butt" d="m769.36896 380.27985l12.955444 21.127747" fill-rule="evenodd"/><path fill="#000000" stroke="#000000" stroke-width="8.0" stroke-linecap="butt" d="m771.05975 408.3151l30.242798 24.041962l-7.71344 -37.856903z" fill-rule="evenodd"/><path fill="#000000" fill-opacity="0.0" d="m845.48804 236.27988l-76.12604 76.12598" fill-rule="evenodd"/><path stroke="#000000" stroke-width="8.0" stroke-linejoin="round" stroke-linecap="butt" d="m845.48804 236.27988l-42.184875 42.184845" fill-rule="evenodd"/><path fill="#000000" stroke="#000000" stroke-width="8.0" stroke-linecap="butt" d="m793.95953 269.12112l-16.327698 35.014954l35.014954 -16.327728z" fill-rule="evenodd"/><path fill="#000000" fill-opacity="0.0" d="m913.37024 236.27988l76.12604 76.12598" fill-rule="evenodd"/><path stroke="#000000" stroke-width="8.0" stroke-linejoin="round" stroke-linecap="butt" d="m913.37024 236.27988l42.184875 42.184845" fill-rule="evenodd"/><path fill="#000000" stroke="#000000" stroke-width="8.0" stroke-linecap="butt" d="m946.2115 287.80835l35.014954 16.327728l-16.327698 -35.014954z" fill-rule="evenodd"/><path fill="#000000" fill-opacity="0.0" d="m989.48804 380.27988l-38.04724 62.04724" fill-rule="evenodd"/><path stroke="#000000" stroke-width="8.0" stroke-linejoin="round" stroke-linecap="butt" d="m989.48804 380.27985l-12.955444 21.127747" fill-rule="evenodd"/><path fill="#000000" stroke="#000000" stroke-width="8.0" stroke-linecap="butt" d="m965.2678 394.50015l-7.71344 37.856903l30.242798 -24.041962z" fill-rule="evenodd"/><path fill="#000000" fill-opacity="0.0" d="m1057.3702 380.27988l38.04724 62.04724" fill-rule="evenodd"/><path stroke="#000000" stroke-width="8.0" stroke-linejoin="round" stroke-linecap="butt" d="m1057.3702 380.27985l12.955444 21.127747" fill-rule="evenodd"/><path fill="#000000" stroke="#000000" stroke-width="8.0" stroke-linecap="butt" d="m1059.061 408.3151l30.242798 24.041962l-7.713379 -37.856903z" fill-rule="evenodd"/><path fill="#000000" fill-opacity="0.0" d="m638.1494 74.35037l207.33862 94.04724" fill-rule="evenodd"/><path stroke="#000000" stroke-width="8.0" stroke-linejoin="round" stroke-linecap="butt" d="m638.1494 74.35037l163.62537 74.21924" fill-rule="evenodd"/><path fill="#000000" stroke="#000000" stroke-width="8.0" stroke-linecap="butt" d="m796.31635 160.60338l38.520935 2.9631348l-27.604065 -27.030685z" fill-rule="evenodd"/><path fill="#000000" fill-opacity="0.0" d="m337.36896 236.27988l76.12598 76.12598" fill-rule="evenodd"/><path stroke="#000000" stroke-width="8.0" stroke-linejoin="round" stroke-linecap="butt" d="m337.36896 236.27988l42.184845 42.184845" fill-rule="evenodd"/><path fill="#000000" stroke="#000000" stroke-width="8.0" stroke-linecap="butt" d="m370.21017 287.80835l35.014984 16.327728l-16.327759 -35.014954z" fill-rule="evenodd"/></g></svg>