<svg xmlns="http://www.w3.org/2000/svg" xmlns:xlink="http://www.w3.org/1999/xlink" x="0" y="0" width="425" height="225.6045379638672" style="width: 425px;height:225.6045379638672px;background: transparent;fill: none;">
        
        
        <svg xmlns="http://www.w3.org/2000/svg" class="role-diagram-draw-area" style="overflow: visible;"><g class="shapes-region" style="stroke: black; fill: none;"><g class="arrow-line"><path class="connection real" stroke-dasharray="" d="  M481.47,100.67 L-50.33,100.67" style="stroke: rgb(0, 0, 0); stroke-width: 1; fill: none; fill-opacity: 1;"/></g><g class="arrow-line"><path class="connection real" stroke-dasharray="" d="  M326.31,37.79 L95.51,37.79" style="stroke: rgb(33, 67, 255); stroke-opacity: 1; stroke-width: 1; fill: none; fill-opacity: 1;"/><g stroke="rgb(33,67,255)" stroke-opacity="1" transform="matrix(1,-2.4492935982947064e-16,2.4492935982947064e-16,1,95.50791531751383,37.791116666666625)" style="stroke: rgb(33, 67, 255); stroke-width: 1;"><path d=" M0,7.83 L0,-7.83"/></g><g stroke="rgb(33,67,255)" stroke-opacity="1" transform="matrix(1,-2.4492935982947064e-16,2.4492935982947064e-16,1,326.31366390573595,37.791116666666625)" style="stroke: rgb(33, 67, 255); stroke-width: 1;"><path d=" M0,7.83 L0,-7.83"/></g></g><g class="arrow-line"><path class="connection real" stroke-dasharray="" d="  M326.89,6.79 L96.08,6.79" style="stroke: rgb(25, 164, 0); stroke-opacity: 1; stroke-width: 1; fill: none; fill-opacity: 1;"/><g stroke="rgb(25,164,0)" stroke-opacity="1" fill="rgb(25,164,0)" fill-opacity="1" transform="matrix(-1,1.2246467991473532e-16,-1.2246467991473532e-16,-1,96.08205897071838,6.791116666666611)" style="stroke: rgb(25, 164, 0); fill: rgb(25, 164, 0); stroke-width: 1;"><circle cx="0" cy="0" r="3.35"/></g><g stroke="rgb(25,164,0)" stroke-opacity="1" fill="rgb(25,164,0)" fill-opacity="1" transform="matrix(-1,1.2246467991473532e-16,-1.2246467991473532e-16,-1,326.88780755894044,6.791116666666611)" style="stroke: rgb(25, 164, 0); fill: rgb(25, 164, 0); stroke-width: 1;"><circle cx="0" cy="0" r="3.35"/></g></g><g class="arrow-line"><path class="connection real" stroke-dasharray="" d="  M210.79,91.67 L210.79,106.48" style="stroke: rgb(232, 0, 0); stroke-width: 2; fill: none; fill-opacity: 1; stroke-opacity: 1;"/></g><g/></g><g/><g/><g/></svg>
        <svg xmlns="http://www.w3.org/2000/svg" xmlns:xlink="http://www.w3.org/1999/xlink" width="793.9918212890625" height="224.4140625" style="width:793.9918212890625px;height:224.4140625px;font-family:LatinModern-Math, LatinModern, Asana-Math, Asana;background:transparent;"><g><g><g><g transform="matrix(1,0,0,1,8.705352783203125,108.936669921875)"><path transform="matrix(0.03735,0,0,-0.03735,0,0)" d="M256 -230C256 -219 247 -210 236 -210L154 -210L154 710L236 710C247 710 256 719 256 730C256 741 247 750 236 750L114 750L114 -250L236 -250C247 -250 256 -241 256 -230Z" stroke="rgb(0,0,0)" stroke-opacity="1" stroke-width="8" fill="rgb(0,0,0)" fill-opacity="1"></path></g></g></g></g><g><g><g><g transform="matrix(1,0,0,1,8.9285888671875,132.26190185546875)"><path transform="matrix(0.015,0,0,-0.015,0,0)" d="M498 143C498 153 489 153 486 153C476 153 475 149 472 135C455 70 437 11 396 11C369 11 366 37 366 57C366 79 368 87 379 131L401 221L437 361C444 389 444 391 444 395C444 412 432 422 415 422C391 422 376 400 373 378C355 415 326 442 281 442C164 442 40 295 40 149C40 55 95 -11 173 -11C193 -11 243 -7 303 64C311 22 346 -11 394 -11C429 -11 452 12 468 44C485 80 498 143 498 143ZM361 332C361 326 359 320 358 315L308 119C303 101 303 99 288 82C244 27 203 11 175 11C125 11 111 66 111 105C111 155 143 278 166 324C197 383 242 420 282 420C347 420 361 338 361 332Z" stroke="rgb(0,0,0)" stroke-opacity="1" stroke-width="8" fill="rgb(0,0,0)" fill-opacity="1"></path></g></g><g><g><g><g><g transform="matrix(1,0,0,1,17.317718505859375,134.90476989746094)"><path transform="matrix(0.0105,0,0,-0.0105,0,0)" d="M419 0L419 31L387 31C297 31 294 42 294 79L294 640C294 664 294 666 271 666C209 602 121 602 89 602L89 571C109 571 168 571 220 597L220 79C220 43 217 31 127 31L95 31L95 0C130 3 217 3 257 3C297 3 384 3 419 0Z" stroke="rgb(0,0,0)" stroke-opacity="1" stroke-width="8" fill="rgb(0,0,0)" fill-opacity="1"></path></g></g></g></g></g><g><g transform="matrix(1,0,0,1,23.46539306640625,132.26190185546875)"><path transform="matrix(0.015,0,0,-0.015,0,0)" d="M830 143C830 153 821 153 818 153C808 153 807 149 804 135C787 70 769 11 728 11C701 11 698 37 698 57C698 79 700 87 711 131L733 221L769 361C776 389 776 391 776 395C776 412 764 422 747 422C723 422 708 400 705 378C687 415 658 442 613 442C496 442 372 295 372 149C372 55 427 -11 505 -11C525 -11 575 -7 635 64C643 22 678 -11 726 -11C761 -11 784 12 800 44C817 80 830 143 830 143ZM693 332C693 326 691 320 690 315L640 119C635 101 635 99 620 82C576 27 535 11 507 11C457 11 443 66 443 105C443 155 475 278 498 324C529 383 574 420 614 420C679 420 693 338 693 332Z" stroke="rgb(0,0,0)" stroke-opacity="1" stroke-width="8" fill="rgb(0,0,0)" fill-opacity="1"></path></g></g><g><g><g><g><g transform="matrix(1,0,0,1,36.830352783203125,134.90476989746094)"><path transform="matrix(0.0105,0,0,-0.0105,0,0)" d="M449 174L424 174C419 144 412 100 402 85C395 77 329 77 307 77L127 77L233 180C389 318 449 372 449 472C449 586 359 666 237 666C124 666 50 574 50 485C50 429 100 429 103 429C120 429 155 441 155 482C155 508 137 534 102 534C94 534 92 534 89 533C112 598 166 635 224 635C315 635 358 554 358 472C358 392 308 313 253 251L61 37C50 26 50 24 50 0L421 0Z" stroke="rgb(0,0,0)" stroke-opacity="1" stroke-width="8" fill="rgb(0,0,0)" fill-opacity="1"></path></g></g></g></g></g><g><g transform="matrix(1,0,0,1,42.978057861328125,132.26190185546875)"><path transform="matrix(0.015,0,0,-0.015,0,0)" d="M830 143C830 153 821 153 818 153C808 153 807 149 804 135C787 70 769 11 728 11C701 11 698 37 698 57C698 79 700 87 711 131L733 221L769 361C776 389 776 391 776 395C776 412 764 422 747 422C723 422 708 400 705 378C687 415 658 442 613 442C496 442 372 295 372 149C372 55 427 -11 505 -11C525 -11 575 -7 635 64C643 22 678 -11 726 -11C761 -11 784 12 800 44C817 80 830 143 830 143ZM693 332C693 326 691 320 690 315L640 119C635 101 635 99 620 82C576 27 535 11 507 11C457 11 443 66 443 105C443 155 475 278 498 324C529 383 574 420 614 420C679 420 693 338 693 332Z" stroke="rgb(0,0,0)" stroke-opacity="1" stroke-width="8" fill="rgb(0,0,0)" fill-opacity="1"></path></g></g><g><g><g><g><g transform="matrix(1,0,0,1,56.343017578125,134.90476989746094)"><path transform="matrix(0.0105,0,0,-0.0105,0,0)" d="M457 171C457 253 394 331 290 352C372 379 430 449 430 528C430 610 342 666 246 666C145 666 69 606 69 530C69 497 91 478 120 478C151 478 171 500 171 529C171 579 124 579 109 579C140 628 206 641 242 641C283 641 338 619 338 529C338 517 336 459 310 415C280 367 246 364 221 363C213 362 189 360 182 360C174 359 167 358 167 348C167 337 174 337 191 337L235 337C317 337 354 269 354 171C354 35 285 6 241 6C198 6 123 23 88 82C123 77 154 99 154 137C154 173 127 193 98 193C74 193 42 179 42 135C42 44 135 -22 244 -22C366 -22 457 69 457 171Z" stroke="rgb(0,0,0)" stroke-opacity="1" stroke-width="8" fill="rgb(0,0,0)" fill-opacity="1"></path></g></g></g></g></g><g><g transform="matrix(1,0,0,1,65.48550415039062,132.26190185546875)"><path transform="matrix(0.015,0,0,-0.015,0,0)" d="M193 53C193 82 169 106 140 106C111 106 87 82 87 53C87 24 111 0 140 0C169 0 193 24 193 53ZM472 53C472 82 448 106 419 106C390 106 366 82 366 53C366 24 390 0 419 0C448 0 472 24 472 53ZM751 53C751 82 727 106 698 106C669 106 645 82 645 53C645 24 669 0 698 0C727 0 751 24 751 53Z" stroke="rgb(0,0,0)" stroke-opacity="1" stroke-width="8" fill="rgb(0,0,0)" fill-opacity="1"></path></g></g><g><g transform="matrix(1,0,0,1,81.03610229492188,132.26190185546875)"><path transform="matrix(0.015,0,0,-0.015,0,0)" d="M498 143C498 153 489 153 486 153C476 153 475 149 472 135C455 70 437 11 396 11C369 11 366 37 366 57C366 79 368 87 379 131L401 221L437 361C444 389 444 391 444 395C444 412 432 422 415 422C391 422 376 400 373 378C355 415 326 442 281 442C164 442 40 295 40 149C40 55 95 -11 173 -11C193 -11 243 -7 303 64C311 22 346 -11 394 -11C429 -11 452 12 468 44C485 80 498 143 498 143ZM361 332C361 326 359 320 358 315L308 119C303 101 303 99 288 82C244 27 203 11 175 11C125 11 111 66 111 105C111 155 143 278 166 324C197 383 242 420 282 420C347 420 361 338 361 332Z" stroke="rgb(0,0,0)" stroke-opacity="1" stroke-width="8" fill="rgb(0,0,0)" fill-opacity="1"></path></g></g><g><g><g><g><g transform="matrix(1,0,0,1,89.42523193359375,134.90476989746094)"><path transform="matrix(0.0105,0,0,-0.0105,0,0)" d="M571 143C571 153 562 153 559 153C549 153 549 150 544 135C524 67 491 11 442 11C425 11 418 21 418 44C418 69 427 93 436 115C455 168 497 278 497 335C497 402 454 442 382 442C292 442 243 378 226 355C221 411 180 442 134 442C88 442 69 403 59 385C43 351 29 292 29 288C29 278 41 278 41 278C51 278 52 279 58 301C75 372 95 420 131 420C151 420 162 407 162 374C162 353 159 342 146 290L88 59C85 44 79 21 79 16C79 -2 93 -11 108 -11C120 -11 138 -3 145 17C146 19 158 66 164 91L186 181C192 203 198 225 203 248L216 298C231 329 284 420 379 420C424 420 433 383 433 350C433 288 384 160 368 117C359 94 358 82 358 71C358 24 393 -11 440 -11C534 -11 571 135 571 143Z" stroke="rgb(0,0,0)" stroke-opacity="1" stroke-width="8" fill="rgb(0,0,0)" fill-opacity="1"></path></g></g></g></g></g><g><g transform="matrix(1,0,0,1,99.61868286132812,132.26190185546875)"><path transform="matrix(0.015,0,0,-0.015,0,0)" d="M193 53C193 82 169 106 140 106C111 106 87 82 87 53C87 24 111 0 140 0C169 0 193 24 193 53ZM472 53C472 82 448 106 419 106C390 106 366 82 366 53C366 24 390 0 419 0C448 0 472 24 472 53ZM751 53C751 82 727 106 698 106C669 106 645 82 645 53C645 24 669 0 698 0C727 0 751 24 751 53Z" stroke="rgb(0,0,0)" stroke-opacity="1" stroke-width="8" fill="rgb(0,0,0)" fill-opacity="1"></path></g></g></g></g><g><g><g><g transform="matrix(1,0,0,1,29.380584716796875,108.936669921875)"><path transform="matrix(0.03735,0,0,-0.03735,0,0)" d="M256 -230C256 -219 247 -210 236 -210L154 -210L154 710L236 710C247 710 256 719 256 730C256 741 247 750 236 750L114 750L114 -250L236 -250C247 -250 256 -241 256 -230Z" stroke="rgb(0,0,0)" stroke-opacity="1" stroke-width="8" fill="rgb(0,0,0)" fill-opacity="1"></path></g></g></g></g><g><g><g><g transform="matrix(1,0,0,1,50.0465087890625,108.936669921875)"><path transform="matrix(0.03735,0,0,-0.03735,0,0)" d="M256 -230C256 -219 247 -210 236 -210L154 -210L154 710L236 710C247 710 256 719 256 730C256 741 247 750 236 750L114 750L114 -250L236 -250C247 -250 256 -241 256 -230Z" stroke="rgb(0,0,0)" stroke-opacity="1" stroke-width="8" fill="rgb(0,0,0)" fill-opacity="1"></path></g></g></g></g><g><g><g><g transform="matrix(1,0,0,1,363.2347412109375,108.936669921875)"><path transform="matrix(0.03735,0,0,-0.03735,0,0)" d="M164 -250L164 750L42 750C31 750 22 741 22 730C22 719 31 710 42 710L124 710L124 -210L42 -210C31 -210 22 -219 22 -230C22 -241 31 -250 42 -250Z" stroke="rgb(0,0,0)" stroke-opacity="1" stroke-width="8" fill="rgb(0,0,0)" fill-opacity="1"></path></g></g></g></g><g><g><g><g transform="matrix(1,0,0,1,384.75634765625,108.936669921875)"><path transform="matrix(0.03735,0,0,-0.03735,0,0)" d="M164 -250L164 750L42 750C31 750 22 741 22 730C22 719 31 710 42 710L124 710L124 -210L42 -210C31 -210 22 -219 22 -230C22 -241 31 -250 42 -250Z" stroke="rgb(0,0,0)" stroke-opacity="1" stroke-width="8" fill="rgb(0,0,0)" fill-opacity="1"></path></g></g></g></g><g><g><g><g transform="matrix(1,0,0,1,406.27789306640625,108.936669921875)"><path transform="matrix(0.03735,0,0,-0.03735,0,0)" d="M164 -250L164 750L42 750C31 750 22 741 22 730C22 719 31 710 42 710L124 710L124 -210L42 -210C31 -210 22 -219 22 -230C22 -241 31 -250 42 -250Z" stroke="rgb(0,0,0)" stroke-opacity="1" stroke-width="8" fill="rgb(0,0,0)" fill-opacity="1"></path></g></g></g></g><g><g><g><g><g><g><g transform="matrix(1,0,0,1,136.61178588867188,97.77212524414062)"><path transform="matrix(0.0105,0,0,-0.0105,0,0)" d="M571 143C571 153 562 153 559 153C549 153 549 150 544 135C524 67 491 11 442 11C425 11 418 21 418 44C418 69 427 93 436 115C455 168 497 278 497 335C497 402 454 442 382 442C292 442 243 378 226 355C221 411 180 442 134 442C88 442 69 403 59 385C43 351 29 292 29 288C29 278 41 278 41 278C51 278 52 279 58 301C75 372 95 420 131 420C151 420 162 407 162 374C162 353 159 342 146 290L88 59C85 44 79 21 79 16C79 -2 93 -11 108 -11C120 -11 138 -3 145 17C146 19 158 66 164 91L186 181C192 203 198 225 203 248L216 298C231 329 284 420 379 420C424 420 433 383 433 350C433 288 384 160 368 117C359 94 358 82 358 71C358 24 393 -11 440 -11C534 -11 571 135 571 143Z" stroke="rgb(0,0,0)" stroke-opacity="1" stroke-width="8" fill="rgb(0,0,0)" fill-opacity="1"></path></g></g><g><g><g transform="matrix(1,0,0,1,145.01022338867188,97.77212524414062)"><path transform="matrix(0.0105,0,0,-0.0105,0,0)" d="M943 250C943 256 939 261 934 263C877 282 833 322 797 367C769 403 748 447 739 494C737 503 729 510 719 510C708 510 699 501 699 490C699 489 700 487 700 486C710 433 733 384 766 342C788 314 814 290 844 270L78 270C67 270 58 261 58 250C58 239 67 230 78 230L844 230C814 210 788 186 766 158C733 116 710 67 700 14C700 13 699 11 699 10C699 -1 708 -10 719 -10C729 -10 737 -3 739 6C748 53 769 97 797 133C833 178 877 218 934 237C939 239 943 244 943 250Z" stroke="rgb(0,0,0)" stroke-opacity="1" stroke-width="8" fill="rgb(0,0,0)" fill-opacity="1"></path></g></g></g><g><g transform="matrix(1,0,0,1,157.60324096679688,97.77212524414062)"><path transform="matrix(0.0105,0,0,-0.0105,0,0)" d="M943 216C943 327 873 442 754 442C610 442 521 294 508 272C441 353 440 354 418 373C386 400 327 442 248 442C132 442 56 333 56 215C56 104 126 -11 245 -11C389 -11 478 137 491 159C558 78 559 77 581 58C613 31 672 -11 751 -11C867 -11 943 98 943 216ZM921 216C921 116 851 37 767 37C721 37 680 60 635 109C607 140 562 203 534 237C572 305 648 410 761 410C867 410 921 306 921 216ZM465 194C427 126 351 21 238 21C132 21 78 125 78 215C78 315 148 394 232 394C278 394 319 371 364 322C392 291 437 228 465 194Z" stroke="rgb(0,0,0)" stroke-opacity="1" stroke-width="8" fill="rgb(0,0,0)" fill-opacity="1"></path></g></g></g></g><g><g transform="matrix(1,0,0,1,141.93173217773438,87.86550903320312)"><path transform="matrix(0.015,0,0,-0.015,0,0)" d="M255 0L255 31C188 31 177 31 177 76L177 694L33 683L33 652C103 652 111 645 111 596L111 76C111 31 100 31 33 31L33 0L144 3ZM525 0L525 31C459 31 455 36 455 75L455 442L315 431L315 400C380 400 389 394 389 345L389 76C389 31 378 31 311 31L311 0L421 3C456 3 491 1 525 0ZM470 604C470 631 447 657 417 657C383 657 363 629 363 604C363 577 386 551 416 551C450 551 470 579 470 604ZM1369 0L1369 31C1317 31 1292 31 1291 61L1291 252C1291 338 1291 369 1260 405C1246 422 1213 442 1155 442C1071 442 1027 382 1010 344C996 431 922 442 877 442C804 442 757 399 729 337L729 442L588 431L588 400C658 400 666 393 666 344L666 76C666 31 655 31 588 31L588 0L701 3L813 0L813 31C746 31 735 31 735 76L735 260C735 364 806 420 870 420C933 420 944 366 944 309L944 76C944 31 933 31 866 31L866 0L979 3L1091 0L1091 31C1024 31 1013 31 1013 76L1013 260C1013 364 1084 420 1148 420C1211 420 1222 366 1222 309L1222 76C1222 31 1211 31 1144 31L1144 0L1257 3Z" stroke="rgb(0,0,0)" stroke-opacity="1" stroke-width="8" fill="rgb(0,0,0)" fill-opacity="1"></path></g></g></g><g><g transform="matrix(1,0,0,1,171.098388671875,87.86550903320312)"><path transform="matrix(0.015,0,0,-0.015,0,0)" d="M498 143C498 153 489 153 486 153C476 153 475 149 472 135C455 70 437 11 396 11C369 11 366 37 366 57C366 79 368 87 379 131L401 221L437 361C444 389 444 391 444 395C444 412 432 422 415 422C391 422 376 400 373 378C355 415 326 442 281 442C164 442 40 295 40 149C40 55 95 -11 173 -11C193 -11 243 -7 303 64C311 22 346 -11 394 -11C429 -11 452 12 468 44C485 80 498 143 498 143ZM361 332C361 326 359 320 358 315L308 119C303 101 303 99 288 82C244 27 203 11 175 11C125 11 111 66 111 105C111 155 143 278 166 324C197 383 242 420 282 420C347 420 361 338 361 332Z" stroke="rgb(0,0,0)" stroke-opacity="1" stroke-width="8" fill="rgb(0,0,0)" fill-opacity="1"></path></g></g><g><g><g><g><g transform="matrix(1,0,0,1,179.487548828125,90.50836181640625)"><path transform="matrix(0.0105,0,0,-0.0105,0,0)" d="M571 143C571 153 562 153 559 153C549 153 549 150 544 135C524 67 491 11 442 11C425 11 418 21 418 44C418 69 427 93 436 115C455 168 497 278 497 335C497 402 454 442 382 442C292 442 243 378 226 355C221 411 180 442 134 442C88 442 69 403 59 385C43 351 29 292 29 288C29 278 41 278 41 278C51 278 52 279 58 301C75 372 95 420 131 420C151 420 162 407 162 374C162 353 159 342 146 290L88 59C85 44 79 21 79 16C79 -2 93 -11 108 -11C120 -11 138 -3 145 17C146 19 158 66 164 91L186 181C192 203 198 225 203 248L216 298C231 329 284 420 379 420C424 420 433 383 433 350C433 288 384 160 368 117C359 94 358 82 358 71C358 24 393 -11 440 -11C534 -11 571 135 571 143Z" stroke="rgb(0,0,0)" stroke-opacity="1" stroke-width="8" fill="rgb(0,0,0)" fill-opacity="1"></path></g></g></g></g></g><g><g transform="matrix(1,0,0,1,191.17840576171875,87.86550903320312)"><path transform="matrix(0.015,0,0,-0.015,0,0)" d="M722 347C722 358 713 367 702 367L76 367C65 367 56 358 56 347C56 336 65 327 76 327L702 327C713 327 722 336 722 347ZM722 153C722 164 713 173 702 173L76 173C65 173 56 164 56 153C56 142 65 133 76 133L702 133C713 133 722 142 722 153Z" stroke="rgb(0,0,0)" stroke-opacity="1" stroke-width="8" fill="rgb(0,0,0)" fill-opacity="1"></path></g></g><g><g transform="matrix(1,0,0,1,207.34283447265625,87.86550903320312)"><path transform="matrix(0.015,0,0,-0.015,0,0)" d="M527 376C527 428 468 442 434 442C376 442 341 389 329 366C304 432 250 442 221 442C117 442 60 313 60 288C60 278 72 278 72 278C80 278 83 280 85 289C119 395 185 420 219 420C238 420 273 411 273 353C273 322 256 255 219 115C203 53 168 11 124 11C118 11 95 11 74 24C99 29 121 50 121 78C121 105 99 113 84 113C54 113 29 87 29 55C29 9 79 -11 123 -11C189 -11 225 59 228 65C240 28 276 -11 336 -11C439 -11 496 118 496 143C496 153 487 153 484 153C475 153 473 149 471 142C438 35 370 11 338 11C299 11 283 43 283 77C283 99 289 121 300 165L334 302C340 328 363 420 433 420C438 420 462 420 483 407C455 402 435 377 435 353C435 337 446 318 473 318C495 318 527 336 527 376Z" stroke="rgb(232,0,0)" stroke-opacity="1" stroke-width="8" fill="rgb(232,0,0)" fill-opacity="1"></path></g></g><g><g transform="matrix(1,0,0,1,220.41943359375,87.86550903320312)"><path transform="matrix(0.015,0,0,-0.015,0,0)" d="M722 347C722 358 713 367 702 367L76 367C65 367 56 358 56 347C56 336 65 327 76 327L702 327C713 327 722 336 722 347ZM722 153C722 164 713 173 702 173L76 173C65 173 56 164 56 153C56 142 65 133 76 133L702 133C713 133 722 142 722 153Z" stroke="rgb(0,0,0)" stroke-opacity="1" stroke-width="8" fill="rgb(0,0,0)" fill-opacity="1"></path></g></g><g><g><g><g><g transform="matrix(1,0,0,1,236.5838623046875,97.77212524414062)"><path transform="matrix(0.0105,0,0,-0.0105,0,0)" d="M571 143C571 153 562 153 559 153C549 153 549 150 544 135C524 67 491 11 442 11C425 11 418 21 418 44C418 69 427 93 436 115C455 168 497 278 497 335C497 402 454 442 382 442C292 442 243 378 226 355C221 411 180 442 134 442C88 442 69 403 59 385C43 351 29 292 29 288C29 278 41 278 41 278C51 278 52 279 58 301C75 372 95 420 131 420C151 420 162 407 162 374C162 353 159 342 146 290L88 59C85 44 79 21 79 16C79 -2 93 -11 108 -11C120 -11 138 -3 145 17C146 19 158 66 164 91L186 181C192 203 198 225 203 248L216 298C231 329 284 420 379 420C424 420 433 383 433 350C433 288 384 160 368 117C359 94 358 82 358 71C358 24 393 -11 440 -11C534 -11 571 135 571 143Z" stroke="rgb(0,0,0)" stroke-opacity="1" stroke-width="8" fill="rgb(0,0,0)" fill-opacity="1"></path></g></g><g><g><g transform="matrix(1,0,0,1,244.9822998046875,97.77212524414062)"><path transform="matrix(0.0105,0,0,-0.0105,0,0)" d="M943 250C943 256 939 261 934 263C877 282 833 322 797 367C769 403 748 447 739 494C737 503 729 510 719 510C708 510 699 501 699 490C699 489 700 487 700 486C710 433 733 384 766 342C788 314 814 290 844 270L78 270C67 270 58 261 58 250C58 239 67 230 78 230L844 230C814 210 788 186 766 158C733 116 710 67 700 14C700 13 699 11 699 10C699 -1 708 -10 719 -10C729 -10 737 -3 739 6C748 53 769 97 797 133C833 178 877 218 934 237C939 239 943 244 943 250Z" stroke="rgb(0,0,0)" stroke-opacity="1" stroke-width="8" fill="rgb(0,0,0)" fill-opacity="1"></path></g></g></g><g><g transform="matrix(1,0,0,1,257.5753173828125,97.77212524414062)"><path transform="matrix(0.0105,0,0,-0.0105,0,0)" d="M943 216C943 327 873 442 754 442C610 442 521 294 508 272C441 353 440 354 418 373C386 400 327 442 248 442C132 442 56 333 56 215C56 104 126 -11 245 -11C389 -11 478 137 491 159C558 78 559 77 581 58C613 31 672 -11 751 -11C867 -11 943 98 943 216ZM921 216C921 116 851 37 767 37C721 37 680 60 635 109C607 140 562 203 534 237C572 305 648 410 761 410C867 410 921 306 921 216ZM465 194C427 126 351 21 238 21C132 21 78 125 78 215C78 315 148 394 232 394C278 394 319 371 364 322C392 291 437 228 465 194Z" stroke="rgb(0,0,0)" stroke-opacity="1" stroke-width="8" fill="rgb(0,0,0)" fill-opacity="1"></path></g></g></g></g><g><g transform="matrix(1,0,0,1,241.90380859375,87.86550903320312)"><path transform="matrix(0.015,0,0,-0.015,0,0)" d="M255 0L255 31C188 31 177 31 177 76L177 694L33 683L33 652C103 652 111 645 111 596L111 76C111 31 100 31 33 31L33 0L144 3ZM525 0L525 31C459 31 455 36 455 75L455 442L315 431L315 400C380 400 389 394 389 345L389 76C389 31 378 31 311 31L311 0L421 3C456 3 491 1 525 0ZM470 604C470 631 447 657 417 657C383 657 363 629 363 604C363 577 386 551 416 551C450 551 470 579 470 604ZM1369 0L1369 31C1317 31 1292 31 1291 61L1291 252C1291 338 1291 369 1260 405C1246 422 1213 442 1155 442C1071 442 1027 382 1010 344C996 431 922 442 877 442C804 442 757 399 729 337L729 442L588 431L588 400C658 400 666 393 666 344L666 76C666 31 655 31 588 31L588 0L701 3L813 0L813 31C746 31 735 31 735 76L735 260C735 364 806 420 870 420C933 420 944 366 944 309L944 76C944 31 933 31 866 31L866 0L979 3L1091 0L1091 31C1024 31 1013 31 1013 76L1013 260C1013 364 1084 420 1148 420C1211 420 1222 366 1222 309L1222 76C1222 31 1211 31 1144 31L1144 0L1257 3Z" stroke="rgb(0,0,0)" stroke-opacity="1" stroke-width="8" fill="rgb(0,0,0)" fill-opacity="1"></path></g></g></g><g><g transform="matrix(1,0,0,1,271.07049560546875,87.86550903320312)"><path transform="matrix(0.015,0,0,-0.015,0,0)" d="M415 282C415 373 362 442 282 442C236 442 195 413 165 382L239 683C239 683 239 694 226 694C203 694 130 686 104 684C96 683 85 682 85 664C85 652 94 652 109 652C157 652 159 645 159 635C159 628 150 594 145 573L63 247C51 197 47 181 47 146C47 51 100 -11 174 -11C292 -11 415 138 415 282ZM343 326C343 267 310 152 292 114C259 47 213 11 174 11C140 11 107 38 107 112C107 131 107 150 123 213L145 305C151 327 151 329 160 340C209 405 254 420 280 420C316 420 343 390 343 326Z" stroke="rgb(0,0,0)" stroke-opacity="1" stroke-width="8" fill="rgb(0,0,0)" fill-opacity="1"></path></g></g><g><g><g><g><g transform="matrix(1,0,0,1,277.95294189453125,90.50836181640625)"><path transform="matrix(0.0105,0,0,-0.0105,0,0)" d="M571 143C571 153 562 153 559 153C549 153 549 150 544 135C524 67 491 11 442 11C425 11 418 21 418 44C418 69 427 93 436 115C455 168 497 278 497 335C497 402 454 442 382 442C292 442 243 378 226 355C221 411 180 442 134 442C88 442 69 403 59 385C43 351 29 292 29 288C29 278 41 278 41 278C51 278 52 279 58 301C75 372 95 420 131 420C151 420 162 407 162 374C162 353 159 342 146 290L88 59C85 44 79 21 79 16C79 -2 93 -11 108 -11C120 -11 138 -3 145 17C146 19 158 66 164 91L186 181C192 203 198 225 203 248L216 298C231 329 284 420 379 420C424 420 433 383 433 350C433 288 384 160 368 117C359 94 358 82 358 71C358 24 393 -11 440 -11C534 -11 571 135 571 143Z" stroke="rgb(0,0,0)" stroke-opacity="1" stroke-width="8" fill="rgb(0,0,0)" fill-opacity="1"></path></g></g></g></g></g></g></g><g><g><g><g transform="matrix(1,0,0,1,79.01785278320312,108.936669921875)"><path transform="matrix(0.03735,0,0,-0.03735,0,0)" d="M256 -230C256 -219 247 -210 236 -210L154 -210L154 710L236 710C247 710 256 719 256 730C256 741 247 750 236 750L114 750L114 -250L236 -250C247 -250 256 -241 256 -230Z" stroke="rgb(0,0,0)" stroke-opacity="1" stroke-width="8" fill="rgb(0,0,0)" fill-opacity="1"></path></g></g></g></g><g><g><g><g transform="matrix(1,0,0,1,324.7674560546875,108.936669921875)"><path transform="matrix(0.03735,0,0,-0.03735,0,0)" d="M164 -250L164 750L42 750C31 750 22 741 22 730C22 719 31 710 42 710L124 710L124 -210L42 -210C31 -210 22 -219 22 -230C22 -241 31 -250 42 -250Z" stroke="rgb(0,0,0)" stroke-opacity="1" stroke-width="8" fill="rgb(0,0,0)" fill-opacity="1"></path></g></g></g></g><g><g><g><g transform="matrix(1,0,0,1,302.06475830078125,134.75967407226562)"><path transform="matrix(0.018,0,0,-0.018,0,0)" d="M193 53C193 82 169 106 140 106C111 106 87 82 87 53C87 24 111 0 140 0C169 0 193 24 193 53ZM472 53C472 82 448 106 419 106C390 106 366 82 366 53C366 24 390 0 419 0C448 0 472 24 472 53ZM751 53C751 82 727 106 698 106C669 106 645 82 645 53C645 24 669 0 698 0C727 0 751 24 751 53Z" stroke="rgb(0,0,0)" stroke-opacity="1" stroke-width="8" fill="rgb(0,0,0)" fill-opacity="1"></path></g></g><g><g transform="matrix(1,0,0,1,320.73101806640625,134.75967407226562)"><path transform="matrix(0.018,0,0,-0.018,0,0)" d="M415 282C415 373 362 442 282 442C236 442 195 413 165 382L239 683C239 683 239 694 226 694C203 694 130 686 104 684C96 683 85 682 85 664C85 652 94 652 109 652C157 652 159 645 159 635C159 628 150 594 145 573L63 247C51 197 47 181 47 146C47 51 100 -11 174 -11C292 -11 415 138 415 282ZM343 326C343 267 310 152 292 114C259 47 213 11 174 11C140 11 107 38 107 112C107 131 107 150 123 213L145 305C151 327 151 329 160 340C209 405 254 420 280 420C316 420 343 390 343 326Z" stroke="rgb(0,0,0)" stroke-opacity="1" stroke-width="8" fill="rgb(0,0,0)" fill-opacity="1"></path></g></g><g><g><g><g><g transform="matrix(1,0,0,1,328.999267578125,137.93482360839843)"><path transform="matrix(0.0126,0,0,-0.0126,0,0)" d="M571 143C571 153 562 153 559 153C549 153 549 150 544 135C524 67 491 11 442 11C425 11 418 21 418 44C418 69 427 93 436 115C455 168 497 278 497 335C497 402 454 442 382 442C292 442 243 378 226 355C221 411 180 442 134 442C88 442 69 403 59 385C43 351 29 292 29 288C29 278 41 278 41 278C51 278 52 279 58 301C75 372 95 420 131 420C151 420 162 407 162 374C162 353 159 342 146 290L88 59C85 44 79 21 79 16C79 -2 93 -11 108 -11C120 -11 138 -3 145 17C146 19 158 66 164 91L186 181C192 203 198 225 203 248L216 298C231 329 284 420 379 420C424 420 433 383 433 350C433 288 384 160 368 117C359 94 358 82 358 71C358 24 393 -11 440 -11C534 -11 571 135 571 143Z" stroke="rgb(0,0,0)" stroke-opacity="1" stroke-width="8" fill="rgb(0,0,0)" fill-opacity="1"></path></g></g></g></g></g><g><g transform="matrix(1,0,0,1,341.23883056640625,134.75967407226562)"><path transform="matrix(0.018,0,0,-0.018,0,0)" d="M193 53C193 82 169 106 140 106C111 106 87 82 87 53C87 24 111 0 140 0C169 0 193 24 193 53ZM472 53C472 82 448 106 419 106C390 106 366 82 366 53C366 24 390 0 419 0C448 0 472 24 472 53ZM751 53C751 82 727 106 698 106C669 106 645 82 645 53C645 24 669 0 698 0C727 0 751 24 751 53Z" stroke="rgb(0,0,0)" stroke-opacity="1" stroke-width="8" fill="rgb(0,0,0)" fill-opacity="1"></path></g></g><g><g transform="matrix(1,0,0,1,359.9051513671875,134.75967407226562)"><path transform="matrix(0.018,0,0,-0.018,0,0)" d="M415 282C415 373 362 442 282 442C236 442 195 413 165 382L239 683C239 683 239 694 226 694C203 694 130 686 104 684C96 683 85 682 85 664C85 652 94 652 109 652C157 652 159 645 159 635C159 628 150 594 145 573L63 247C51 197 47 181 47 146C47 51 100 -11 174 -11C292 -11 415 138 415 282ZM343 326C343 267 310 152 292 114C259 47 213 11 174 11C140 11 107 38 107 112C107 131 107 150 123 213L145 305C151 327 151 329 160 340C209 405 254 420 280 420C316 420 343 390 343 326Z" stroke="rgb(0,0,0)" stroke-opacity="1" stroke-width="8" fill="rgb(0,0,0)" fill-opacity="1"></path></g></g><g><g><g><g><g transform="matrix(1,0,0,1,368.17333984375,137.93482360839843)"><path transform="matrix(0.0126,0,0,-0.0126,0,0)" d="M457 171C457 253 394 331 290 352C372 379 430 449 430 528C430 610 342 666 246 666C145 666 69 606 69 530C69 497 91 478 120 478C151 478 171 500 171 529C171 579 124 579 109 579C140 628 206 641 242 641C283 641 338 619 338 529C338 517 336 459 310 415C280 367 246 364 221 363C213 362 189 360 182 360C174 359 167 358 167 348C167 337 174 337 191 337L235 337C317 337 354 269 354 171C354 35 285 6 241 6C198 6 123 23 88 82C123 77 154 99 154 137C154 173 127 193 98 193C74 193 42 179 42 135C42 44 135 -22 244 -22C366 -22 457 69 457 171Z" stroke="rgb(0,0,0)" stroke-opacity="1" stroke-width="8" fill="rgb(0,0,0)" fill-opacity="1"></path></g></g></g></g></g><g><g transform="matrix(1,0,0,1,375.55804443359375,134.75967407226562)"><path transform="matrix(0.018,0,0,-0.018,0,0)" d="M747 282C747 373 694 442 614 442C568 442 527 413 497 382L571 683C571 683 571 694 558 694C535 694 462 686 436 684C428 683 417 682 417 664C417 652 426 652 441 652C489 652 491 645 491 635C491 628 482 594 477 573L395 247C383 197 379 181 379 146C379 51 432 -11 506 -11C624 -11 747 138 747 282ZM675 326C675 267 642 152 624 114C591 47 545 11 506 11C472 11 439 38 439 112C439 131 439 150 455 213L477 305C483 327 483 329 492 340C541 405 586 420 612 420C648 420 675 390 675 326Z" stroke="rgb(0,0,0)" stroke-opacity="1" stroke-width="8" fill="rgb(0,0,0)" fill-opacity="1"></path></g></g><g><g><g><g><g transform="matrix(1,0,0,1,389.7972412109375,137.93482360839843)"><path transform="matrix(0.0126,0,0,-0.0126,0,0)" d="M449 174L424 174C419 144 412 100 402 85C395 77 329 77 307 77L127 77L233 180C389 318 449 372 449 472C449 586 359 666 237 666C124 666 50 574 50 485C50 429 100 429 103 429C120 429 155 441 155 482C155 508 137 534 102 534C94 534 92 534 89 533C112 598 166 635 224 635C315 635 358 554 358 472C358 392 308 313 253 251L61 37C50 26 50 24 50 0L421 0Z" stroke="rgb(0,0,0)" stroke-opacity="1" stroke-width="8" fill="rgb(0,0,0)" fill-opacity="1"></path></g></g></g></g></g><g><g transform="matrix(1,0,0,1,397.18194580078125,134.75967407226562)"><path transform="matrix(0.018,0,0,-0.018,0,0)" d="M747 282C747 373 694 442 614 442C568 442 527 413 497 382L571 683C571 683 571 694 558 694C535 694 462 686 436 684C428 683 417 682 417 664C417 652 426 652 441 652C489 652 491 645 491 635C491 628 482 594 477 573L395 247C383 197 379 181 379 146C379 51 432 -11 506 -11C624 -11 747 138 747 282ZM675 326C675 267 642 152 624 114C591 47 545 11 506 11C472 11 439 38 439 112C439 131 439 150 455 213L477 305C483 327 483 329 492 340C541 405 586 420 612 420C648 420 675 390 675 326Z" stroke="rgb(0,0,0)" stroke-opacity="1" stroke-width="8" fill="rgb(0,0,0)" fill-opacity="1"></path></g></g><g><g><g><g><g transform="matrix(1,0,0,1,411.421142578125,137.93482360839843)"><path transform="matrix(0.0126,0,0,-0.0126,0,0)" d="M419 0L419 31L387 31C297 31 294 42 294 79L294 640C294 664 294 666 271 666C209 602 121 602 89 602L89 571C109 571 168 571 220 597L220 79C220 43 217 31 127 31L95 31L95 0C130 3 217 3 257 3C297 3 384 3 419 0Z" stroke="rgb(0,0,0)" stroke-opacity="1" stroke-width="8" fill="rgb(0,0,0)" fill-opacity="1"></path></g></g></g></g></g></g></g><g><g><g><g transform="matrix(1,0,0,1,186.625732421875,51.0863037109375)"><path transform="matrix(0.015,0,0,-0.015,0,0)" d="M415 282C415 373 362 442 282 442C236 442 195 413 165 382L239 683C239 683 239 694 226 694C203 694 130 686 104 684C96 683 85 682 85 664C85 652 94 652 109 652C157 652 159 645 159 635C159 628 150 594 145 573L63 247C51 197 47 181 47 146C47 51 100 -11 174 -11C292 -11 415 138 415 282ZM343 326C343 267 310 152 292 114C259 47 213 11 174 11C140 11 107 38 107 112C107 131 107 150 123 213L145 305C151 327 151 329 160 340C209 405 254 420 280 420C316 420 343 390 343 326Z" stroke="rgb(33,67,255)" stroke-opacity="1" stroke-width="8" fill="rgb(33,67,255)" fill-opacity="1"></path></g></g><g><g><g><g><g transform="matrix(1,0,0,1,193.5081787109375,53.729156494140625)"><path transform="matrix(0.0105,0,0,-0.0105,0,0)" d="M571 143C571 153 562 153 559 153C549 153 549 150 544 135C524 67 491 11 442 11C425 11 418 21 418 44C418 69 427 93 436 115C455 168 497 278 497 335C497 402 454 442 382 442C292 442 243 378 226 355C221 411 180 442 134 442C88 442 69 403 59 385C43 351 29 292 29 288C29 278 41 278 41 278C51 278 52 279 58 301C75 372 95 420 131 420C151 420 162 407 162 374C162 353 159 342 146 290L88 59C85 44 79 21 79 16C79 -2 93 -11 108 -11C120 -11 138 -3 145 17C146 19 158 66 164 91L186 181C192 203 198 225 203 248L216 298C231 329 284 420 379 420C424 420 433 383 433 350C433 288 384 160 368 117C359 94 358 82 358 71C358 24 393 -11 440 -11C534 -11 571 135 571 143Z" stroke="rgb(33,67,255)" stroke-opacity="1" stroke-width="8" fill="rgb(33,67,255)" fill-opacity="1"></path></g></g></g></g></g><g><g transform="matrix(1,0,0,1,203.70166015625,51.0863037109375)"><path transform="matrix(0.015,0,0,-0.015,0,0)" d="M722 250C722 261 713 270 702 270L76 270C65 270 56 261 56 250C56 239 65 230 76 230L702 230C713 230 722 239 722 250Z" stroke="rgb(33,67,255)" stroke-opacity="1" stroke-width="8" fill="rgb(33,67,255)" fill-opacity="1"></path></g></g><g><g transform="matrix(1,0,0,1,218.36865234375,51.0863037109375)"><path transform="matrix(0.015,0,0,-0.015,0,0)" d="M498 143C498 153 489 153 486 153C476 153 475 149 472 135C455 70 437 11 396 11C369 11 366 37 366 57C366 79 368 87 379 131L401 221L437 361C444 389 444 391 444 395C444 412 432 422 415 422C391 422 376 400 373 378C355 415 326 442 281 442C164 442 40 295 40 149C40 55 95 -11 173 -11C193 -11 243 -7 303 64C311 22 346 -11 394 -11C429 -11 452 12 468 44C485 80 498 143 498 143ZM361 332C361 326 359 320 358 315L308 119C303 101 303 99 288 82C244 27 203 11 175 11C125 11 111 66 111 105C111 155 143 278 166 324C197 383 242 420 282 420C347 420 361 338 361 332Z" stroke="rgb(33,67,255)" stroke-opacity="1" stroke-width="8" fill="rgb(33,67,255)" fill-opacity="1"></path></g></g><g><g><g><g><g transform="matrix(1,0,0,1,226.7578125,53.729156494140625)"><path transform="matrix(0.0105,0,0,-0.0105,0,0)" d="M571 143C571 153 562 153 559 153C549 153 549 150 544 135C524 67 491 11 442 11C425 11 418 21 418 44C418 69 427 93 436 115C455 168 497 278 497 335C497 402 454 442 382 442C292 442 243 378 226 355C221 411 180 442 134 442C88 442 69 403 59 385C43 351 29 292 29 288C29 278 41 278 41 278C51 278 52 279 58 301C75 372 95 420 131 420C151 420 162 407 162 374C162 353 159 342 146 290L88 59C85 44 79 21 79 16C79 -2 93 -11 108 -11C120 -11 138 -3 145 17C146 19 158 66 164 91L186 181C192 203 198 225 203 248L216 298C231 329 284 420 379 420C424 420 433 383 433 350C433 288 384 160 368 117C359 94 358 82 358 71C358 24 393 -11 440 -11C534 -11 571 135 571 143Z" stroke="rgb(33,67,255)" stroke-opacity="1" stroke-width="8" fill="rgb(33,67,255)" fill-opacity="1"></path></g></g></g></g></g><g><g><g><g><g transform="matrix(1,0,0,1,238.7276611328125,51.0863037109375)"><path transform="matrix(0.015,0,0,-0.015,0,0)" d="M1407 250C1407 256 1403 261 1398 263C1341 282 1297 322 1261 367C1233 403 1212 447 1203 494C1201 503 1193 510 1183 510C1172 510 1163 501 1163 490C1163 489 1164 487 1164 486C1174 433 1197 384 1230 342C1252 314 1278 290 1308 270L76 270C65 270 56 261 56 250C56 239 65 230 76 230L1308 230C1278 210 1252 186 1230 158C1197 116 1174 67 1164 14C1164 13 1163 11 1163 10C1163 -1 1172 -10 1183 -10C1193 -10 1201 -3 1203 6C1212 53 1233 97 1261 133C1297 178 1341 218 1398 237C1403 239 1407 244 1407 250Z" stroke="rgb(0,0,0)" stroke-opacity="1" stroke-width="8" fill="rgb(0,0,0)" fill-opacity="1"></path></g></g></g></g><g><g><g><g transform="matrix(1,0,0,1,233.95648193359375,61.98808288574219)"><path transform="matrix(0.0105,0,0,-0.0105,0,0)" d="M571 143C571 153 562 153 559 153C549 153 549 150 544 135C524 67 491 11 442 11C425 11 418 21 418 44C418 69 427 93 436 115C455 168 497 278 497 335C497 402 454 442 382 442C292 442 243 378 226 355C221 411 180 442 134 442C88 442 69 403 59 385C43 351 29 292 29 288C29 278 41 278 41 278C51 278 52 279 58 301C75 372 95 420 131 420C151 420 162 407 162 374C162 353 159 342 146 290L88 59C85 44 79 21 79 16C79 -2 93 -11 108 -11C120 -11 138 -3 145 17C146 19 158 66 164 91L186 181C192 203 198 225 203 248L216 298C231 329 284 420 379 420C424 420 433 383 433 350C433 288 384 160 368 117C359 94 358 82 358 71C358 24 393 -11 440 -11C534 -11 571 135 571 143Z" stroke="rgb(0,0,0)" stroke-opacity="1" stroke-width="8" fill="rgb(0,0,0)" fill-opacity="1"></path></g></g><g><g><g transform="matrix(1,0,0,1,242.35491943359375,61.98808288574219)"><path transform="matrix(0.0105,0,0,-0.0105,0,0)" d="M943 250C943 256 939 261 934 263C877 282 833 322 797 367C769 403 748 447 739 494C737 503 729 510 719 510C708 510 699 501 699 490C699 489 700 487 700 486C710 433 733 384 766 342C788 314 814 290 844 270L78 270C67 270 58 261 58 250C58 239 67 230 78 230L844 230C814 210 788 186 766 158C733 116 710 67 700 14C700 13 699 11 699 10C699 -1 708 -10 719 -10C729 -10 737 -3 739 6C748 53 769 97 797 133C833 178 877 218 934 237C939 239 943 244 943 250Z" stroke="rgb(0,0,0)" stroke-opacity="1" stroke-width="8" fill="rgb(0,0,0)" fill-opacity="1"></path></g></g></g><g><g transform="matrix(1,0,0,1,254.94793701171875,61.98808288574219)"><path transform="matrix(0.0105,0,0,-0.0105,0,0)" d="M943 216C943 327 873 442 754 442C610 442 521 294 508 272C441 353 440 354 418 373C386 400 327 442 248 442C132 442 56 333 56 215C56 104 126 -11 245 -11C389 -11 478 137 491 159C558 78 559 77 581 58C613 31 672 -11 751 -11C867 -11 943 98 943 216ZM921 216C921 116 851 37 767 37C721 37 680 60 635 109C607 140 562 203 534 237C572 305 648 410 761 410C867 410 921 306 921 216ZM465 194C427 126 351 21 238 21C132 21 78 125 78 215C78 315 148 394 232 394C278 394 319 371 364 322C392 291 437 228 465 194Z" stroke="rgb(0,0,0)" stroke-opacity="1" stroke-width="8" fill="rgb(0,0,0)" fill-opacity="1"></path></g></g></g></g></g><g><g transform="matrix(1,0,0,1,265.44830322265625,51.0863037109375)"><path transform="matrix(0.015,0,0,-0.015,0,0)" d="M460 320C460 400 455 480 420 554C374 650 292 666 250 666C190 666 117 640 76 547C44 478 39 400 39 320C39 245 43 155 84 79C127 -2 200 -22 249 -22C303 -22 379 -1 423 94C455 163 460 241 460 320ZM377 332C377 257 377 189 366 125C351 30 294 0 249 0C210 0 151 25 133 121C122 181 122 273 122 332C122 396 122 462 130 516C149 635 224 644 249 644C282 644 348 626 367 527C377 471 377 395 377 332Z" stroke="rgb(0,0,0)" stroke-opacity="1" stroke-width="8" fill="rgb(0,0,0)" fill-opacity="1"></path></g></g></g></g><g transform="matrix(6.123233995736766e-17,1,-1,6.123233995736766e-17,281.3615674972534,-146.67036724090576)"><g><g><g transform="matrix(1,0,0,1,203.0877685546875,73.34727478027344)"><path transform="matrix(0.015,0,0,-0.015,0,0)" d="M1401 250C1401 256 1397 261 1392 263C1320 282 1258 323 1204 370C1160 409 1123 456 1096 509C1093 516 1086 520 1078 520C1067 520 1058 511 1058 500C1058 497 1059 494 1060 491C1084 445 1114 403 1149 367L76 367C65 367 56 358 56 347C56 336 65 327 76 327L1193 327C1233 295 1277 269 1325 250C1277 231 1233 205 1193 173L76 173C65 173 56 164 56 153C56 142 65 133 76 133L1149 133C1114 97 1084 55 1060 9C1059 6 1058 3 1058 0C1058 -11 1067 -20 1078 -20C1086 -20 1093 -16 1096 -9C1123 44 1160 91 1204 130C1258 177 1320 218 1392 237C1397 239 1401 244 1401 250Z" stroke="rgb(0,0,0)" stroke-opacity="1" stroke-width="8" fill="rgb(0,0,0)" fill-opacity="1"></path></g></g></g></g><g transform="matrix(6.123233995736766e-17,1,-1,6.123233995736766e-17,279.4735622406006,-52.16703987121582)"><g><g><g transform="matrix(1,0,0,1,158.81695556640625,120.85527038574219)"><path transform="matrix(0.018,0,0,-0.018,0,0)" d="M722 347C722 358 713 367 702 367L76 367C65 367 56 358 56 347C56 336 65 327 76 327L702 327C713 327 722 336 722 347ZM722 153C722 164 713 173 702 173L76 173C65 173 56 164 56 153C56 142 65 133 76 133L702 133C713 133 722 142 722 153Z" stroke="rgb(0,0,0)" stroke-opacity="1" stroke-width="8" fill="rgb(0,0,0)" fill-opacity="1"></path></g></g></g></g><g transform="matrix(6.123233995736766e-17,1,-1,6.123233995736766e-17,370.94493675231934,-143.63841438293457)"><g><g><g transform="matrix(1,0,0,1,250.288330078125,120.85527038574219)"><path transform="matrix(0.018,0,0,-0.018,0,0)" d="M722 347C722 358 713 367 702 367L76 367C65 367 56 358 56 347C56 336 65 327 76 327L702 327C713 327 722 336 722 347ZM722 153C722 164 713 173 702 173L76 173C65 173 56 164 56 153C56 142 65 133 76 133L702 133C713 133 722 142 722 153Z" stroke="rgb(0,0,0)" stroke-opacity="1" stroke-width="8" fill="rgb(0,0,0)" fill-opacity="1"></path></g></g></g></g><g><g><g><g transform="matrix(1,0,0,1,168.2105712890625,114.93513842773437)"><path transform="matrix(0.0064995,0,0,-0.0064995,0,0)" d="M332 -238C332 -235 330 -232 328 -230C224 -152 155 48 155 208L155 292C155 452 224 652 328 730C330 732 332 735 332 738C332 743 327 748 322 748C320 748 318 747 316 746C206 663 101 463 101 292L101 208C101 37 206 -163 316 -246C318 -247 320 -248 322 -248C327 -248 332 -243 332 -238Z" stroke="rgb(0,0,0)" stroke-opacity="1" stroke-width="8" fill="rgb(0,0,0)" fill-opacity="1"></path></g></g><g><g transform="matrix(1,0,0,1,170.7403564453125,114.93513842773437)"><path transform="matrix(0.0064995,0,0,-0.0064995,0,0)" d="M879 0L879 31L855 31C778 31 776 42 776 78L776 605C776 641 778 652 855 652L879 652L879 683L710 683C684 683 684 682 677 664L458 101L241 661C232 683 229 683 206 683L37 683L37 652L61 652C138 652 140 641 140 605L140 105C140 78 140 31 37 31L37 0L154 3L271 0L271 31C168 31 168 78 168 105L168 644L169 644L410 22C415 9 420 0 430 0C441 0 444 8 448 19L694 652L695 652L695 78C695 42 693 31 616 31L592 31L592 0C629 3 697 3 736 3C775 3 842 3 879 0ZM1388 214C1388 342 1288 448 1167 448C1042 448 945 339 945 214C945 85 1049 -11 1166 -11C1287 -11 1388 87 1388 214ZM1305 222C1305 186 1305 132 1283 88C1261 43 1217 14 1167 14C1124 14 1080 35 1053 81C1028 125 1028 186 1028 222C1028 261 1028 315 1052 359C1079 405 1126 426 1166 426C1210 426 1253 404 1279 361C1305 318 1305 260 1305 222ZM1952 0L1952 31C1900 31 1875 31 1874 61L1874 252C1874 338 1874 369 1843 405C1829 422 1796 442 1738 442C1665 442 1618 399 1590 337L1590 442L1449 431L1449 400C1519 400 1527 393 1527 344L1527 76C1527 31 1516 31 1449 31L1449 0L1562 3L1674 0L1674 31C1607 31 1596 31 1596 76L1596 260C1596 364 1667 420 1731 420C1794 420 1805 366 1805 309L1805 76C1805 31 1794 31 1727 31L1727 0L1840 3ZM2444 214C2444 342 2344 448 2223 448C2098 448 2001 339 2001 214C2001 85 2105 -11 2222 -11C2343 -11 2444 87 2444 214ZM2361 222C2361 186 2361 132 2339 88C2317 43 2273 14 2223 14C2180 14 2136 35 2109 81C2084 125 2084 186 2084 222C2084 261 2084 315 2108 359C2135 405 2182 426 2222 426C2266 426 2309 404 2335 361C2361 318 2361 260 2361 222ZM2805 124L2805 181L2780 181L2780 126C2780 52 2750 14 2713 14C2646 14 2646 105 2646 122L2646 400L2789 400L2789 431L2646 431L2646 615L2621 615C2620 533 2590 426 2492 422L2492 400L2577 400L2577 124C2577 1 2670 -11 2706 -11C2777 -11 2805 60 2805 124ZM3333 214C3333 342 3233 448 3112 448C2987 448 2890 339 2890 214C2890 85 2994 -11 3111 -11C3232 -11 3333 87 3333 214ZM3250 222C3250 186 3250 132 3228 88C3206 43 3162 14 3112 14C3069 14 3025 35 2998 81C2973 125 2973 186 2973 222C2973 261 2973 315 2997 359C3024 405 3071 426 3111 426C3155 426 3198 404 3224 361C3250 318 3250 260 3250 222ZM3897 0L3897 31C3845 31 3820 31 3819 61L3819 252C3819 338 3819 369 3788 405C3774 422 3741 442 3683 442C3610 442 3563 399 3535 337L3535 442L3394 431L3394 400C3464 400 3472 393 3472 344L3472 76C3472 31 3461 31 3394 31L3394 0L3507 3L3619 0L3619 31C3552 31 3541 31 3541 76L3541 260C3541 364 3612 420 3676 420C3739 420 3750 366 3750 309L3750 76C3750 31 3739 31 3672 31L3672 0L3785 3ZM4333 119C4333 129 4325 131 4320 131C4311 131 4309 125 4307 117C4272 14 4182 14 4172 14C4122 14 4082 44 4059 81C4029 129 4029 195 4029 231L4308 231C4330 231 4333 231 4333 252C4333 351 4279 448 4154 448C4038 448 3946 345 3946 220C3946 86 4051 -11 4166 -11C4288 -11 4333 100 4333 119ZM4267 252L4030 252C4036 401 4120 426 4154 426C4257 426 4267 291 4267 252ZM5359 233C5359 243 5359 250 5346 250C5335 250 5335 244 5334 234C5326 91 5219 9 5110 9C5049 9 4853 43 4853 341C4853 640 5048 674 5109 674C5218 674 5307 583 5327 437C5329 423 5329 420 5343 420C5359 420 5359 423 5359 444L5359 681C5359 698 5359 705 5348 705C5344 705 5340 705 5332 693L5282 619C5245 655 5194 705 5098 705C4911 705 4750 546 4750 342C4750 135 4912 -22 5098 -22C5261 -22 5359 117 5359 233ZM5887 214C5887 342 5787 448 5666 448C5541 448 5444 339 5444 214C5444 85 5548 -11 5665 -11C5786 -11 5887 87 5887 214ZM5804 222C5804 186 5804 132 5782 88C5760 43 5716 14 5666 14C5623 14 5579 35 5552 81C5527 125 5527 186 5527 222C5527 261 5527 315 5551 359C5578 405 5625 426 5665 426C5709 426 5752 404 5778 361C5804 318 5804 260 5804 222ZM6451 0L6451 31C6399 31 6374 31 6373 61L6373 252C6373 338 6373 369 6342 405C6328 422 6295 442 6237 442C6164 442 6117 399 6089 337L6089 442L5948 431L5948 400C6018 400 6026 393 6026 344L6026 76C6026 31 6015 31 5948 31L5948 0L6061 3L6173 0L6173 31C6106 31 6095 31 6095 76L6095 260C6095 364 6166 420 6230 420C6293 420 6304 366 6304 309L6304 76C6304 31 6293 31 6226 31L6226 0L6339 3ZM6980 400L6980 431C6957 429 6928 428 6905 428L6818 431L6818 400C6855 399 6866 376 6866 357C6866 348 6864 344 6860 333L6758 78L6646 357C6640 370 6640 374 6640 374C6640 400 6679 400 6697 400L6697 431L6588 428C6561 428 6521 429 6491 431L6491 400C6554 400 6558 394 6571 363L6715 8C6721 -6 6723 -11 6736 -11C6749 -11 6753 -2 6757 8L6888 333C6897 356 6914 399 6980 400ZM7415 119C7415 129 7407 131 7402 131C7393 131 7391 125 7389 117C7354 14 7264 14 7254 14C7204 14 7164 44 7141 81C7111 129 7111 195 7111 231L7390 231C7412 231 7415 231 7415 252C7415 351 7361 448 7236 448C7120 448 7028 345 7028 220C7028 86 7133 -11 7248 -11C7370 -11 7415 100 7415 119ZM7349 252L7112 252C7118 401 7202 426 7236 426C7339 426 7349 291 7349 252ZM7808 381C7808 413 7777 442 7734 442C7661 442 7625 375 7611 332L7611 442L7472 431L7472 400C7542 400 7550 393 7550 344L7550 76C7550 31 7539 31 7472 31L7472 0L7586 3C7626 3 7673 3 7713 0L7713 31L7692 31C7618 31 7616 42 7616 78L7616 232C7616 331 7658 420 7734 420C7741 420 7743 420 7745 419C7742 418 7722 406 7722 380C7722 352 7743 337 7765 337C7783 337 7808 349 7808 381ZM8321 404C8321 421 8309 453 8270 453C8250 453 8206 447 8164 406C8122 439 8080 442 8058 442C7965 442 7896 373 7896 296C7896 252 7918 214 7943 193C7930 178 7912 145 7912 110C7912 79 7925 41 7956 21C7896 4 7864 -39 7864 -79C7864 -151 7963 -206 8085 -206C8203 -206 8307 -155 8307 -77C8307 -42 8293 9 8242 37C8189 65 8131 65 8070 65C8045 65 8002 65 7995 66C7963 70 7942 101 7942 133C7942 137 7942 160 7959 180C7998 152 8039 149 8058 149C8151 149 8220 218 8220 295C8220 332 8204 369 8179 392C8215 426 8251 431 8269 431C8269 431 8276 431 8279 430C8268 426 8263 415 8263 403C8263 386 8276 374 8292 374C8302 374 8321 381 8321 404ZM8145 296C8145 269 8144 237 8129 212C8121 200 8098 172 8058 172C7971 172 7971 272 7971 295C7971 322 7972 354 7987 379C7995 391 8018 419 8058 419C8145 419 8145 319 8145 296ZM8255 -79C8255 -133 8184 -183 8086 -183C7985 -183 7916 -132 7916 -79C7916 -33 7954 4 7998 7L8057 7C8143 7 8255 7 8255 -79ZM8751 119C8751 129 8743 131 8738 131C8729 131 8727 125 8725 117C8690 14 8600 14 8590 14C8540 14 8500 44 8477 81C8447 129 8447 195 8447 231L8726 231C8748 231 8751 231 8751 252C8751 351 8697 448 8572 448C8456 448 8364 345 8364 220C8364 86 8469 -11 8584 -11C8706 -11 8751 100 8751 119ZM8685 252L8448 252C8454 401 8538 426 8572 426C8675 426 8685 291 8685 252ZM9315 0L9315 31C9263 31 9238 31 9237 61L9237 252C9237 338 9237 369 9206 405C9192 422 9159 442 9101 442C9028 442 8981 399 8953 337L8953 442L8812 431L8812 400C8882 400 8890 393 8890 344L8890 76C8890 31 8879 31 8812 31L8812 0L8925 3L9037 0L9037 31C8970 31 8959 31 8959 76L8959 260C8959 364 9030 420 9094 420C9157 420 9168 366 9168 309L9168 76C9168 31 9157 31 9090 31L9090 0L9203 3ZM9751 119C9751 129 9741 129 9738 129C9729 129 9727 125 9725 119C9696 26 9631 14 9594 14C9541 14 9453 57 9453 218C9453 381 9535 423 9588 423C9597 423 9660 422 9695 386C9654 383 9648 353 9648 340C9648 314 9666 294 9694 294C9720 294 9740 311 9740 341C9740 409 9664 448 9587 448C9462 448 9370 340 9370 216C9370 88 9469 -11 9585 -11C9719 -11 9751 109 9751 119ZM10195 119C10195 129 10187 131 10182 131C10173 131 10171 125 10169 117C10134 14 10044 14 10034 14C9984 14 9944 44 9921 81C9891 129 9891 195 9891 231L10170 231C10192 231 10195 231 10195 252C10195 351 10141 448 10016 448C9900 448 9808 345 9808 220C9808 86 9913 -11 10028 -11C10150 -11 10195 100 10195 119ZM10129 252L9892 252C9898 401 9982 426 10016 426C10119 426 10129 291 10129 252ZM11241 452L11222 677L10611 677L10592 452L10617 452C10631 613 10646 646 10797 646C10815 646 10841 646 10851 644C10872 640 10872 629 10872 606L10872 79C10872 45 10872 31 10767 31L10727 31L10727 0C10768 3 10870 3 10916 3C10962 3 11065 3 11106 0L11106 31L11066 31C10961 31 10961 45 10961 79L10961 606C10961 626 10961 640 10979 644C10990 646 11017 646 11036 646C11187 646 11202 613 11216 452Z" stroke="rgb(0,0,0)" stroke-opacity="1" stroke-width="8" fill="rgb(0,0,0)" fill-opacity="1"></path></g></g><g><g transform="matrix(1,0,0,1,243.9825439453125,114.93513842773437)"><path transform="matrix(0.0064995,0,0,-0.0064995,0,0)" d="M192 53C192 82 168 106 139 106C110 106 86 82 86 53C86 24 110 0 139 0C168 0 192 24 192 53Z" stroke="rgb(0,0,0)" stroke-opacity="1" stroke-width="8" fill="rgb(0,0,0)" fill-opacity="1"></path></g></g><g><g transform="matrix(1,0,0,1,247.08892822265625,114.93513842773437)"><path transform="matrix(0.0064995,0,0,-0.0064995,0,0)" d="M288 208L288 292C288 463 183 663 73 746C71 747 69 748 67 748C62 748 57 743 57 738C57 735 59 732 61 730C165 652 234 452 234 292L234 208C234 48 165 -152 61 -230C59 -232 57 -235 57 -238C57 -243 62 -248 67 -248C69 -248 71 -247 73 -246C183 -163 288 37 288 208Z" stroke="rgb(0,0,0)" stroke-opacity="1" stroke-width="8" fill="rgb(0,0,0)" fill-opacity="1"></path></g></g></g></g><g><g><g><g><g><g><g><g></g></g><g><g transform="matrix(1,0,0,1,148.70721435546875,132.4287567138672)"><path transform="matrix(0.012,0,0,-0.012,0,0)" d="M360 128C360 181 330 211 318 223C285 255 246 263 204 271C148 282 81 295 81 353C81 388 107 429 193 429C303 429 308 339 310 308C311 299 322 299 322 299C335 299 335 304 335 323L335 424C335 441 335 448 324 448C319 448 317 448 304 436C301 432 291 423 287 420C249 448 208 448 193 448C71 448 33 381 33 325C33 290 49 262 76 240C108 214 136 208 208 194C230 190 312 174 312 102C312 51 277 11 199 11C115 11 79 68 60 153C57 166 56 170 46 170C33 170 33 163 33 145L33 13C33 -4 33 -11 44 -11C49 -11 50 -10 69 9C71 11 71 13 89 32C133 -10 178 -11 199 -11C314 -11 360 56 360 128ZM929 0L929 31C859 31 851 38 851 87L851 442L704 431L704 400C774 400 782 393 782 344L782 166C782 79 734 11 661 11C577 11 573 58 573 110L573 442L426 431L426 400C504 400 504 397 504 308L504 158C504 80 504 -11 656 -11C712 -11 756 17 785 79L785 -11ZM1471 216C1471 343 1374 442 1262 442C1184 442 1142 398 1122 376L1122 442L978 431L978 400C1049 400 1056 394 1056 350L1056 -118C1056 -163 1045 -163 978 -163L978 -194L1090 -191L1203 -194L1203 -163C1136 -163 1125 -163 1125 -118L1125 50L1125 59C1130 43 1172 -11 1248 -11C1367 -11 1471 87 1471 216ZM1388 216C1388 95 1318 11 1244 11C1204 11 1166 31 1139 72C1125 93 1125 94 1125 114L1125 337C1154 388 1203 417 1254 417C1327 417 1388 329 1388 216Z" stroke="rgb(0,0,0)" stroke-opacity="1" stroke-width="8" fill="rgb(0,0,0)" fill-opacity="1"></path></g></g></g></g></g><g><g><g><g transform="matrix(1,0,0,1,150.5859375,142.63081970214844)"><path transform="matrix(0.008400000000000001,0,0,-0.008400000000000001,0,0)" d="M571 143C571 153 562 153 559 153C549 153 549 150 544 135C524 67 491 11 442 11C425 11 418 21 418 44C418 69 427 93 436 115C455 168 497 278 497 335C497 402 454 442 382 442C292 442 243 378 226 355C221 411 180 442 134 442C88 442 69 403 59 385C43 351 29 292 29 288C29 278 41 278 41 278C51 278 52 279 58 301C75 372 95 420 131 420C151 420 162 407 162 374C162 353 159 342 146 290L88 59C85 44 79 21 79 16C79 -2 93 -11 108 -11C120 -11 138 -3 145 17C146 19 158 66 164 91L186 181C192 203 198 225 203 248L216 298C231 329 284 420 379 420C424 420 433 383 433 350C433 288 384 160 368 117C359 94 358 82 358 71C358 24 393 -11 440 -11C534 -11 571 135 571 143ZM1187 -23C1187 -12 1178 -3 1167 -3L974 -3C841 -3 732 100 722 230L1167 230C1194 230 1194 270 1167 270L722 270C732 400 841 503 974 503L1167 503C1178 503 1187 512 1187 523C1187 534 1178 543 1167 543L974 543C812 543 681 412 681 250C681 88 812 -43 974 -43L1167 -43C1178 -43 1187 -34 1187 -23Z" stroke="rgb(0,0,0)" stroke-opacity="1" stroke-width="8" fill="rgb(0,0,0)" fill-opacity="1"></path></g></g><g><g transform="matrix(1,0,0,1,161.235107421875,142.63081970214844)"><path transform="matrix(0.008400000000000001,0,0,-0.008400000000000001,0,0)" d="M41 0L231 0C240 2 247 8 247 18C247 26 240 35 231 35C169 35 154 47 154 110L154 551L593 -12C597 -16 600 -19 607 -19C615 -19 624 -12 624 -3L624 573C624 626 624 650 686 650C695 652 702 658 702 668C702 676 695 685 686 685L505 685C496 683 489 677 489 668C489 659 496 650 505 650C569 650 582 637 582 573L582 258L262 678C258 681 254 685 249 685L38 685C29 683 22 677 22 668C22 659 29 650 38 650C69 650 93 627 112 605L112 112C112 52 105 35 41 35C32 33 25 27 25 18C25 9 32 0 41 0ZM589 49L151 613C140 626 129 638 117 650L239 650L589 191Z" stroke="rgb(0,0,0)" stroke-opacity="1" stroke-width="8" fill="rgb(0,0,0)" fill-opacity="1"></path></g></g></g></g></g><g><g transform="matrix(1,0,0,1,169.1871337890625,132.4287567138672)"><path transform="matrix(0.012,0,0,-0.012,0,0)" d="M425 -238C425 -231 420 -226 413 -226C338 -226 283 -177 283 -125L283 125C283 183 235 229 168 250C235 271 283 317 283 375L283 625C283 677 338 726 413 726C420 726 425 731 425 738C425 745 420 750 413 750C308 750 217 698 217 625L217 375C217 317 162 262 87 262C80 262 75 257 75 250C75 243 80 238 87 238C162 238 217 183 217 125L217 -125C217 -198 308 -250 413 -250C420 -250 425 -245 425 -238Z" stroke="rgb(0,0,0)" stroke-opacity="1" stroke-width="8" fill="rgb(0,0,0)" fill-opacity="1"></path></g></g><g><g transform="matrix(1,0,0,1,175.79052734375,132.4287567138672)"><path transform="matrix(0.012,0,0,-0.012,0,0)" d="M498 143C498 153 489 153 486 153C476 153 475 149 472 135C455 70 437 11 396 11C369 11 366 37 366 57C366 79 368 87 379 131L401 221L437 361C444 389 444 391 444 395C444 412 432 422 415 422C391 422 376 400 373 378C355 415 326 442 281 442C164 442 40 295 40 149C40 55 95 -11 173 -11C193 -11 243 -7 303 64C311 22 346 -11 394 -11C429 -11 452 12 468 44C485 80 498 143 498 143ZM361 332C361 326 359 320 358 315L308 119C303 101 303 99 288 82C244 27 203 11 175 11C125 11 111 66 111 105C111 155 143 278 166 324C197 383 242 420 282 420C347 420 361 338 361 332Z" stroke="rgb(0,0,0)" stroke-opacity="1" stroke-width="8" fill="rgb(0,0,0)" fill-opacity="1"></path></g></g><g><g><g><g><g transform="matrix(1,0,0,1,182.49627685546875,134.5486053466797)"><path transform="matrix(0.008400000000000001,0,0,-0.008400000000000001,0,0)" d="M571 143C571 153 562 153 559 153C549 153 549 150 544 135C524 67 491 11 442 11C425 11 418 21 418 44C418 69 427 93 436 115C455 168 497 278 497 335C497 402 454 442 382 442C292 442 243 378 226 355C221 411 180 442 134 442C88 442 69 403 59 385C43 351 29 292 29 288C29 278 41 278 41 278C51 278 52 279 58 301C75 372 95 420 131 420C151 420 162 407 162 374C162 353 159 342 146 290L88 59C85 44 79 21 79 16C79 -2 93 -11 108 -11C120 -11 138 -3 145 17C146 19 158 66 164 91L186 181C192 203 198 225 203 248L216 298C231 329 284 420 379 420C424 420 433 383 433 350C433 288 384 160 368 117C359 94 358 82 358 71C358 24 393 -11 440 -11C534 -11 571 135 571 143Z" stroke="rgb(0,0,0)" stroke-opacity="1" stroke-width="8" fill="rgb(0,0,0)" fill-opacity="1"></path></g></g></g></g></g><g><g transform="matrix(1,0,0,1,188.84857177734375,132.4287567138672)"><path transform="matrix(0.012,0,0,-0.012,0,0)" d="M425 250C425 257 420 262 413 262C338 262 283 317 283 375L283 625C283 698 192 750 87 750C80 750 75 745 75 738C75 731 80 726 87 726C162 726 217 677 217 625L217 375C217 317 265 271 332 250C265 229 217 183 217 125L217 -125C217 -177 162 -226 87 -226C80 -226 75 -231 75 -238C75 -245 80 -250 87 -250C192 -250 283 -198 283 -125L283 125C283 183 338 238 413 238C420 238 425 243 425 250Z" stroke="rgb(0,0,0)" stroke-opacity="1" stroke-width="8" fill="rgb(0,0,0)" fill-opacity="1"></path></g></g><g><g transform="matrix(1,0,0,1,194.85675048828125,132.4287567138672)"><path transform="matrix(0.012,0,0,-0.012,0,0)" d="" stroke="rgb(0,0,0)" stroke-opacity="1" stroke-width="8" fill="rgb(0,0,0)" fill-opacity="1"></path></g></g><g><g><g><g><g><g transform="matrix(1,0,0,1,231.03607177734375,132.4287567138672)"><path transform="matrix(0.012,0,0,-0.012,0,0)" d="M247 0L247 31C181 31 177 36 177 75L177 442L37 431L37 400C102 400 111 394 111 345L111 76C111 31 100 31 33 31L33 0L143 3C178 3 213 1 247 0ZM192 604C192 631 169 657 139 657C105 657 85 629 85 604C85 577 108 551 138 551C172 551 192 579 192 604ZM813 0L813 31C761 31 736 31 735 61L735 252C735 338 735 369 704 405C690 422 657 442 599 442C526 442 479 399 451 337L451 442L310 431L310 400C380 400 388 393 388 344L388 76C388 31 377 31 310 31L310 0L423 3L535 0L535 31C468 31 457 31 457 76L457 260C457 364 528 420 592 420C655 420 666 366 666 309L666 76C666 31 655 31 588 31L588 0L701 3ZM1191 635C1191 672 1154 705 1101 705C1031 705 946 652 946 546L946 431L867 431L867 400L946 400L946 76C946 31 935 31 868 31L868 0L982 3C1022 3 1069 3 1109 0L1109 31L1088 31C1014 31 1012 42 1012 78L1012 400L1126 400L1126 431L1009 431L1009 547C1009 635 1057 683 1101 683C1104 683 1119 683 1134 676C1122 672 1104 659 1104 634C1104 611 1120 591 1147 591C1176 591 1191 611 1191 635Z" stroke="rgb(0,0,0)" stroke-opacity="1" stroke-width="8" fill="rgb(0,0,0)" fill-opacity="1"></path></g></g></g></g></g><g><g><g><g transform="matrix(1,0,0,1,230.7198486328125,142.63081970214844)"><path transform="matrix(0.008400000000000001,0,0,-0.008400000000000001,0,0)" d="M571 143C571 153 562 153 559 153C549 153 549 150 544 135C524 67 491 11 442 11C425 11 418 21 418 44C418 69 427 93 436 115C455 168 497 278 497 335C497 402 454 442 382 442C292 442 243 378 226 355C221 411 180 442 134 442C88 442 69 403 59 385C43 351 29 292 29 288C29 278 41 278 41 278C51 278 52 279 58 301C75 372 95 420 131 420C151 420 162 407 162 374C162 353 159 342 146 290L88 59C85 44 79 21 79 16C79 -2 93 -11 108 -11C120 -11 138 -3 145 17C146 19 158 66 164 91L186 181C192 203 198 225 203 248L216 298C231 329 284 420 379 420C424 420 433 383 433 350C433 288 384 160 368 117C359 94 358 82 358 71C358 24 393 -11 440 -11C534 -11 571 135 571 143ZM1187 -23C1187 -12 1178 -3 1167 -3L974 -3C841 -3 732 100 722 230L1167 230C1194 230 1194 270 1167 270L722 270C732 400 841 503 974 503L1167 503C1178 503 1187 512 1187 523C1187 534 1178 543 1167 543L974 543C812 543 681 412 681 250C681 88 812 -43 974 -43L1167 -43C1178 -43 1187 -34 1187 -23Z" stroke="rgb(0,0,0)" stroke-opacity="1" stroke-width="8" fill="rgb(0,0,0)" fill-opacity="1"></path></g></g><g><g transform="matrix(1,0,0,1,241.3690185546875,142.63081970214844)"><path transform="matrix(0.008400000000000001,0,0,-0.008400000000000001,0,0)" d="M41 0L231 0C240 2 247 8 247 18C247 26 240 35 231 35C169 35 154 47 154 110L154 551L593 -12C597 -16 600 -19 607 -19C615 -19 624 -12 624 -3L624 573C624 626 624 650 686 650C695 652 702 658 702 668C702 676 695 685 686 685L505 685C496 683 489 677 489 668C489 659 496 650 505 650C569 650 582 637 582 573L582 258L262 678C258 681 254 685 249 685L38 685C29 683 22 677 22 668C22 659 29 650 38 650C69 650 93 627 112 605L112 112C112 52 105 35 41 35C32 33 25 27 25 18C25 9 32 0 41 0ZM589 49L151 613C140 626 129 638 117 650L239 650L589 191Z" stroke="rgb(0,0,0)" stroke-opacity="1" stroke-width="8" fill="rgb(0,0,0)" fill-opacity="1"></path></g></g></g></g></g><g><g transform="matrix(1,0,0,1,247.43304443359375,132.4287567138672)"><path transform="matrix(0.012,0,0,-0.012,0,0)" d="M425 -238C425 -231 420 -226 413 -226C338 -226 283 -177 283 -125L283 125C283 183 235 229 168 250C235 271 283 317 283 375L283 625C283 677 338 726 413 726C420 726 425 731 425 738C425 745 420 750 413 750C308 750 217 698 217 625L217 375C217 317 162 262 87 262C80 262 75 257 75 250C75 243 80 238 87 238C162 238 217 183 217 125L217 -125C217 -198 308 -250 413 -250C420 -250 425 -245 425 -238Z" stroke="rgb(0,0,0)" stroke-opacity="1" stroke-width="8" fill="rgb(0,0,0)" fill-opacity="1"></path></g></g><g><g transform="matrix(1,0,0,1,254.03643798828125,132.4287567138672)"><path transform="matrix(0.012,0,0,-0.012,0,0)" d="M415 282C415 373 362 442 282 442C236 442 195 413 165 382L239 683C239 683 239 694 226 694C203 694 130 686 104 684C96 683 85 682 85 664C85 652 94 652 109 652C157 652 159 645 159 635C159 628 150 594 145 573L63 247C51 197 47 181 47 146C47 51 100 -11 174 -11C292 -11 415 138 415 282ZM343 326C343 267 310 152 292 114C259 47 213 11 174 11C140 11 107 38 107 112C107 131 107 150 123 213L145 305C151 327 151 329 160 340C209 405 254 420 280 420C316 420 343 390 343 326Z" stroke="rgb(0,0,0)" stroke-opacity="1" stroke-width="8" fill="rgb(0,0,0)" fill-opacity="1"></path></g></g><g><g><g><g><g transform="matrix(1,0,0,1,259.54241943359375,134.5486053466797)"><path transform="matrix(0.008400000000000001,0,0,-0.008400000000000001,0,0)" d="M571 143C571 153 562 153 559 153C549 153 549 150 544 135C524 67 491 11 442 11C425 11 418 21 418 44C418 69 427 93 436 115C455 168 497 278 497 335C497 402 454 442 382 442C292 442 243 378 226 355C221 411 180 442 134 442C88 442 69 403 59 385C43 351 29 292 29 288C29 278 41 278 41 278C51 278 52 279 58 301C75 372 95 420 131 420C151 420 162 407 162 374C162 353 159 342 146 290L88 59C85 44 79 21 79 16C79 -2 93 -11 108 -11C120 -11 138 -3 145 17C146 19 158 66 164 91L186 181C192 203 198 225 203 248L216 298C231 329 284 420 379 420C424 420 433 383 433 350C433 288 384 160 368 117C359 94 358 82 358 71C358 24 393 -11 440 -11C534 -11 571 135 571 143Z" stroke="rgb(0,0,0)" stroke-opacity="1" stroke-width="8" fill="rgb(0,0,0)" fill-opacity="1"></path></g></g></g></g></g><g><g transform="matrix(1,0,0,1,265.89471435546875,132.4287567138672)"><path transform="matrix(0.012,0,0,-0.012,0,0)" d="M425 250C425 257 420 262 413 262C338 262 283 317 283 375L283 625C283 698 192 750 87 750C80 750 75 745 75 738C75 731 80 726 87 726C162 726 217 677 217 625L217 375C217 317 265 271 332 250C265 229 217 183 217 125L217 -125C217 -177 162 -226 87 -226C80 -226 75 -231 75 -238C75 -245 80 -250 87 -250C192 -250 283 -198 283 -125L283 125C283 183 338 238 413 238C420 238 425 243 425 250Z" stroke="rgb(0,0,0)" stroke-opacity="1" stroke-width="8" fill="rgb(0,0,0)" fill-opacity="1"></path></g></g></g></g><g transform="matrix(6.123233995736766e-17,1,-1,6.123233995736766e-17,352.8366346359253,-71.14024639129639)"><g><g><g transform="matrix(1,0,0,1,201.06024169921875,146.84986877441406)"><path transform="matrix(0.015,0,0,-0.015,0,0)" d="M1401 250C1401 256 1397 261 1392 263C1320 282 1258 323 1204 370C1160 409 1123 456 1096 509C1093 516 1086 520 1078 520C1067 520 1058 511 1058 500C1058 497 1059 494 1060 491C1084 445 1114 403 1149 367L76 367C65 367 56 358 56 347C56 336 65 327 76 327L1193 327C1233 295 1277 269 1325 250C1277 231 1233 205 1193 173L76 173C65 173 56 164 56 153C56 142 65 133 76 133L1149 133C1114 97 1084 55 1060 9C1059 6 1058 3 1058 0C1058 -11 1067 -20 1078 -20C1086 -20 1093 -16 1096 -9C1123 44 1160 91 1204 130C1258 177 1320 218 1392 237C1397 239 1401 244 1401 250Z" stroke="rgb(0,0,0)" stroke-opacity="1" stroke-width="8" fill="rgb(0,0,0)" fill-opacity="1"></path></g></g></g></g><g><g><g><g transform="matrix(1,0,0,1,155.18972778320312,162.4330291748047)"><path transform="matrix(0.015,0,0,-0.015,0,0)" d="M620 656C630 681 594 696 583 672L486 438L180 438L82 672C72 696 35 681 46 656L148 411L148 410L313 16C320 -2 345 -2 353 16L517 410L518 411ZM469 398L333 72L197 398Z" stroke="rgb(0,0,0)" stroke-opacity="1" stroke-width="8" fill="rgb(0,0,0)" fill-opacity="1"></path></g></g><g><g transform="matrix(1,0,0,1,165.1878662109375,162.4330291748047)"><path transform="matrix(0.015,0,0,-0.015,0,0)" d="M571 143C571 153 562 153 559 153C549 153 549 150 544 135C524 67 491 11 442 11C425 11 418 21 418 44C418 69 427 93 436 115C455 168 497 278 497 335C497 402 454 442 382 442C292 442 243 378 226 355C221 411 180 442 134 442C88 442 69 403 59 385C43 351 29 292 29 288C29 278 41 278 41 278C51 278 52 279 58 301C75 372 95 420 131 420C151 420 162 407 162 374C162 353 159 342 146 290L88 59C85 44 79 21 79 16C79 -2 93 -11 108 -11C120 -11 138 -3 145 17C146 19 158 66 164 91L186 181C192 203 198 225 203 248L216 298C231 329 284 420 379 420C424 420 433 383 433 350C433 288 384 160 368 117C359 94 358 82 358 71C358 24 393 -11 440 -11C534 -11 571 135 571 143Z" stroke="rgb(0,0,0)" stroke-opacity="1" stroke-width="8" fill="rgb(0,0,0)" fill-opacity="1"></path></g></g><g><g transform="matrix(1,0,0,1,174.19085693359375,162.4330291748047)"><path transform="matrix(0.015,0,0,-0.015,0,0)" d="M203 1C203 67 178 106 139 106C106 106 86 81 86 53C86 26 106 0 139 0C151 0 164 4 174 13C177 15 179 16 179 16C179 16 181 15 181 1C181 -73 146 -133 113 -166C102 -177 102 -179 102 -182C102 -189 107 -193 112 -193C123 -193 203 -116 203 1Z" stroke="rgb(0,0,0)" stroke-opacity="1" stroke-width="8" fill="rgb(0,0,0)" fill-opacity="1"></path></g></g><g><g transform="matrix(1,0,0,1,181.36163330078125,162.4330291748047)"><path transform="matrix(0.015,0,0,-0.015,0,0)" d="M498 143C498 153 489 153 486 153C476 153 475 149 472 135C455 70 437 11 396 11C369 11 366 37 366 57C366 79 368 87 379 131L401 221L437 361C444 389 444 391 444 395C444 412 432 422 415 422C391 422 376 400 373 378C355 415 326 442 281 442C164 442 40 295 40 149C40 55 95 -11 173 -11C193 -11 243 -7 303 64C311 22 346 -11 394 -11C429 -11 452 12 468 44C485 80 498 143 498 143ZM361 332C361 326 359 320 358 315L308 119C303 101 303 99 288 82C244 27 203 11 175 11C125 11 111 66 111 105C111 155 143 278 166 324C197 383 242 420 282 420C347 420 361 338 361 332Z" stroke="rgb(0,0,0)" stroke-opacity="1" stroke-width="8" fill="rgb(0,0,0)" fill-opacity="1"></path></g></g><g><g><g><g><g transform="matrix(1,0,0,1,189.750732421875,165.0758819580078)"><path transform="matrix(0.0105,0,0,-0.0105,0,0)" d="M571 143C571 153 562 153 559 153C549 153 549 150 544 135C524 67 491 11 442 11C425 11 418 21 418 44C418 69 427 93 436 115C455 168 497 278 497 335C497 402 454 442 382 442C292 442 243 378 226 355C221 411 180 442 134 442C88 442 69 403 59 385C43 351 29 292 29 288C29 278 41 278 41 278C51 278 52 279 58 301C75 372 95 420 131 420C151 420 162 407 162 374C162 353 159 342 146 290L88 59C85 44 79 21 79 16C79 -2 93 -11 108 -11C120 -11 138 -3 145 17C146 19 158 66 164 91L186 181C192 203 198 225 203 248L216 298C231 329 284 420 379 420C424 420 433 383 433 350C433 288 384 160 368 117C359 94 358 82 358 71C358 24 393 -11 440 -11C534 -11 571 135 571 143Z" stroke="rgb(0,0,0)" stroke-opacity="1" stroke-width="8" fill="rgb(0,0,0)" fill-opacity="1"></path></g></g></g></g></g><g><g transform="matrix(1,0,0,1,201.44158935546875,162.4330291748047)"><path transform="matrix(0.015,0,0,-0.015,0,0)" d="M691 78L143 337L691 596C715 607 698 643 673 632L92 357C75 349 75 325 92 317L673 42C698 30 715 67 691 78ZM702 -114C702 -106 697 -99 691 -96L105 181C102 182 99 183 96 183C85 183 76 174 76 163C76 155 81 148 87 145L673 -132C676 -133 679 -134 682 -134C693 -134 702 -125 702 -114Z" stroke="rgb(0,0,0)" stroke-opacity="1" stroke-width="8" fill="rgb(0,0,0)" fill-opacity="1"></path></g></g><g><g transform="matrix(1,0,0,1,217.60601806640625,162.4330291748047)"><path transform="matrix(0.015,0,0,-0.015,0,0)" d="M527 376C527 428 468 442 434 442C376 442 341 389 329 366C304 432 250 442 221 442C117 442 60 313 60 288C60 278 72 278 72 278C80 278 83 280 85 289C119 395 185 420 219 420C238 420 273 411 273 353C273 322 256 255 219 115C203 53 168 11 124 11C118 11 95 11 74 24C99 29 121 50 121 78C121 105 99 113 84 113C54 113 29 87 29 55C29 9 79 -11 123 -11C189 -11 225 59 228 65C240 28 276 -11 336 -11C439 -11 496 118 496 143C496 153 487 153 484 153C475 153 473 149 471 142C438 35 370 11 338 11C299 11 283 43 283 77C283 99 289 121 300 165L334 302C340 328 363 420 433 420C438 420 462 420 483 407C455 402 435 377 435 353C435 337 446 318 473 318C495 318 527 336 527 376Z" stroke="rgb(0,0,0)" stroke-opacity="1" stroke-width="8" fill="rgb(0,0,0)" fill-opacity="1"></path></g></g><g><g transform="matrix(1,0,0,1,230.68267822265625,162.4330291748047)"><path transform="matrix(0.015,0,0,-0.015,0,0)" d="M691 78L143 337L691 596C715 607 698 643 673 632L92 357C75 349 75 325 92 317L673 42C698 30 715 67 691 78ZM702 -114C702 -106 697 -99 691 -96L105 181C102 182 99 183 96 183C85 183 76 174 76 163C76 155 81 148 87 145L673 -132C676 -133 679 -134 682 -134C693 -134 702 -125 702 -114Z" stroke="rgb(0,0,0)" stroke-opacity="1" stroke-width="8" fill="rgb(0,0,0)" fill-opacity="1"></path></g></g><g><g transform="matrix(1,0,0,1,246.84710693359375,162.4330291748047)"><path transform="matrix(0.015,0,0,-0.015,0,0)" d="M415 282C415 373 362 442 282 442C236 442 195 413 165 382L239 683C239 683 239 694 226 694C203 694 130 686 104 684C96 683 85 682 85 664C85 652 94 652 109 652C157 652 159 645 159 635C159 628 150 594 145 573L63 247C51 197 47 181 47 146C47 51 100 -11 174 -11C292 -11 415 138 415 282ZM343 326C343 267 310 152 292 114C259 47 213 11 174 11C140 11 107 38 107 112C107 131 107 150 123 213L145 305C151 327 151 329 160 340C209 405 254 420 280 420C316 420 343 390 343 326Z" stroke="rgb(0,0,0)" stroke-opacity="1" stroke-width="8" fill="rgb(0,0,0)" fill-opacity="1"></path></g></g><g><g><g><g><g transform="matrix(1,0,0,1,253.72955322265625,165.0758819580078)"><path transform="matrix(0.0105,0,0,-0.0105,0,0)" d="M571 143C571 153 562 153 559 153C549 153 549 150 544 135C524 67 491 11 442 11C425 11 418 21 418 44C418 69 427 93 436 115C455 168 497 278 497 335C497 402 454 442 382 442C292 442 243 378 226 355C221 411 180 442 134 442C88 442 69 403 59 385C43 351 29 292 29 288C29 278 41 278 41 278C51 278 52 279 58 301C75 372 95 420 131 420C151 420 162 407 162 374C162 353 159 342 146 290L88 59C85 44 79 21 79 16C79 -2 93 -11 108 -11C120 -11 138 -3 145 17C146 19 158 66 164 91L186 181C192 203 198 225 203 248L216 298C231 329 284 420 379 420C424 420 433 383 433 350C433 288 384 160 368 117C359 94 358 82 358 71C358 24 393 -11 440 -11C534 -11 571 135 571 143Z" stroke="rgb(0,0,0)" stroke-opacity="1" stroke-width="8" fill="rgb(0,0,0)" fill-opacity="1"></path></g></g></g></g></g></g></g><g transform="matrix(6.123233995736766e-17,1,-1,6.123233995736766e-17,390.83889293670654,-33.13798809051514)"><g><g><g transform="matrix(1,0,0,1,201.06024169921875,184.8521270751953)"><path transform="matrix(0.015,0,0,-0.015,0,0)" d="M1401 250C1401 256 1397 261 1392 263C1320 282 1258 323 1204 370C1160 409 1123 456 1096 509C1093 516 1086 520 1078 520C1067 520 1058 511 1058 500C1058 497 1059 494 1060 491C1084 445 1114 403 1149 367L76 367C65 367 56 358 56 347C56 336 65 327 76 327L1193 327C1233 295 1277 269 1325 250C1277 231 1233 205 1193 173L76 173C65 173 56 164 56 153C56 142 65 133 76 133L1149 133C1114 97 1084 55 1060 9C1059 6 1058 3 1058 0C1058 -11 1067 -20 1078 -20C1086 -20 1093 -16 1096 -9C1123 44 1160 91 1204 130C1258 177 1320 218 1392 237C1397 239 1401 244 1401 250Z" stroke="rgb(0,0,0)" stroke-opacity="1" stroke-width="8" fill="rgb(0,0,0)" fill-opacity="1"></path></g></g></g></g><g><g><g><g transform="matrix(1,0,0,1,151.04165649414062,202.6276092529297)"><path transform="matrix(0.0135,0,0,-0.0135,0,0)" d="M527 376C527 428 468 442 434 442C376 442 341 389 329 366C304 432 250 442 221 442C117 442 60 313 60 288C60 278 72 278 72 278C80 278 83 280 85 289C119 395 185 420 219 420C238 420 273 411 273 353C273 322 256 255 219 115C203 53 168 11 124 11C118 11 95 11 74 24C99 29 121 50 121 78C121 105 99 113 84 113C54 113 29 87 29 55C29 9 79 -11 123 -11C189 -11 225 59 228 65C240 28 276 -11 336 -11C439 -11 496 118 496 143C496 153 487 153 484 153C475 153 473 149 471 142C438 35 370 11 338 11C299 11 283 43 283 77C283 99 289 121 300 165L334 302C340 328 363 420 433 420C438 420 462 420 483 407C455 402 435 377 435 353C435 337 446 318 473 318C495 318 527 336 527 376Z" stroke="rgb(0,0,0)" stroke-opacity="1" stroke-width="8" fill="rgb(0,0,0)" fill-opacity="1"></path></g></g><g><g transform="matrix(1,0,0,1,162.81622314453125,202.6276092529297)"><path transform="matrix(0.0135,0,0,-0.0135,0,0)" d="M587 -23C587 -12 578 -3 567 -3L374 -3C241 -3 132 100 122 230L567 230C594 230 594 270 567 270L122 270C132 400 241 503 374 503L567 503C578 503 587 512 587 523C587 534 578 543 567 543L374 543C212 543 81 412 81 250C81 88 212 -43 374 -43L567 -43C578 -43 587 -34 587 -23Z" stroke="rgb(0,0,0)" stroke-opacity="1" stroke-width="8" fill="rgb(0,0,0)" fill-opacity="1"></path></g></g><g><g><g><g><g transform="matrix(1,0,0,1,180.0223388671875,182.87820739746093)"><path transform="matrix(0.00945,0,0,-0.00945,0,0)" d="M943 216C943 327 873 442 754 442C610 442 521 294 508 272C441 353 440 354 418 373C386 400 327 442 248 442C132 442 56 333 56 215C56 104 126 -11 245 -11C389 -11 478 137 491 159C558 78 559 77 581 58C613 31 672 -11 751 -11C867 -11 943 98 943 216ZM921 216C921 116 851 37 767 37C721 37 680 60 635 109C607 140 562 203 534 237C572 305 648 410 761 410C867 410 921 306 921 216ZM465 194C427 126 351 21 238 21C132 21 78 125 78 215C78 315 148 394 232 394C278 394 319 371 364 322C392 291 437 228 465 194Z" stroke="rgb(0,0,0)" stroke-opacity="1" stroke-width="8" fill="rgb(0,0,0)" fill-opacity="1"></path></g></g></g></g><g><g><g><g transform="matrix(1,0,0,1,175.874267578125,218.91800231933593)"><path transform="matrix(0.00945,0,0,-0.00945,0,0)" d="M571 143C571 153 562 153 559 153C549 153 549 150 544 135C524 67 491 11 442 11C425 11 418 21 418 44C418 69 427 93 436 115C455 168 497 278 497 335C497 402 454 442 382 442C292 442 243 378 226 355C221 411 180 442 134 442C88 442 69 403 59 385C43 351 29 292 29 288C29 278 41 278 41 278C51 278 52 279 58 301C75 372 95 420 131 420C151 420 162 407 162 374C162 353 159 342 146 290L88 59C85 44 79 21 79 16C79 -2 93 -11 108 -11C120 -11 138 -3 145 17C146 19 158 66 164 91L186 181C192 203 198 225 203 248L216 298C231 329 284 420 379 420C424 420 433 383 433 350C433 288 384 160 368 117C359 94 358 82 358 71C358 24 393 -11 440 -11C534 -11 571 135 571 143ZM1322 347C1322 358 1313 367 1302 367L676 367C665 367 656 358 656 347C656 336 665 327 676 327L1302 327C1313 327 1322 336 1322 347ZM1322 153C1322 164 1313 173 1302 173L676 173C665 173 656 164 656 153C656 142 665 133 676 133L1302 133C1313 133 1322 142 1322 153ZM1797 0L1797 31L1765 31C1675 31 1672 42 1672 79L1672 640C1672 664 1672 666 1649 666C1587 602 1499 602 1467 602L1467 571C1487 571 1546 571 1598 597L1598 79C1598 43 1595 31 1505 31L1473 31L1473 0C1508 3 1595 3 1635 3C1675 3 1762 3 1797 0Z" stroke="rgb(0,0,0)" stroke-opacity="1" stroke-width="8" fill="rgb(0,0,0)" fill-opacity="1"></path></g></g></g></g><g><g transform="matrix(1,0,0,1,176.3114013671875,200.91651458740233)"><path transform="matrix(0.02025,0,0,-0.02025,0,0)" d="M784 -321L784 373C784 536 621 672 417 672C213 672 50 536 50 373L50 -321C50 -337 63 -350 79 -350C95 -350 108 -337 108 -321L108 373C108 508 248 614 417 614C586 614 726 508 726 373L726 -321C726 -337 739 -350 755 -350C771 -350 784 -337 784 -321Z" stroke="rgb(0,0,0)" stroke-opacity="1" stroke-width="8" fill="rgb(0,0,0)" fill-opacity="1"></path></g></g></g><g><g transform="matrix(1,0,0,1,195.63800048828125,202.6276092529297)"><path transform="matrix(0.0135,0,0,-0.0135,0,0)" d="M497 671C497 683 486 683 482 683L350 680L217 683C210 683 197 683 197 663C197 652 206 652 225 652C267 652 294 652 294 633C294 628 294 626 292 617L157 78C148 41 145 31 66 31C43 31 34 31 34 11C34 0 46 0 49 0L180 3L314 0C322 0 334 0 334 19C334 31 326 31 304 31C286 31 281 31 261 33C240 35 236 39 236 50C236 58 238 66 240 73L374 606C383 642 386 652 465 652C489 652 497 652 497 671Z" stroke="rgb(25,164,0)" stroke-opacity="1" stroke-width="8" fill="rgb(25,164,0)" fill-opacity="1"></path></g></g><g><g><g><g><g transform="matrix(1,0,0,1,201.98101806640625,205.60885925292968)"><path transform="matrix(0.00945,0,0,-0.00945,0,0)" d="M571 143C571 153 562 153 559 153C549 153 549 150 544 135C524 67 491 11 442 11C425 11 418 21 418 44C418 69 427 93 436 115C455 168 497 278 497 335C497 402 454 442 382 442C292 442 243 378 226 355C221 411 180 442 134 442C88 442 69 403 59 385C43 351 29 292 29 288C29 278 41 278 41 278C51 278 52 279 58 301C75 372 95 420 131 420C151 420 162 407 162 374C162 353 159 342 146 290L88 59C85 44 79 21 79 16C79 -2 93 -11 108 -11C120 -11 138 -3 145 17C146 19 158 66 164 91L186 181C192 203 198 225 203 248L216 298C231 329 284 420 379 420C424 420 433 383 433 350C433 288 384 160 368 117C359 94 358 82 358 71C358 24 393 -11 440 -11C534 -11 571 135 571 143Z" stroke="rgb(25,164,0)" stroke-opacity="1" stroke-width="8" fill="rgb(25,164,0)" fill-opacity="1"></path></g></g></g></g></g><g><g><g><g><g transform="matrix(1,0,0,1,222.265625,202.6276092529297)"><path transform="matrix(0.0135,0,0,-0.0135,0,0)" d="M722 347C722 358 713 367 702 367L76 367C65 367 56 358 56 347C56 336 65 327 76 327L702 327C713 327 722 336 722 347ZM722 153C722 164 713 173 702 173L76 173C65 173 56 164 56 153C56 142 65 133 76 133L702 133C713 133 722 142 722 153Z" stroke="rgb(0,0,0)" stroke-opacity="1" stroke-width="8" fill="rgb(0,0,0)" fill-opacity="1"></path></g></g></g></g><g><g><g><g transform="matrix(1,0,0,1,208.46356201171875,211.37521667480468)"><path transform="matrix(0.00945,0,0,-0.00945,0,0)" d="M332 -238C332 -235 330 -232 328 -230C224 -152 155 48 155 208L155 292C155 452 224 652 328 730C330 732 332 735 332 738C332 743 327 748 322 748C320 748 318 747 316 746C206 663 101 463 101 292L101 208C101 37 206 -163 316 -246C318 -247 320 -248 322 -248C327 -248 332 -243 332 -238Z" stroke="rgb(0,0,0)" stroke-opacity="1" stroke-width="8" fill="rgb(0,0,0)" fill-opacity="1"></path></g></g><g><g transform="matrix(1,0,0,1,212.1466064453125,211.37521667480468)"><path transform="matrix(0.00945,0,0,-0.00945,0,0)" d="M360 128C360 181 330 211 318 223C285 255 246 263 204 271C148 282 81 295 81 353C81 388 107 429 193 429C303 429 308 339 310 308C311 299 322 299 322 299C335 299 335 304 335 323L335 424C335 441 335 448 324 448C319 448 317 448 304 436C301 432 291 423 287 420C249 448 208 448 193 448C71 448 33 381 33 325C33 290 49 262 76 240C108 214 136 208 208 194C230 190 312 174 312 102C312 51 277 11 199 11C115 11 79 68 60 153C57 166 56 170 46 170C33 170 33 163 33 145L33 13C33 -4 33 -11 44 -11C49 -11 50 -10 69 9C71 11 71 13 89 32C133 -10 178 -11 199 -11C314 -11 360 56 360 128ZM921 -194L921 -163C854 -163 843 -163 843 -118L843 442L821 442L783 351C770 379 729 442 649 442C533 442 428 345 428 215C428 90 525 -11 641 -11C711 -11 752 32 774 61L774 -118C774 -163 763 -163 696 -163L696 -194L808 -191ZM777 136C777 104 759 76 737 52C724 38 692 11 645 11C572 11 511 100 511 215C511 334 581 417 655 417C735 417 777 330 777 277ZM1457 0L1457 31C1387 31 1379 38 1379 87L1379 442L1232 431L1232 400C1302 400 1310 393 1310 344L1310 166C1310 79 1262 11 1189 11C1105 11 1101 58 1101 110L1101 442L954 431L954 400C1032 400 1032 397 1032 308L1032 158C1032 80 1032 -11 1184 -11C1240 -11 1284 17 1313 79L1313 -11ZM1893 119C1893 129 1885 131 1880 131C1871 131 1869 125 1867 117C1832 14 1742 14 1732 14C1682 14 1642 44 1619 81C1589 129 1589 195 1589 231L1868 231C1890 231 1893 231 1893 252C1893 351 1839 448 1714 448C1598 448 1506 345 1506 220C1506 86 1611 -11 1726 -11C1848 -11 1893 100 1893 119ZM1827 252L1590 252C1596 401 1680 426 1714 426C1817 426 1827 291 1827 252ZM2337 119C2337 129 2329 131 2324 131C2315 131 2313 125 2311 117C2276 14 2186 14 2176 14C2126 14 2086 44 2063 81C2033 129 2033 195 2033 231L2312 231C2334 231 2337 231 2337 252C2337 351 2283 448 2158 448C2042 448 1950 345 1950 220C1950 86 2055 -11 2170 -11C2292 -11 2337 100 2337 119ZM2271 252L2034 252C2040 401 2124 426 2158 426C2261 426 2271 291 2271 252ZM2767 187L2742 187C2733 69 2712 25 2596 25L2478 25L2756 401C2765 412 2765 414 2765 418C2765 431 2757 431 2739 431L2419 431L2408 270L2433 270C2439 372 2458 409 2568 409L2682 409L2403 32C2394 21 2394 19 2394 14C2394 0 2401 0 2420 0L2750 0ZM3225 119C3225 129 3217 131 3212 131C3203 131 3201 125 3199 117C3164 14 3074 14 3064 14C3014 14 2974 44 2951 81C2921 129 2921 195 2921 231L3200 231C3222 231 3225 231 3225 252C3225 351 3171 448 3046 448C2930 448 2838 345 2838 220C2838 86 2943 -11 3058 -11C3180 -11 3225 100 3225 119ZM3159 252L2922 252C2928 401 3012 426 3046 426C3149 426 3159 291 3159 252Z" stroke="rgb(0,0,0)" stroke-opacity="1" stroke-width="8" fill="rgb(0,0,0)" fill-opacity="1"></path></g></g><g><g transform="matrix(1,0,0,1,242.89434814453125,211.37521667480468)"><path transform="matrix(0.00945,0,0,-0.00945,0,0)" d="M288 208L288 292C288 463 183 663 73 746C71 747 69 748 67 748C62 748 57 743 57 738C57 735 59 732 61 730C165 652 234 452 234 292L234 208C234 48 165 -152 61 -230C59 -232 57 -235 57 -238C57 -243 62 -248 67 -248C69 -248 71 -247 73 -246C183 -163 288 37 288 208Z" stroke="rgb(0,0,0)" stroke-opacity="1" stroke-width="8" fill="rgb(0,0,0)" fill-opacity="1"></path></g></g></g></g></g><g><g transform="matrix(1,0,0,1,246.577392578125,203.2228240966797)"><path transform="matrix(0.0135,0,0,-0.0135,0,0)" d="M425 -238C425 -231 420 -226 413 -226C338 -226 283 -177 283 -125L283 125C283 183 235 229 168 250C235 271 283 317 283 375L283 625C283 677 338 726 413 726C420 726 425 731 425 738C425 745 420 750 413 750C308 750 217 698 217 625L217 375C217 317 162 262 87 262C80 262 75 257 75 250C75 243 80 238 87 238C162 238 217 183 217 125L217 -125C217 -198 308 -250 413 -250C420 -250 425 -245 425 -238Z" stroke="rgb(0,0,0)" stroke-opacity="1" stroke-width="8" fill="rgb(0,0,0)" fill-opacity="1"></path></g></g><g><g transform="matrix(1,0,0,1,253.999267578125,202.6276092529297)"><path transform="matrix(0.0135,0,0,-0.0135,0,0)" d="M527 376C527 428 468 442 434 442C376 442 341 389 329 366C304 432 250 442 221 442C117 442 60 313 60 288C60 278 72 278 72 278C80 278 83 280 85 289C119 395 185 420 219 420C238 420 273 411 273 353C273 322 256 255 219 115C203 53 168 11 124 11C118 11 95 11 74 24C99 29 121 50 121 78C121 105 99 113 84 113C54 113 29 87 29 55C29 9 79 -11 123 -11C189 -11 225 59 228 65C240 28 276 -11 336 -11C439 -11 496 118 496 143C496 153 487 153 484 153C475 153 473 149 471 142C438 35 370 11 338 11C299 11 283 43 283 77C283 99 289 121 300 165L334 302C340 328 363 420 433 420C438 420 462 420 483 407C455 402 435 377 435 353C435 337 446 318 473 318C495 318 527 336 527 376Z" stroke="rgb(0,0,0)" stroke-opacity="1" stroke-width="8" fill="rgb(0,0,0)" fill-opacity="1"></path></g></g><g><g transform="matrix(1,0,0,1,262.397705078125,203.2228240966797)"><path transform="matrix(0.0135,0,0,-0.0135,0,0)" d="M425 250C425 257 420 262 413 262C338 262 283 317 283 375L283 625C283 698 192 750 87 750C80 750 75 745 75 738C75 731 80 726 87 726C162 726 217 677 217 625L217 375C217 317 265 271 332 250C265 229 217 183 217 125L217 -125C217 -177 162 -226 87 -226C80 -226 75 -231 75 -238C75 -245 80 -250 87 -250C192 -250 283 -198 283 -125L283 125C283 183 338 238 413 238C420 238 425 243 425 250Z" stroke="rgb(0,0,0)" stroke-opacity="1" stroke-width="8" fill="rgb(0,0,0)" fill-opacity="1"></path></g></g></g></g><g><g><g><g transform="matrix(1,0,0,1,173.60491943359375,21.761520385742188)"><path transform="matrix(0.015,0,0,-0.015,0,0)" d="M497 671C497 683 486 683 482 683L350 680L217 683C210 683 197 683 197 663C197 652 206 652 225 652C267 652 294 652 294 633C294 628 294 626 292 617L157 78C148 41 145 31 66 31C43 31 34 31 34 11C34 0 46 0 49 0L180 3L314 0C322 0 334 0 334 19C334 31 326 31 304 31C286 31 281 31 261 33C240 35 236 39 236 50C236 58 238 66 240 73L374 606C383 642 386 652 465 652C489 652 497 652 497 671Z" stroke="rgb(25,164,0)" stroke-opacity="1" stroke-width="8" fill="rgb(25,164,0)" fill-opacity="1"></path></g></g><g><g><g><g><g transform="matrix(1,0,0,1,180.65478515625,24.404388427734375)"><path transform="matrix(0.0105,0,0,-0.0105,0,0)" d="M571 143C571 153 562 153 559 153C549 153 549 150 544 135C524 67 491 11 442 11C425 11 418 21 418 44C418 69 427 93 436 115C455 168 497 278 497 335C497 402 454 442 382 442C292 442 243 378 226 355C221 411 180 442 134 442C88 442 69 403 59 385C43 351 29 292 29 288C29 278 41 278 41 278C51 278 52 279 58 301C75 372 95 420 131 420C151 420 162 407 162 374C162 353 159 342 146 290L88 59C85 44 79 21 79 16C79 -2 93 -11 108 -11C120 -11 138 -3 145 17C146 19 158 66 164 91L186 181C192 203 198 225 203 248L216 298C231 329 284 420 379 420C424 420 433 383 433 350C433 288 384 160 368 117C359 94 358 82 358 71C358 24 393 -11 440 -11C534 -11 571 135 571 143Z" stroke="rgb(25,164,0)" stroke-opacity="1" stroke-width="8" fill="rgb(25,164,0)" fill-opacity="1"></path></g></g></g></g></g><g><g transform="matrix(1,0,0,1,192.3455810546875,21.761520385742188)"><path transform="matrix(0.015,0,0,-0.015,0,0)" d="M722 347C722 358 713 367 702 367L76 367C65 367 56 358 56 347C56 336 65 327 76 327L702 327C713 327 722 336 722 347ZM722 153C722 164 713 173 702 173L76 173C65 173 56 164 56 153C56 142 65 133 76 133L702 133C713 133 722 142 722 153Z" stroke="rgb(25,164,0)" stroke-opacity="1" stroke-width="8" fill="rgb(25,164,0)" fill-opacity="1"></path></g></g><g><g transform="matrix(1,0,0,1,208.51007080078125,21.761520385742188)"><path transform="matrix(0.015,0,0,-0.015,0,0)" d="M256 -230C256 -219 247 -210 236 -210L154 -210L154 710L236 710C247 710 256 719 256 730C256 741 247 750 236 750L114 750L114 -250L236 -250C247 -250 256 -241 256 -230Z" stroke="rgb(25,164,0)" stroke-opacity="1" stroke-width="8" fill="rgb(25,164,0)" fill-opacity="1"></path></g></g><g><g transform="matrix(1,0,0,1,212.68603515625,21.761520385742188)"><path transform="matrix(0.015,0,0,-0.015,0,0)" d="M498 143C498 153 489 153 486 153C476 153 475 149 472 135C455 70 437 11 396 11C369 11 366 37 366 57C366 79 368 87 379 131L401 221L437 361C444 389 444 391 444 395C444 412 432 422 415 422C391 422 376 400 373 378C355 415 326 442 281 442C164 442 40 295 40 149C40 55 95 -11 173 -11C193 -11 243 -7 303 64C311 22 346 -11 394 -11C429 -11 452 12 468 44C485 80 498 143 498 143ZM361 332C361 326 359 320 358 315L308 119C303 101 303 99 288 82C244 27 203 11 175 11C125 11 111 66 111 105C111 155 143 278 166 324C197 383 242 420 282 420C347 420 361 338 361 332Z" stroke="rgb(25,164,0)" stroke-opacity="1" stroke-width="8" fill="rgb(25,164,0)" fill-opacity="1"></path></g></g><g><g><g><g><g transform="matrix(1,0,0,1,221.07513427734375,24.404388427734375)"><path transform="matrix(0.0105,0,0,-0.0105,0,0)" d="M571 143C571 153 562 153 559 153C549 153 549 150 544 135C524 67 491 11 442 11C425 11 418 21 418 44C418 69 427 93 436 115C455 168 497 278 497 335C497 402 454 442 382 442C292 442 243 378 226 355C221 411 180 442 134 442C88 442 69 403 59 385C43 351 29 292 29 288C29 278 41 278 41 278C51 278 52 279 58 301C75 372 95 420 131 420C151 420 162 407 162 374C162 353 159 342 146 290L88 59C85 44 79 21 79 16C79 -2 93 -11 108 -11C120 -11 138 -3 145 17C146 19 158 66 164 91L186 181C192 203 198 225 203 248L216 298C231 329 284 420 379 420C424 420 433 383 433 350C433 288 384 160 368 117C359 94 358 82 358 71C358 24 393 -11 440 -11C534 -11 571 135 571 143Z" stroke="rgb(25,164,0)" stroke-opacity="1" stroke-width="8" fill="rgb(25,164,0)" fill-opacity="1"></path></g></g></g></g></g><g><g transform="matrix(1,0,0,1,228.2738037109375,21.761520385742188)"><path transform="matrix(0.015,0,0,-0.015,0,0)" d="M203 1C203 67 178 106 139 106C106 106 86 81 86 53C86 26 106 0 139 0C151 0 164 4 174 13C177 15 179 16 179 16C179 16 181 15 181 1C181 -73 146 -133 113 -166C102 -177 102 -179 102 -182C102 -189 107 -193 112 -193C123 -193 203 -116 203 1Z" stroke="rgb(25,164,0)" stroke-opacity="1" stroke-width="8" fill="rgb(25,164,0)" fill-opacity="1"></path></g></g><g><g transform="matrix(1,0,0,1,235.444580078125,21.761520385742188)"><path transform="matrix(0.015,0,0,-0.015,0,0)" d="M415 282C415 373 362 442 282 442C236 442 195 413 165 382L239 683C239 683 239 694 226 694C203 694 130 686 104 684C96 683 85 682 85 664C85 652 94 652 109 652C157 652 159 645 159 635C159 628 150 594 145 573L63 247C51 197 47 181 47 146C47 51 100 -11 174 -11C292 -11 415 138 415 282ZM343 326C343 267 310 152 292 114C259 47 213 11 174 11C140 11 107 38 107 112C107 131 107 150 123 213L145 305C151 327 151 329 160 340C209 405 254 420 280 420C316 420 343 390 343 326Z" stroke="rgb(25,164,0)" stroke-opacity="1" stroke-width="8" fill="rgb(25,164,0)" fill-opacity="1"></path></g></g><g><g><g><g><g transform="matrix(1,0,0,1,242.3270263671875,24.404388427734375)"><path transform="matrix(0.0105,0,0,-0.0105,0,0)" d="M571 143C571 153 562 153 559 153C549 153 549 150 544 135C524 67 491 11 442 11C425 11 418 21 418 44C418 69 427 93 436 115C455 168 497 278 497 335C497 402 454 442 382 442C292 442 243 378 226 355C221 411 180 442 134 442C88 442 69 403 59 385C43 351 29 292 29 288C29 278 41 278 41 278C51 278 52 279 58 301C75 372 95 420 131 420C151 420 162 407 162 374C162 353 159 342 146 290L88 59C85 44 79 21 79 16C79 -2 93 -11 108 -11C120 -11 138 -3 145 17C146 19 158 66 164 91L186 181C192 203 198 225 203 248L216 298C231 329 284 420 379 420C424 420 433 383 433 350C433 288 384 160 368 117C359 94 358 82 358 71C358 24 393 -11 440 -11C534 -11 571 135 571 143Z" stroke="rgb(25,164,0)" stroke-opacity="1" stroke-width="8" fill="rgb(25,164,0)" fill-opacity="1"></path></g></g></g></g></g><g><g transform="matrix(1,0,0,1,249.52569580078125,21.761520385742188)"><path transform="matrix(0.015,0,0,-0.015,0,0)" d="M164 -250L164 750L42 750C31 750 22 741 22 730C22 719 31 710 42 710L124 710L124 -210L42 -210C31 -210 22 -219 22 -230C22 -241 31 -250 42 -250Z" stroke="rgb(25,164,0)" stroke-opacity="1" stroke-width="8" fill="rgb(25,164,0)" fill-opacity="1"></path></g></g></g></g></svg>
</svg>
