<?xml version="1.0" encoding="utf-8"?>
<!-- Generator: Adobe Illustrator 27.4.0, SVG Export Plug-In . SVG Version: 6.00 Build 0)  -->
<svg version="1.1" id="Layer_1" xmlns="http://www.w3.org/2000/svg" xmlns:xlink="http://www.w3.org/1999/xlink" x="0px" y="0px"
	 viewBox="0 0 1182.5 562.3" style="enable-background:new 0 0 1182.5 562.3;" xml:space="preserve">
<style type="text/css">
	.st0{fill:none;}
	.st1{fill-rule:evenodd;clip-rule:evenodd;fill-opacity:0;}
	.st2{fill-rule:evenodd;clip-rule:evenodd;fill:#93C47D;}
	.st3{fill:none;stroke:#000000;stroke-width:8;stroke-linejoin:round;stroke-miterlimit:10;}
	.st4{fill-rule:evenodd;clip-rule:evenodd;stroke:#000000;stroke-width:8;stroke-miterlimit:10;}
</style>
<rect class="st0" width="1182.5" height="562.3"/>
<path class="st1" d="M0,0h1182.5v562.3H0V0z"/>
<path class="st2" d="M711.4,490.3L711.4,490.3c0,26.5-21.5,48-48,48l0,0c-12.7,0-24.9-5.1-33.9-14.1c-9-9-14.1-21.2-14.1-33.9l0,0
	c0-26.5,21.5-48,48-48l0,0C689.9,442.3,711.4,463.8,711.4,490.3z"/>
<path class="st3" d="M711.4,490.3L711.4,490.3c0,26.5-21.5,48-48,48l0,0c-12.7,0-24.9-5.1-33.9-14.1c-9-9-14.1-21.2-14.1-33.9l0,0
	c0-26.5,21.5-48,48-48l0,0C689.9,442.3,711.4,463.8,711.4,490.3z"/>
<path class="st2" d="M567.4,490.3L567.4,490.3c0,26.5-21.5,48-48,48l0,0c-12.7,0-24.9-5.1-33.9-14.1c-9-9-14.1-21.2-14.1-33.9l0,0
	c0-26.5,21.5-48,48-48l0,0C545.9,442.3,567.4,463.8,567.4,490.3z"/>
<path class="st3" d="M567.4,490.3L567.4,490.3c0,26.5-21.5,48-48,48l0,0c-12.7,0-24.9-5.1-33.9-14.1c-9-9-14.1-21.2-14.1-33.9l0,0
	c0-26.5,21.5-48,48-48l0,0C545.9,442.3,567.4,463.8,567.4,490.3z"/>
<path class="st2" d="M423.4,490.3L423.4,490.3c0,26.5-21.5,48-48,48l0,0c-12.7,0-24.9-5.1-33.9-14.1c-9-9-14.1-21.2-14.1-33.9l0,0
	c0-26.5,21.5-48,48-48l0,0C401.9,442.3,423.4,463.8,423.4,490.3z"/>
<path class="st3" d="M423.4,490.3L423.4,490.3c0,26.5-21.5,48-48,48l0,0c-12.7,0-24.9-5.1-33.9-14.1c-9-9-14.1-21.2-14.1-33.9l0,0
	c0-26.5,21.5-48,48-48l0,0C401.9,442.3,423.4,463.8,423.4,490.3z"/>
<path class="st2" d="M279.4,490.3L279.4,490.3c0,26.5-21.5,48-48,48l0,0c-12.7,0-24.9-5.1-33.9-14.1c-9-9-14.1-21.2-14.1-33.9l0,0
	c0-26.5,21.5-48,48-48l0,0C257.9,442.3,279.4,463.8,279.4,490.3z"/>
<path class="st3" d="M279.4,490.3L279.4,490.3c0,26.5-21.5,48-48,48l0,0c-12.7,0-24.9-5.1-33.9-14.1c-9-9-14.1-21.2-14.1-33.9l0,0
	c0-26.5,21.5-48,48-48l0,0C257.9,442.3,279.4,463.8,279.4,490.3z"/>
<path class="st2" d="M135.4,490.3L135.4,490.3c0,26.5-21.5,48-48,48l0,0c-12.7,0-24.9-5.1-33.9-14.1c-9-9-14.1-21.2-14.1-33.9l0,0
	c0-26.5,21.5-48,48-48l0,0C113.9,442.3,135.4,463.8,135.4,490.3z"/>
<path class="st3" d="M135.4,490.3L135.4,490.3c0,26.5-21.5,48-48,48l0,0c-12.7,0-24.9-5.1-33.9-14.1c-9-9-14.1-21.2-14.1-33.9l0,0
	c0-26.5,21.5-48,48-48l0,0C113.9,442.3,135.4,463.8,135.4,490.3z"/>
<path class="st2" d="M1071.4,346.3L1071.4,346.3c0,26.5-21.5,48-48,48l0,0c-12.7,0-24.9-5.1-33.9-14.1c-9-9-14.1-21.2-14.1-33.9l0,0
	c0-26.5,21.5-48,48-48l0,0C1049.9,298.3,1071.4,319.8,1071.4,346.3z"/>
<path class="st3" d="M1071.4,346.3L1071.4,346.3c0,26.5-21.5,48-48,48l0,0c-12.7,0-24.9-5.1-33.9-14.1c-9-9-14.1-21.2-14.1-33.9l0,0
	c0-26.5,21.5-48,48-48l0,0C1049.9,298.3,1071.4,319.8,1071.4,346.3z"/>
<path class="st2" d="M783.4,346.3L783.4,346.3c0,26.5-21.5,48-48,48l0,0c-12.7,0-24.9-5.1-33.9-14.1s-14.1-21.2-14.1-33.9l0,0
	c0-26.5,21.5-48,48-48l0,0C761.9,298.3,783.4,319.8,783.4,346.3z"/>
<path class="st3" d="M783.4,346.3L783.4,346.3c0,26.5-21.5,48-48,48l0,0c-12.7,0-24.9-5.1-33.9-14.1s-14.1-21.2-14.1-33.9l0,0
	c0-26.5,21.5-48,48-48l0,0C761.9,298.3,783.4,319.8,783.4,346.3z"/>
<path class="st2" d="M495.4,346.3L495.4,346.3c0,26.5-21.5,48-48,48l0,0c-12.7,0-24.9-5.1-33.9-14.1s-14.1-21.2-14.1-33.9l0,0
	c0-26.5,21.5-48,48-48l0,0C473.9,298.3,495.4,319.8,495.4,346.3z"/>
<path class="st3" d="M495.4,346.3L495.4,346.3c0,26.5-21.5,48-48,48l0,0c-12.7,0-24.9-5.1-33.9-14.1s-14.1-21.2-14.1-33.9l0,0
	c0-26.5,21.5-48,48-48l0,0C473.9,298.3,495.4,319.8,495.4,346.3z"/>
<path class="st2" d="M207.4,346.3L207.4,346.3c0,26.5-21.5,48-48,48l0,0c-12.7,0-24.9-5.1-33.9-14.1s-14.1-21.2-14.1-33.9l0,0
	c0-26.5,21.5-48,48-48l0,0C185.9,298.3,207.4,319.8,207.4,346.3z"/>
<path class="st3" d="M207.4,346.3L207.4,346.3c0,26.5-21.5,48-48,48l0,0c-12.7,0-24.9-5.1-33.9-14.1s-14.1-21.2-14.1-33.9l0,0
	c0-26.5,21.5-48,48-48l0,0C185.9,298.3,207.4,319.8,207.4,346.3z"/>
<path class="st2" d="M927.4,202.3L927.4,202.3c0,26.5-21.5,48-48,48l0,0c-12.7,0-24.9-5.1-33.9-14.1c-9-9-14.1-21.2-14.1-33.9l0,0
	c0-26.5,21.5-48,48-48l0,0C905.9,154.3,927.4,175.8,927.4,202.3z"/>
<path class="st3" d="M927.4,202.3L927.4,202.3c0,26.5-21.5,48-48,48l0,0c-12.7,0-24.9-5.1-33.9-14.1c-9-9-14.1-21.2-14.1-33.9l0,0
	c0-26.5,21.5-48,48-48l0,0C905.9,154.3,927.4,175.8,927.4,202.3z"/>
<path class="st2" d="M351.4,202.3L351.4,202.3c0,26.5-21.5,48-48,48l0,0c-12.7,0-24.9-5.1-33.9-14.1c-9-9-14.1-21.2-14.1-33.9l0,0
	c0-26.5,21.5-48,48-48l0,0C329.9,154.3,351.4,175.8,351.4,202.3z"/>
<path class="st3" d="M351.4,202.3L351.4,202.3c0,26.5-21.5,48-48,48l0,0c-12.7,0-24.9-5.1-33.9-14.1c-9-9-14.1-21.2-14.1-33.9l0,0
	c0-26.5,21.5-48,48-48l0,0C329.9,154.3,351.4,175.8,351.4,202.3z"/>
<path class="st2" d="M639.4,58.3L639.4,58.3c0,26.5-21.5,48-48,48l0,0c-12.7,0-24.9-5.1-33.9-14.1s-14.1-21.2-14.1-33.9l0,0
	c0-26.5,21.5-48,48-48l0,0C617.9,10.3,639.4,31.8,639.4,58.3z"/>
<path class="st3" d="M639.4,58.3L639.4,58.3c0,26.5-21.5,48-48,48l0,0c-12.7,0-24.9-5.1-33.9-14.1s-14.1-21.2-14.1-33.9l0,0
	c0-26.5,21.5-48,48-48l0,0C617.9,10.3,639.4,31.8,639.4,58.3z"/>
<path class="st1" d="M547,73.8l-209.6,94.6"/>
<path class="st3" d="M547,73.8l-165.9,74.9"/>
<path class="st4" d="M375.7,136.6l-27.7,27l38.5-2.9L375.7,136.6z"/>
<path class="st1" d="M269.5,236.3l-76.1,76.1"/>
<path class="st3" d="M269.5,236.3l-42.2,42.2"/>
<path class="st4" d="M218,269.1l-16.3,35l35-16.3L218,269.1z"/>
<path class="st1" d="M125.5,380.3l-38,62"/>
<path class="st3" d="M125.5,380.3l-13,21.1"/>
<path class="st4" d="M101.3,394.5l-7.7,37.9l30.2-24L101.3,394.5z"/>
<path class="st1" d="M193.4,380.3l38,62"/>
<path class="st3" d="M193.4,380.3l13,21.1"/>
<path class="st4" d="M195.1,408.3l30.2,24l-7.7-37.9L195.1,408.3z"/>
<path class="st1" d="M413.5,380.3l-38,62"/>
<path class="st3" d="M413.5,380.3l-13,21.1"/>
<path class="st4" d="M389.3,394.5l-7.7,37.9l30.2-24L389.3,394.5z"/>
<path class="st1" d="M481.4,380.3l38,62"/>
<path class="st3" d="M481.4,380.3l13,21.1"/>
<path class="st4" d="M483.1,408.3l30.2,24l-7.7-37.9L483.1,408.3z"/>
<path class="st1" d="M701.5,380.3l-38,62"/>
<path class="st3" d="M701.5,380.3l-13,21.1"/>
<path class="st4" d="M677.3,394.5l-7.7,37.9l30.2-24L677.3,394.5z"/>
<path class="st1" d="M845.5,236.3l-76.1,76.1"/>
<path class="st3" d="M845.5,236.3l-42.2,42.2"/>
<path class="st4" d="M794,269.1l-16.3,35l35-16.3L794,269.1z"/>
<path class="st1" d="M913.4,236.3l76.1,76.1"/>
<path class="st3" d="M913.4,236.3l42.2,42.2"/>
<path class="st4" d="M946.2,287.8l35,16.3l-16.3-35L946.2,287.8z"/>
<path class="st1" d="M1057.4,380.3l38,62"/>
<path class="st1" d="M638.1,74.4l207.3,94"/>
<path class="st3" d="M638.1,74.4l163.6,74.2"/>
<path class="st4" d="M796.3,160.6l38.5,3l-27.6-27L796.3,160.6z"/>
<path class="st1" d="M337.4,236.3l76.1,76.1"/>
<path class="st3" d="M337.4,236.3l42.2,42.2"/>
<path class="st4" d="M370.2,287.8l35,16.3l-16.3-35L370.2,287.8z"/>
</svg>
