<svg xmlns="http://www.w3.org/2000/svg" xmlns:xlink="http://www.w3.org/1999/xlink" x="0" y="0" width="335" height="157.95201110839844" style="width: 335px;height:157.95201110839844px;background: transparent;fill: none;">
        
        
        <svg xmlns="http://www.w3.org/2000/svg" class="role-diagram-draw-area" style="overflow: visible;"><g class="shapes-region" style="stroke: black; fill: none;"><g class="composite-shape axis2d" style="stroke-width: 1; stroke: rgb(0, 0, 0); stroke-opacity: 1;"><path class="real" d=" M96.67,99.56 L213.57,99.56 M108.36,18.48 L108.36,108.57"/><path d=" M206.57,94.56 L213.57,99.56 L206.57,104.56"/><path d=" M103.36,25.48 L108.36,18.48 L113.36,25.48"/></g><g class="composite-shape"><path class="real" d=" M125.13,85.43 C131.61,82.37 137.57,74.75 143.75,66.83 C151.74,56.59 159.38,46.83 168.25,46.83 C177.11,46.83 184.76,56.59 192.75,66.83 C193.54,67.85 194.34,68.87 195.13,69.87" style="stroke-width: 1; stroke: rgb(0, 163, 211); stroke-opacity: 1;"/></g><g class="arrow-line"><path class="connection real" stroke-dasharray="" d="  M125.34,97.42 L125.34,102.56" style="stroke: rgb(0, 0, 0); stroke-width: 1; fill: none; fill-opacity: 1;"/></g><g class="arrow-line"><path class="connection real" stroke-dasharray="" d="  M195.34,97.68 L195.34,102.82" style="stroke: rgb(0, 0, 0); stroke-width: 1; fill: none; fill-opacity: 1;"/></g><g class="arrow-line"><path class="connection real" stroke-dasharray="" d="  M167.92,97.56 L167.92,102.7" style="stroke: rgb(0, 0, 0); stroke-width: 1; fill: none; fill-opacity: 1;"/></g><g class="arrow-line"><path class="connection real" stroke-dasharray="" d="  M105.36,46.06 L111.36,46.06" style="stroke: rgb(0, 0, 0); stroke-width: 1; fill: none; fill-opacity: 1;"/></g><g class="composite-shape"><path class="real" d=" M200.05,86.79 Q207.05,86.79 207.05,79.79 L207.05,76.89 Q207.05,66.89 214.05,66.89 Q207.05,66.89 207.05,56.89 M207.05,59.89 L207.05,53.99 Q207.05,46.99 200.05,46.99" style="stroke-width: 1; stroke: rgb(0, 0, 0); fill: none; fill-opacity: 1;"/></g><g/></g><g/><g/><g/></svg>
        <svg xmlns="http://www.w3.org/2000/svg" xmlns:xlink="http://www.w3.org/1999/xlink" width="793.9918212890625" height="156.76153564453125" style="width:793.9918212890625px;height:156.76153564453125px;font-family:LatinModern-Math, LatinModern, Asana-Math, Asana;background:transparent;"><g><g><g><g transform="matrix(1,0,0,1,121.36349487304688,111.92149353027344)"><path transform="matrix(0.015,0,0,-0.015,0,0)" d="M498 143C498 153 489 153 486 153C476 153 475 149 472 135C455 70 437 11 396 11C369 11 366 37 366 57C366 79 368 87 379 131L401 221L437 361C444 389 444 391 444 395C444 412 432 422 415 422C391 422 376 400 373 378C355 415 326 442 281 442C164 442 40 295 40 149C40 55 95 -11 173 -11C193 -11 243 -7 303 64C311 22 346 -11 394 -11C429 -11 452 12 468 44C485 80 498 143 498 143ZM361 332C361 326 359 320 358 315L308 119C303 101 303 99 288 82C244 27 203 11 175 11C125 11 111 66 111 105C111 155 143 278 166 324C197 383 242 420 282 420C347 420 361 338 361 332Z" stroke="rgb(0,0,0)" stroke-opacity="1" stroke-width="8" fill="rgb(0,0,0)" fill-opacity="1"/></g></g></g></g><g><g><g><g transform="matrix(1,0,0,1,190.65289306640625,116.15327453613281)"><path transform="matrix(0.015,0,0,-0.015,0,0)" d="M415 282C415 373 362 442 282 442C236 442 195 413 165 382L239 683C239 683 239 694 226 694C203 694 130 686 104 684C96 683 85 682 85 664C85 652 94 652 109 652C157 652 159 645 159 635C159 628 150 594 145 573L63 247C51 197 47 181 47 146C47 51 100 -11 174 -11C292 -11 415 138 415 282ZM343 326C343 267 310 152 292 114C259 47 213 11 174 11C140 11 107 38 107 112C107 131 107 150 123 213L145 305C151 327 151 329 160 340C209 405 254 420 280 420C316 420 343 390 343 326Z" stroke="rgb(0,0,0)" stroke-opacity="1" stroke-width="8" fill="rgb(0,0,0)" fill-opacity="1"/></g></g></g></g><g transform="matrix(0.9110438156205595,-0.41230955121065527,0.41230955121065527,0.9110438156205595,-35.76140906457104,68.84501130985333)"><g><g><g transform="matrix(1,0,0,1,106.42208862304688,121.82197570800781)"><path transform="matrix(0.015,0,0,-0.015,0,0)" d="" stroke="rgb(0,0,0)" stroke-opacity="1" stroke-width="8" fill="rgb(0,0,0)" fill-opacity="1"/></g></g><g><g transform="matrix(1,0,0,1,111.40719604492188,121.82197570800781)"><path transform="matrix(0.015,0,0,-0.015,0,0)" d="M500 20L500 664C500 675 491 684 480 684L76 684C65 684 56 675 56 664C56 653 65 644 76 644L460 644L460 362L76 362C65 362 56 353 56 342C56 331 65 322 76 322L460 322L460 40L76 40C65 40 56 31 56 20C56 9 65 0 76 0L480 0C491 0 500 9 500 20Z" stroke="rgb(0,0,0)" stroke-opacity="1" stroke-width="8" fill="rgb(0,0,0)" fill-opacity="1"/></g></g><g><g transform="matrix(1,0,0,1,119.74981689453125,121.82197570800781)"><path transform="matrix(0.015,0,0,-0.015,0,0)" d="M527 376C527 428 468 442 434 442C376 442 341 389 329 366C304 432 250 442 221 442C117 442 60 313 60 288C60 278 72 278 72 278C80 278 83 280 85 289C119 395 185 420 219 420C238 420 273 411 273 353C273 322 256 255 219 115C203 53 168 11 124 11C118 11 95 11 74 24C99 29 121 50 121 78C121 105 99 113 84 113C54 113 29 87 29 55C29 9 79 -11 123 -11C189 -11 225 59 228 65C240 28 276 -11 336 -11C439 -11 496 118 496 143C496 153 487 153 484 153C475 153 473 149 471 142C438 35 370 11 338 11C299 11 283 43 283 77C283 99 289 121 300 165L334 302C340 328 363 420 433 420C438 420 462 420 483 407C455 402 435 377 435 353C435 337 446 318 473 318C495 318 527 336 527 376Z" stroke="rgb(0,0,0)" stroke-opacity="1" stroke-width="8" fill="rgb(0,0,0)" fill-opacity="1"/></g></g><g><g><g><g><g transform="matrix(1,0,0,1,128.78070068359375,123.86961364746094)"><path transform="matrix(0.0105,0,0,-0.0105,0,0)" d="M571 143C571 153 562 153 559 153C549 153 549 150 544 135C524 67 491 11 442 11C425 11 418 21 418 44C418 69 427 93 436 115C455 168 497 278 497 335C497 402 454 442 382 442C292 442 243 378 226 355C221 411 180 442 134 442C88 442 69 403 59 385C43 351 29 292 29 288C29 278 41 278 41 278C51 278 52 279 58 301C75 372 95 420 131 420C151 420 162 407 162 374C162 353 159 342 146 290L88 59C85 44 79 21 79 16C79 -2 93 -11 108 -11C120 -11 138 -3 145 17C146 19 158 66 164 91L186 181C192 203 198 225 203 248L216 298C231 329 284 420 379 420C424 420 433 383 433 350C433 288 384 160 368 117C359 94 358 82 358 71C358 24 393 -11 440 -11C534 -11 571 135 571 143Z" stroke="rgb(0,0,0)" stroke-opacity="1" stroke-width="8" fill="rgb(0,0,0)" fill-opacity="1"/></g></g><g><g><g><g><g transform="matrix(1,0,0,1,135.3934326171875,126.30927429199218)"><path transform="matrix(0.00735,0,0,-0.00735,0,0)" d="M508 379C508 409 485 442 440 442C412 442 366 434 294 354C260 316 221 276 183 261L287 683C287 683 287 694 274 694C251 694 178 686 152 684C144 683 133 682 133 664C133 652 142 652 157 652C205 652 207 645 207 635L204 615L59 39C55 25 55 23 55 17C55 -6 75 -11 84 -11C97 -11 112 -2 118 10C123 19 168 204 174 229C208 226 290 210 290 144C290 137 290 133 287 123C285 111 283 99 283 88C283 29 323 -11 375 -11C405 -11 432 5 454 42C479 86 490 143 490 143C490 153 481 153 478 153C468 153 467 149 464 135C444 62 421 11 377 11C358 11 345 22 345 58C345 75 349 98 353 114C357 131 357 135 357 145C357 210 294 239 209 250C240 268 272 300 295 324C343 377 389 420 438 420C444 420 445 420 447 419C459 417 460 417 468 411C470 410 470 409 472 407C424 404 415 365 415 353C415 337 426 318 453 318C479 318 508 340 508 379Z" stroke="rgb(0,0,0)" stroke-opacity="1" stroke-width="8" fill="rgb(0,0,0)" fill-opacity="1"/></g></g></g></g></g></g></g></g><g><g><g transform="matrix(1,0,0,1,143.73605346679688,121.82197570800781)"><path transform="matrix(0.015,0,0,-0.015,0,0)" d="M943 250C943 256 939 261 934 263C877 282 833 322 797 367C769 403 748 447 739 494C737 503 729 510 719 510C708 510 699 501 699 490C699 489 700 487 700 486C710 433 733 384 766 342C788 314 814 290 844 270L78 270C67 270 58 261 58 250C58 239 67 230 78 230L844 230C814 210 788 186 766 158C733 116 710 67 700 14C700 13 699 11 699 10C699 -1 708 -10 719 -10C729 -10 737 -3 739 6C748 53 769 97 797 133C833 178 877 218 934 237C939 239 943 244 943 250Z" stroke="rgb(0,0,0)" stroke-opacity="1" stroke-width="8" fill="rgb(0,0,0)" fill-opacity="1"/></g></g></g><g><g transform="matrix(1,0,0,1,161.73272705078125,121.82197570800781)"><path transform="matrix(0.015,0,0,-0.015,0,0)" d="M527 376C527 428 468 442 434 442C376 442 341 389 329 366C304 432 250 442 221 442C117 442 60 313 60 288C60 278 72 278 72 278C80 278 83 280 85 289C119 395 185 420 219 420C238 420 273 411 273 353C273 322 256 255 219 115C203 53 168 11 124 11C118 11 95 11 74 24C99 29 121 50 121 78C121 105 99 113 84 113C54 113 29 87 29 55C29 9 79 -11 123 -11C189 -11 225 59 228 65C240 28 276 -11 336 -11C439 -11 496 118 496 143C496 153 487 153 484 153C475 153 473 149 471 142C438 35 370 11 338 11C299 11 283 43 283 77C283 99 289 121 300 165L334 302C340 328 363 420 433 420C438 420 462 420 483 407C455 402 435 377 435 353C435 337 446 318 473 318C495 318 527 336 527 376Z" stroke="rgb(0,0,0)" stroke-opacity="1" stroke-width="8" fill="rgb(0,0,0)" fill-opacity="1"/></g></g><g><g><g><g><g transform="matrix(1,0,0,1,170.76358032226562,124.46482849121094)"><path transform="matrix(0.0105,0,0,-0.0105,0,0)" d="M460 320C460 400 455 480 420 554C374 650 292 666 250 666C190 666 117 640 76 547C44 478 39 400 39 320C39 245 43 155 84 79C127 -2 200 -22 249 -22C303 -22 379 -1 423 94C455 163 460 241 460 320ZM377 332C377 257 377 189 366 125C351 30 294 0 249 0C210 0 151 25 133 121C122 181 122 273 122 332C122 396 122 462 130 516C149 635 224 644 249 644C282 644 348 626 367 527C377 471 377 395 377 332Z" stroke="rgb(0,0,0)" stroke-opacity="1" stroke-width="8" fill="rgb(0,0,0)" fill-opacity="1"/></g></g></g></g></g></g></g><g><g><g><g transform="matrix(1,0,0,1,2.715789794921875,47.14434814453125)"><path transform="matrix(0.0105,0,0,-0.0105,0,0)" d="M1044 672C1044 683 1034 683 1017 683L885 683C859 683 858 683 846 664L481 94L403 660C400 683 398 683 372 683L235 683C216 683 205 683 205 664C205 652 214 652 234 652C247 652 265 651 277 650C293 648 299 645 299 634C299 630 298 627 295 615L168 106C158 66 141 34 60 31C55 31 42 30 42 12C42 3 48 0 56 0C88 0 123 3 156 3C190 3 226 0 259 0C264 0 277 0 277 20C277 31 266 31 259 31C202 32 191 52 191 75C191 82 192 87 195 98L331 643L332 643L418 23C420 11 421 0 433 0C444 0 450 11 455 18L859 651L860 651L717 78C707 39 705 31 626 31C609 31 598 31 598 12C598 0 610 0 613 0L737 3C778 3 821 0 862 0C868 0 881 0 881 20C881 31 872 31 853 31C816 31 788 31 788 49C788 53 788 55 793 73L926 606C935 642 937 652 1012 652C1035 652 1044 652 1044 672Z" stroke="rgb(0,0,0)" stroke-opacity="1" stroke-width="8" fill="rgb(0,0,0)" fill-opacity="1"/></g></g><g><g transform="matrix(1,0,0,1,15.001861572265625,47.14434814453125)"><path transform="matrix(0.0105,0,0,-0.0105,0,0)" d="M722 250C722 261 713 270 702 270L76 270C65 270 56 261 56 250C56 239 65 230 76 230L702 230C713 230 722 239 722 250Z" stroke="rgb(0,0,0)" stroke-opacity="1" stroke-width="8" fill="rgb(0,0,0)" fill-opacity="1"/></g></g><g><g><g><g><g transform="matrix(1,0,0,1,26.832244873046875,39.54576110839844)"><path transform="matrix(0.0105,0,0,-0.0105,0,0)" d="M419 0L419 31L387 31C297 31 294 42 294 79L294 640C294 664 294 666 271 666C209 602 121 602 89 602L89 571C109 571 168 571 220 597L220 79C220 43 217 31 127 31L95 31L95 0C130 3 217 3 257 3C297 3 384 3 419 0Z" stroke="rgb(0,0,0)" stroke-opacity="1" stroke-width="8" fill="rgb(0,0,0)" fill-opacity="1"/></g></g></g></g><g><g><g><g transform="matrix(1,0,0,1,26.3114013671875,55.73808288574219)"><path transform="matrix(0.0105,0,0,-0.0105,0,0)" d="M571 143C571 153 562 153 559 153C549 153 549 150 544 135C524 67 491 11 442 11C425 11 418 21 418 44C418 69 427 93 436 115C455 168 497 278 497 335C497 402 454 442 382 442C292 442 243 378 226 355C221 411 180 442 134 442C88 442 69 403 59 385C43 351 29 292 29 288C29 278 41 278 41 278C51 278 52 279 58 301C75 372 95 420 131 420C151 420 162 407 162 374C162 353 159 342 146 290L88 59C85 44 79 21 79 16C79 -2 93 -11 108 -11C120 -11 138 -3 145 17C146 19 158 66 164 91L186 181C192 203 198 225 203 248L216 298C231 329 284 420 379 420C424 420 433 383 433 350C433 288 384 160 368 117C359 94 358 82 358 71C358 24 393 -11 440 -11C534 -11 571 135 571 143Z" stroke="rgb(0,0,0)" stroke-opacity="1" stroke-width="8" fill="rgb(0,0,0)" fill-opacity="1"/></g></g></g></g><line style="fill:none;stroke-width:0.595238px;stroke:rgb(0, 0, 0);" x1="26.3114013671875" y1="44.7358478307724" x2="32.617204666137695" y2="44.7358478307724"/></g><g><g transform="matrix(1,0,0,1,36.802459716796875,47.14434814453125)"><path transform="matrix(0.0105,0,0,-0.0105,0,0)" d="M689 -9L141 250L689 509C713 520 696 556 671 545L90 270C73 262 73 238 90 230L671 -45C696 -56 713 -20 689 -9Z" stroke="rgb(0,0,0)" stroke-opacity="1" stroke-width="8" fill="rgb(0,0,0)" fill-opacity="1"/></g></g><g><g transform="matrix(1,0,0,1,48.121307373046875,47.14434814453125)"><path transform="matrix(0.0105,0,0,-0.0105,0,0)" d="M552 636C552 682 506 705 465 705C431 705 368 687 338 588C332 567 329 557 305 431L236 431C217 431 206 431 206 412C206 400 215 400 234 400L300 400L225 5C207 -92 190 -183 138 -183C134 -183 109 -183 90 -165C136 -162 145 -126 145 -111C145 -88 127 -76 108 -76C82 -76 53 -98 53 -136C53 -181 97 -205 138 -205C193 -205 233 -146 251 -108C283 -45 306 76 307 83L367 400L453 400C473 400 483 400 483 420C483 431 473 431 456 431L373 431C384 489 383 487 394 545C398 566 412 637 418 649C427 668 444 683 465 683C469 683 495 683 514 665C470 661 460 626 460 611C460 588 478 576 497 576C523 576 552 598 552 636Z" stroke="rgb(0,0,0)" stroke-opacity="1" stroke-width="8" fill="rgb(0,0,0)" fill-opacity="1"/></g></g><g><g transform="matrix(1,0,0,1,53.273834228515625,47.73957824707031)"><path transform="matrix(0.0105,0,0,-0.0105,0,0)" d="M332 -238C332 -235 330 -232 328 -230C224 -152 155 48 155 208L155 292C155 452 224 652 328 730C330 732 332 735 332 738C332 743 327 748 322 748C320 748 318 747 316 746C206 663 101 463 101 292L101 208C101 37 206 -163 316 -246C318 -247 320 -248 322 -248C327 -248 332 -243 332 -238Z" stroke="rgb(0,0,0)" stroke-opacity="1" stroke-width="8" fill="rgb(0,0,0)" fill-opacity="1"/></g></g><g><g transform="matrix(1,0,0,1,57.3660888671875,47.14434814453125)"><path transform="matrix(0.0105,0,0,-0.0105,0,0)" d="M527 376C527 428 468 442 434 442C376 442 341 389 329 366C304 432 250 442 221 442C117 442 60 313 60 288C60 278 72 278 72 278C80 278 83 280 85 289C119 395 185 420 219 420C238 420 273 411 273 353C273 322 256 255 219 115C203 53 168 11 124 11C118 11 95 11 74 24C99 29 121 50 121 78C121 105 99 113 84 113C54 113 29 87 29 55C29 9 79 -11 123 -11C189 -11 225 59 228 65C240 28 276 -11 336 -11C439 -11 496 118 496 143C496 153 487 153 484 153C475 153 473 149 471 142C438 35 370 11 338 11C299 11 283 43 283 77C283 99 289 121 300 165L334 302C340 328 363 420 433 420C438 420 462 420 483 407C455 402 435 377 435 353C435 337 446 318 473 318C495 318 527 336 527 376Z" stroke="rgb(0,0,0)" stroke-opacity="1" stroke-width="8" fill="rgb(0,0,0)" fill-opacity="1"/></g></g><g><g><g><g><g transform="matrix(1,0,0,1,63.681182861328125,49.58399353027344)"><path transform="matrix(0.00735,0,0,-0.00735,0,0)" d="M571 143C571 153 562 153 559 153C549 153 549 150 544 135C524 67 491 11 442 11C425 11 418 21 418 44C418 69 427 93 436 115C455 168 497 278 497 335C497 402 454 442 382 442C292 442 243 378 226 355C221 411 180 442 134 442C88 442 69 403 59 385C43 351 29 292 29 288C29 278 41 278 41 278C51 278 52 279 58 301C75 372 95 420 131 420C151 420 162 407 162 374C162 353 159 342 146 290L88 59C85 44 79 21 79 16C79 -2 93 -11 108 -11C120 -11 138 -3 145 17C146 19 158 66 164 91L186 181C192 203 198 225 203 248L216 298C231 329 284 420 379 420C424 420 433 383 433 350C433 288 384 160 368 117C359 94 358 82 358 71C358 24 393 -11 440 -11C534 -11 571 135 571 143Z" stroke="rgb(0,0,0)" stroke-opacity="1" stroke-width="8" fill="rgb(0,0,0)" fill-opacity="1"/></g></g></g></g></g><g><g transform="matrix(1,0,0,1,68.71279907226562,47.73957824707031)"><path transform="matrix(0.0105,0,0,-0.0105,0,0)" d="M288 208L288 292C288 463 183 663 73 746C71 747 69 748 67 748C62 748 57 743 57 738C57 735 59 732 61 730C165 652 234 452 234 292L234 208C234 48 165 -152 61 -230C59 -232 57 -235 57 -238C57 -243 62 -248 67 -248C69 -248 71 -247 73 -246C183 -163 288 37 288 208Z" stroke="rgb(0,0,0)" stroke-opacity="1" stroke-width="8" fill="rgb(0,0,0)" fill-opacity="1"/></g></g><g><g><g><g><g><g transform="matrix(1,0,0,1,74.897705078125,47.14434814453125)"><path transform="matrix(0.0105,0,0,-0.0105,0,0)" d="M943 250C943 256 939 261 934 263C877 282 833 322 797 367C769 403 748 447 739 494C737 503 729 510 719 510C708 510 699 501 699 490C699 489 700 487 700 486C710 433 733 384 766 342C788 314 814 290 844 270L78 270C67 270 58 261 58 250C58 239 67 230 78 230L844 230C814 210 788 186 766 158C733 116 710 67 700 14C700 13 699 11 699 10C699 -1 708 -10 719 -10C729 -10 737 -3 739 6C748 53 769 97 797 133C833 178 877 218 934 237C939 239 943 244 943 250Z" stroke="rgb(0,0,0)" stroke-opacity="1" stroke-width="8" fill="rgb(0,0,0)" fill-opacity="1"/></g></g></g></g></g><g><g/></g></g></g></g><g transform="matrix(0.912120116172273,0.4099230338415728,-0.4099230338415728,0.912120116172273,14.12914810618765,-22.863439508197942)"><g><g><g><g/></g><g><g transform="matrix(1,0,0,1,25.8231201171875,26.12730255126953)"><path transform="matrix(0.0105,0,0,-0.0105,0,0)" d="M360 128C360 181 330 211 318 223C285 255 246 263 204 271C148 282 81 295 81 353C81 388 107 429 193 429C303 429 308 339 310 308C311 299 322 299 322 299C335 299 335 304 335 323L335 424C335 441 335 448 324 448C319 448 317 448 304 436C301 432 291 423 287 420C249 448 208 448 193 448C71 448 33 381 33 325C33 290 49 262 76 240C108 214 136 208 208 194C230 190 312 174 312 102C312 51 277 11 199 11C115 11 79 68 60 153C57 166 56 170 46 170C33 170 33 163 33 145L33 13C33 -4 33 -11 44 -11C49 -11 50 -10 69 9C71 11 71 13 89 32C133 -10 178 -11 199 -11C314 -11 360 56 360 128ZM929 0L929 31C859 31 851 38 851 87L851 442L704 431L704 400C774 400 782 393 782 344L782 166C782 79 734 11 661 11C577 11 573 58 573 110L573 442L426 431L426 400C504 400 504 397 504 308L504 158C504 80 504 -11 656 -11C712 -11 756 17 785 79L785 -11ZM1471 216C1471 343 1374 442 1262 442C1184 442 1142 398 1122 376L1122 442L978 431L978 400C1049 400 1056 394 1056 350L1056 -118C1056 -163 1045 -163 978 -163L978 -194L1090 -191L1203 -194L1203 -163C1136 -163 1125 -163 1125 -118L1125 50L1125 59C1130 43 1172 -11 1248 -11C1367 -11 1471 87 1471 216ZM1388 216C1388 95 1318 11 1244 11C1204 11 1166 31 1139 72C1125 93 1125 94 1125 114L1125 337C1154 388 1203 417 1254 417C1327 417 1388 329 1388 216Z" stroke="rgb(0,0,0)" stroke-opacity="1" stroke-width="8" fill="rgb(0,0,0)" fill-opacity="1"/></g></g></g><g><g transform="matrix(1,0,0,1,43.736053466796875,25.632064819335938)"><path transform="matrix(0.0105,0,0,-0.0105,0,0)" d="M552 636C552 682 506 705 465 705C431 705 368 687 338 588C332 567 329 557 305 431L236 431C217 431 206 431 206 412C206 400 215 400 234 400L300 400L225 5C207 -92 190 -183 138 -183C134 -183 109 -183 90 -165C136 -162 145 -126 145 -111C145 -88 127 -76 108 -76C82 -76 53 -98 53 -136C53 -181 97 -205 138 -205C193 -205 233 -146 251 -108C283 -45 306 76 307 83L367 400L453 400C473 400 483 400 483 420C483 431 473 431 456 431L373 431C384 489 383 487 394 545C398 566 412 637 418 649C427 668 444 683 465 683C469 683 495 683 514 665C470 661 460 626 460 611C460 588 478 576 497 576C523 576 552 598 552 636Z" stroke="rgb(0,0,0)" stroke-opacity="1" stroke-width="8" fill="rgb(0,0,0)" fill-opacity="1"/></g></g><g><g transform="matrix(1,0,0,1,48.888580322265625,26.227310180664062)"><path transform="matrix(0.0105,0,0,-0.0105,0,0)" d="M332 -238C332 -235 330 -232 328 -230C224 -152 155 48 155 208L155 292C155 452 224 652 328 730C330 732 332 735 332 738C332 743 327 748 322 748C320 748 318 747 316 746C206 663 101 463 101 292L101 208C101 37 206 -163 316 -246C318 -247 320 -248 322 -248C327 -248 332 -243 332 -238Z" stroke="rgb(0,0,0)" stroke-opacity="1" stroke-width="8" fill="rgb(0,0,0)" fill-opacity="1"/></g></g><g><g transform="matrix(1,0,0,1,52.980865478515625,26.227310180664062)"><path transform="matrix(0.0105,0,0,-0.0105,0,0)" d="M256 -230C256 -219 247 -210 236 -210L154 -210L154 710L236 710C247 710 256 719 256 730C256 741 247 750 236 750L114 750L114 -250L236 -250C247 -250 256 -241 256 -230Z" stroke="rgb(0,0,0)" stroke-opacity="1" stroke-width="8" fill="rgb(0,0,0)" fill-opacity="1"/></g></g><g><g transform="matrix(1,0,0,1,55.9012451171875,25.632064819335938)"><path transform="matrix(0.0105,0,0,-0.0105,0,0)" d="M498 143C498 153 489 153 486 153C476 153 475 149 472 135C455 70 437 11 396 11C369 11 366 37 366 57C366 79 368 87 379 131L401 221L437 361C444 389 444 391 444 395C444 412 432 422 415 422C391 422 376 400 373 378C355 415 326 442 281 442C164 442 40 295 40 149C40 55 95 -11 173 -11C193 -11 243 -7 303 64C311 22 346 -11 394 -11C429 -11 452 12 468 44C485 80 498 143 498 143ZM361 332C361 326 359 320 358 315L308 119C303 101 303 99 288 82C244 27 203 11 175 11C125 11 111 66 111 105C111 155 143 278 166 324C197 383 242 420 282 420C347 420 361 338 361 332Z" stroke="rgb(0,0,0)" stroke-opacity="1" stroke-width="8" fill="rgb(0,0,0)" fill-opacity="1"/></g></g><g><g transform="matrix(1,0,0,1,61.462982177734375,25.632064819335938)"><path transform="matrix(0.0105,0,0,-0.0105,0,0)" d="M203 1C203 67 178 106 139 106C106 106 86 81 86 53C86 26 106 0 139 0C151 0 164 4 174 13C177 15 179 16 179 16C179 16 181 15 181 1C181 -73 146 -133 113 -166C102 -177 102 -179 102 -182C102 -189 107 -193 112 -193C123 -193 203 -116 203 1Z" stroke="rgb(0,0,0)" stroke-opacity="1" stroke-width="8" fill="rgb(0,0,0)" fill-opacity="1"/></g></g><g><g transform="matrix(1,0,0,1,66.47601318359375,25.632064819335938)"><path transform="matrix(0.0105,0,0,-0.0105,0,0)" d="M415 282C415 373 362 442 282 442C236 442 195 413 165 382L239 683C239 683 239 694 226 694C203 694 130 686 104 684C96 683 85 682 85 664C85 652 94 652 109 652C157 652 159 645 159 635C159 628 150 594 145 573L63 247C51 197 47 181 47 146C47 51 100 -11 174 -11C292 -11 415 138 415 282ZM343 326C343 267 310 152 292 114C259 47 213 11 174 11C140 11 107 38 107 112C107 131 107 150 123 213L145 305C151 327 151 329 160 340C209 405 254 420 280 420C316 420 343 390 343 326Z" stroke="rgb(0,0,0)" stroke-opacity="1" stroke-width="8" fill="rgb(0,0,0)" fill-opacity="1"/></g></g><g><g transform="matrix(1,0,0,1,70.98681640625,26.227310180664062)"><path transform="matrix(0.0105,0,0,-0.0105,0,0)" d="M164 -250L164 750L42 750C31 750 22 741 22 730C22 719 31 710 42 710L124 710L124 -210L42 -210C31 -210 22 -219 22 -230C22 -241 31 -250 42 -250Z" stroke="rgb(0,0,0)" stroke-opacity="1" stroke-width="8" fill="rgb(0,0,0)" fill-opacity="1"/></g></g><g><g transform="matrix(1,0,0,1,73.90719604492188,26.227310180664062)"><path transform="matrix(0.0105,0,0,-0.0105,0,0)" d="M288 208L288 292C288 463 183 663 73 746C71 747 69 748 67 748C62 748 57 743 57 738C57 735 59 732 61 730C165 652 234 452 234 292L234 208C234 48 165 -152 61 -230C59 -232 57 -235 57 -238C57 -243 62 -248 67 -248C69 -248 71 -247 73 -246C183 -163 288 37 288 208Z" stroke="rgb(0,0,0)" stroke-opacity="1" stroke-width="8" fill="rgb(0,0,0)" fill-opacity="1"/></g></g><g><g><g><g><g transform="matrix(1,0,0,1,77.99945068359375,15.255502319335937)"><path transform="matrix(0.00735,0,0,-0.00735,0,0)" d="M332 -238C332 -235 330 -232 328 -230C224 -152 155 48 155 208L155 292C155 452 224 652 328 730C330 732 332 735 332 738C332 743 327 748 322 748C320 748 318 747 316 746C206 663 101 463 101 292L101 208C101 37 206 -163 316 -246C318 -247 320 -248 322 -248C327 -248 332 -243 332 -238Z" stroke="rgb(0,0,0)" stroke-opacity="1" stroke-width="8" fill="rgb(0,0,0)" fill-opacity="1"/></g></g><g><g transform="matrix(1,0,0,1,80.86404418945312,15.255502319335937)"><path transform="matrix(0.00735,0,0,-0.00735,0,0)" d="M1009 652L1009 683C979 681 948 680 918 680L799 683L799 652C866 651 886 618 886 599C886 593 883 585 881 579L731 117L571 607C570 611 568 617 568 622C568 652 626 652 652 652L652 683C616 680 548 680 510 680L388 683L388 652C445 652 466 652 478 616L500 546L361 117L200 609C199 612 198 619 198 622C198 652 256 652 282 652L282 683C246 680 178 680 140 680L18 683L18 652C93 652 97 647 109 610L309 -3C312 -12 315 -22 328 -22C342 -22 344 -15 348 -2L513 506L679 -3C682 -12 685 -22 698 -22C712 -22 714 -15 718 -2L909 585C927 642 970 652 1009 652ZM1452 0L1452 58L1327 58L1327 678L1307 678C1248 617 1165 614 1117 612L1117 554C1150 555 1198 557 1248 578L1248 58L1123 58L1123 0Z" stroke="rgb(0,0,0)" stroke-opacity="1" stroke-width="8" fill="rgb(0,0,0)" fill-opacity="1"/></g></g><g><g transform="matrix(1,0,0,1,92.08984375,15.255502319335937)"><path transform="matrix(0.00735,0,0,-0.00735,0,0)" d="M288 208L288 292C288 463 183 663 73 746C71 747 69 748 67 748C62 748 57 743 57 738C57 735 59 732 61 730C165 652 234 452 234 292L234 208C234 48 165 -152 61 -230C59 -232 57 -235 57 -238C57 -243 62 -248 67 -248C69 -248 71 -247 73 -246C183 -163 288 37 288 208Z" stroke="rgb(0,0,0)" stroke-opacity="1" stroke-width="8" fill="rgb(0,0,0)" fill-opacity="1"/></g></g></g></g><g><g><g><g transform="matrix(1,0,0,1,82.38934326171875,25.632064819335938)"><path transform="matrix(0.0105,0,0,-0.0105,0,0)" d="M722 347C722 358 713 367 702 367L76 367C65 367 56 358 56 347C56 336 65 327 76 327L702 327C713 327 722 336 722 347ZM722 153C722 164 713 173 702 173L76 173C65 173 56 164 56 153C56 142 65 133 76 133L702 133C713 133 722 142 722 153Z" stroke="rgb(0,0,0)" stroke-opacity="1" stroke-width="8" fill="rgb(0,0,0)" fill-opacity="1"/></g></g></g></g><g><g/></g></g></g></g><g transform="matrix(0.9579728251585536,-0.28685896579632864,0.28685896579632864,0.9579728251585536,-15.764813088918231,19.62848945871447)"><g><g><g><g/></g><g><g><g><g transform="matrix(1,0,0,1,30.10137939453125,67.22431945800781)"><path transform="matrix(0.0105,0,0,-0.0105,0,0)" d="M1401 250C1401 256 1397 261 1392 263C1320 282 1258 323 1204 370C1160 409 1123 456 1096 509C1093 516 1086 520 1078 520C1067 520 1058 511 1058 500C1058 497 1059 494 1060 491C1084 445 1114 403 1149 367L76 367C65 367 56 358 56 347C56 336 65 327 76 327L1193 327C1233 295 1277 269 1325 250C1277 231 1233 205 1193 173L76 173C65 173 56 164 56 153C56 142 65 133 76 133L1149 133C1114 97 1084 55 1060 9C1059 6 1058 3 1058 0C1058 -11 1067 -20 1078 -20C1086 -20 1093 -16 1096 -9C1123 44 1160 91 1204 130C1258 177 1320 218 1392 237C1397 239 1401 244 1401 250Z" stroke="rgb(0,0,0)" stroke-opacity="1" stroke-width="8" fill="rgb(0,0,0)" fill-opacity="1"/></g></g></g></g><g><g><g><g transform="matrix(1,0,0,1,28.352874755859375,75.26294860839843)"><path transform="matrix(0.00735,0,0,-0.00735,0,0)" d="M332 -238C332 -235 330 -232 328 -230C224 -152 155 48 155 208L155 292C155 452 224 652 328 730C330 732 332 735 332 738C332 743 327 748 322 748C320 748 318 747 316 746C206 663 101 463 101 292L101 208C101 37 206 -163 316 -246C318 -247 320 -248 322 -248C327 -248 332 -243 332 -238Z" stroke="rgb(0,0,0)" stroke-opacity="1" stroke-width="8" fill="rgb(0,0,0)" fill-opacity="1"/></g></g><g><g transform="matrix(1,0,0,1,31.21746826171875,75.26294860839843)"><path transform="matrix(0.00735,0,0,-0.00735,0,0)" d="M457 171C457 253 394 331 290 352C372 379 430 449 430 528C430 610 342 666 246 666C145 666 69 606 69 530C69 497 91 478 120 478C151 478 171 500 171 529C171 579 124 579 109 579C140 628 206 641 242 641C283 641 338 619 338 529C338 517 336 459 310 415C280 367 246 364 221 363C213 362 189 360 182 360C174 359 167 358 167 348C167 337 174 337 191 337L235 337C317 337 354 269 354 171C354 35 285 6 241 6C198 6 123 23 88 82C123 77 154 99 154 137C154 173 127 193 98 193C74 193 42 179 42 135C42 44 135 -22 244 -22C366 -22 457 69 457 171ZM692 53C692 82 668 106 639 106C610 106 586 82 586 53C586 24 610 0 639 0C668 0 692 24 692 53ZM1227 174L1202 174C1197 144 1190 100 1180 85C1173 77 1107 77 1085 77L905 77L1011 180C1167 318 1227 372 1227 472C1227 586 1137 666 1015 666C902 666 828 574 828 485C828 429 878 429 881 429C898 429 933 441 933 482C933 508 915 534 880 534C872 534 870 534 867 533C890 598 944 635 1002 635C1093 635 1136 554 1136 472C1136 392 1086 313 1031 251L839 37C828 26 828 24 828 0L1199 0ZM1727 201C1727 320 1645 420 1537 420C1489 420 1446 404 1410 369L1410 564C1430 558 1463 551 1495 551C1618 551 1688 642 1688 655C1688 661 1685 666 1678 666C1678 666 1675 666 1670 663C1650 654 1601 634 1534 634C1494 634 1448 641 1401 662C1393 665 1389 665 1389 665C1379 665 1379 657 1379 641L1379 345C1379 327 1379 319 1393 319C1400 319 1402 322 1406 328C1417 344 1454 398 1535 398C1587 398 1612 352 1620 334C1636 297 1638 258 1638 208C1638 173 1638 113 1614 71C1590 32 1553 6 1507 6C1434 6 1377 59 1360 118C1363 117 1366 116 1377 116C1410 116 1427 141 1427 165C1427 189 1410 214 1377 214C1363 214 1328 207 1328 161C1328 75 1397 -22 1509 -22C1625 -22 1727 74 1727 201Z" stroke="rgb(0,0,0)" stroke-opacity="1" stroke-width="8" fill="rgb(0,0,0)" fill-opacity="1"/></g></g><g><g transform="matrix(1,0,0,1,44.2847900390625,75.26294860839843)"><path transform="matrix(0.00735,0,0,-0.00735,0,0)" d="M288 208L288 292C288 463 183 663 73 746C71 747 69 748 67 748C62 748 57 743 57 738C57 735 59 732 61 730C165 652 234 452 234 292L234 208C234 48 165 -152 61 -230C59 -232 57 -235 57 -238C57 -243 62 -248 67 -248C69 -248 71 -247 73 -246C183 -163 288 37 288 208Z" stroke="rgb(0,0,0)" stroke-opacity="1" stroke-width="8" fill="rgb(0,0,0)" fill-opacity="1"/></g></g></g></g></g><g><g transform="matrix(1,0,0,1,48.544464111328125,67.22431945800781)"><path transform="matrix(0.0105,0,0,-0.0105,0,0)" d="M552 636C552 682 506 705 465 705C431 705 368 687 338 588C332 567 329 557 305 431L236 431C217 431 206 431 206 412C206 400 215 400 234 400L300 400L225 5C207 -92 190 -183 138 -183C134 -183 109 -183 90 -165C136 -162 145 -126 145 -111C145 -88 127 -76 108 -76C82 -76 53 -98 53 -136C53 -181 97 -205 138 -205C193 -205 233 -146 251 -108C283 -45 306 76 307 83L367 400L453 400C473 400 483 400 483 420C483 431 473 431 456 431L373 431C384 489 383 487 394 545C398 566 412 637 418 649C427 668 444 683 465 683C469 683 495 683 514 665C470 661 460 626 460 611C460 588 478 576 497 576C523 576 552 598 552 636Z" stroke="rgb(0,0,0)" stroke-opacity="1" stroke-width="8" fill="rgb(0,0,0)" fill-opacity="1"/></g></g><g><g transform="matrix(1,0,0,1,53.696990966796875,67.81956481933594)"><path transform="matrix(0.0105,0,0,-0.0105,0,0)" d="M332 -238C332 -235 330 -232 328 -230C224 -152 155 48 155 208L155 292C155 452 224 652 328 730C330 732 332 735 332 738C332 743 327 748 322 748C320 748 318 747 316 746C206 663 101 463 101 292L101 208C101 37 206 -163 316 -246C318 -247 320 -248 322 -248C327 -248 332 -243 332 -238Z" stroke="rgb(0,0,0)" stroke-opacity="1" stroke-width="8" fill="rgb(0,0,0)" fill-opacity="1"/></g></g><g><g transform="matrix(1,0,0,1,57.789276123046875,67.22431945800781)"><path transform="matrix(0.0105,0,0,-0.0105,0,0)" d="M527 376C527 428 468 442 434 442C376 442 341 389 329 366C304 432 250 442 221 442C117 442 60 313 60 288C60 278 72 278 72 278C80 278 83 280 85 289C119 395 185 420 219 420C238 420 273 411 273 353C273 322 256 255 219 115C203 53 168 11 124 11C118 11 95 11 74 24C99 29 121 50 121 78C121 105 99 113 84 113C54 113 29 87 29 55C29 9 79 -11 123 -11C189 -11 225 59 228 65C240 28 276 -11 336 -11C439 -11 496 118 496 143C496 153 487 153 484 153C475 153 473 149 471 142C438 35 370 11 338 11C299 11 283 43 283 77C283 99 289 121 300 165L334 302C340 328 363 420 433 420C438 420 462 420 483 407C455 402 435 377 435 353C435 337 446 318 473 318C495 318 527 336 527 376Z" stroke="rgb(0,0,0)" stroke-opacity="1" stroke-width="8" fill="rgb(0,0,0)" fill-opacity="1"/></g></g><g><g><g><g><g transform="matrix(1,0,0,1,64.1043701171875,69.66398010253906)"><path transform="matrix(0.00735,0,0,-0.00735,0,0)" d="M571 143C571 153 562 153 559 153C549 153 549 150 544 135C524 67 491 11 442 11C425 11 418 21 418 44C418 69 427 93 436 115C455 168 497 278 497 335C497 402 454 442 382 442C292 442 243 378 226 355C221 411 180 442 134 442C88 442 69 403 59 385C43 351 29 292 29 288C29 278 41 278 41 278C51 278 52 279 58 301C75 372 95 420 131 420C151 420 162 407 162 374C162 353 159 342 146 290L88 59C85 44 79 21 79 16C79 -2 93 -11 108 -11C120 -11 138 -3 145 17C146 19 158 66 164 91L186 181C192 203 198 225 203 248L216 298C231 329 284 420 379 420C424 420 433 383 433 350C433 288 384 160 368 117C359 94 358 82 358 71C358 24 393 -11 440 -11C534 -11 571 135 571 143Z" stroke="rgb(0,0,0)" stroke-opacity="1" stroke-width="8" fill="rgb(0,0,0)" fill-opacity="1"/></g></g><g><g><g><g><g transform="matrix(1,0,0,1,68.72677612304688,70.96529724121093)"><path transform="matrix(0.005144999999999999,0,0,-0.005144999999999999,0,0)" d="M508 379C508 409 485 442 440 442C412 442 366 434 294 354C260 316 221 276 183 261L287 683C287 683 287 694 274 694C251 694 178 686 152 684C144 683 133 682 133 664C133 652 142 652 157 652C205 652 207 645 207 635L204 615L59 39C55 25 55 23 55 17C55 -6 75 -11 84 -11C97 -11 112 -2 118 10C123 19 168 204 174 229C208 226 290 210 290 144C290 137 290 133 287 123C285 111 283 99 283 88C283 29 323 -11 375 -11C405 -11 432 5 454 42C479 86 490 143 490 143C490 153 481 153 478 153C468 153 467 149 464 135C444 62 421 11 377 11C358 11 345 22 345 58C345 75 349 98 353 114C357 131 357 135 357 145C357 210 294 239 209 250C240 268 272 300 295 324C343 377 389 420 438 420C444 420 445 420 447 419C459 417 460 417 468 411C470 410 470 409 472 407C424 404 415 365 415 353C415 337 426 318 453 318C479 318 508 340 508 379Z" stroke="rgb(0,0,0)" stroke-opacity="1" stroke-width="8" fill="rgb(0,0,0)" fill-opacity="1"/></g></g></g></g></g></g></g></g><g><g transform="matrix(1,0,0,1,72.47491455078125,67.81956481933594)"><path transform="matrix(0.0105,0,0,-0.0105,0,0)" d="M288 208L288 292C288 463 183 663 73 746C71 747 69 748 67 748C62 748 57 743 57 738C57 735 59 732 61 730C165 652 234 452 234 292L234 208C234 48 165 -152 61 -230C59 -232 57 -235 57 -238C57 -243 62 -248 67 -248C69 -248 71 -247 73 -246C183 -163 288 37 288 208Z" stroke="rgb(0,0,0)" stroke-opacity="1" stroke-width="8" fill="rgb(0,0,0)" fill-opacity="1"/></g></g><g><g><g><g><g><g transform="matrix(1,0,0,1,78.6597900390625,67.22431945800781)"><path transform="matrix(0.0105,0,0,-0.0105,0,0)" d="M943 250C943 256 939 261 934 263C877 282 833 322 797 367C769 403 748 447 739 494C737 503 729 510 719 510C708 510 699 501 699 490C699 489 700 487 700 486C710 433 733 384 766 342C788 314 814 290 844 270L78 270C67 270 58 261 58 250C58 239 67 230 78 230L844 230C814 210 788 186 766 158C733 116 710 67 700 14C700 13 699 11 699 10C699 -1 708 -10 719 -10C729 -10 737 -3 739 6C748 53 769 97 797 133C833 178 877 218 934 237C939 239 943 244 943 250Z" stroke="rgb(0,0,0)" stroke-opacity="1" stroke-width="8" fill="rgb(0,0,0)" fill-opacity="1"/></g></g></g></g></g><g><g/></g></g></g></g><g><g><g><g transform="matrix(1,0,0,1,87.94644165039062,51.170013427734375)"><path transform="matrix(0.015,0,0,-0.015,0,0)" d="M1044 672C1044 683 1034 683 1017 683L885 683C859 683 858 683 846 664L481 94L403 660C400 683 398 683 372 683L235 683C216 683 205 683 205 664C205 652 214 652 234 652C247 652 265 651 277 650C293 648 299 645 299 634C299 630 298 627 295 615L168 106C158 66 141 34 60 31C55 31 42 30 42 12C42 3 48 0 56 0C88 0 123 3 156 3C190 3 226 0 259 0C264 0 277 0 277 20C277 31 266 31 259 31C202 32 191 52 191 75C191 82 192 87 195 98L331 643L332 643L418 23C420 11 421 0 433 0C444 0 450 11 455 18L859 651L860 651L717 78C707 39 705 31 626 31C609 31 598 31 598 12C598 0 610 0 613 0L737 3C778 3 821 0 862 0C868 0 881 0 881 20C881 31 872 31 853 31C816 31 788 31 788 49C788 53 788 55 793 73L926 606C935 642 937 652 1012 652C1035 652 1044 652 1044 672Z" stroke="rgb(0,0,0)" stroke-opacity="1" stroke-width="8" fill="rgb(0,0,0)" fill-opacity="1"/></g></g></g></g><g><g><g><g transform="matrix(1,0,0,1,217.34564208984375,71.38951110839844)"><path transform="matrix(0.015,0,0,-0.015,0,0)" d="M552 636C552 682 506 705 465 705C431 705 368 687 338 588C332 567 329 557 305 431L236 431C217 431 206 431 206 412C206 400 215 400 234 400L300 400L225 5C207 -92 190 -183 138 -183C134 -183 109 -183 90 -165C136 -162 145 -126 145 -111C145 -88 127 -76 108 -76C82 -76 53 -98 53 -136C53 -181 97 -205 138 -205C193 -205 233 -146 251 -108C283 -45 306 76 307 83L367 400L453 400C473 400 483 400 483 420C483 431 473 431 456 431L373 431C384 489 383 487 394 545C398 566 412 637 418 649C427 668 444 683 465 683C469 683 495 683 514 665C470 661 460 626 460 611C460 588 478 576 497 576C523 576 552 598 552 636Z" stroke="rgb(0,0,0)" stroke-opacity="1" stroke-width="8" fill="rgb(0,0,0)" fill-opacity="1"/></g></g><g><g transform="matrix(1,0,0,1,224.702392578125,71.38951110839844)"><path transform="matrix(0.015,0,0,-0.015,0,0)" d="M332 -238C332 -235 330 -232 328 -230C224 -152 155 48 155 208L155 292C155 452 224 652 328 730C330 732 332 735 332 738C332 743 327 748 322 748C320 748 318 747 316 746C206 663 101 463 101 292L101 208C101 37 206 -163 316 -246C318 -247 320 -248 322 -248C327 -248 332 -243 332 -238Z" stroke="rgb(0,0,0)" stroke-opacity="1" stroke-width="8" fill="rgb(0,0,0)" fill-opacity="1"/></g></g><g><g transform="matrix(1,0,0,1,230.54315185546875,71.38951110839844)"><path transform="matrix(0.015,0,0,-0.015,0,0)" d="M256 -230C256 -219 247 -210 236 -210L154 -210L154 710L236 710C247 710 256 719 256 730C256 741 247 750 236 750L114 750L114 -250L236 -250C247 -250 256 -241 256 -230Z" stroke="rgb(0,0,0)" stroke-opacity="1" stroke-width="8" fill="rgb(0,0,0)" fill-opacity="1"/></g></g><g><g transform="matrix(1,0,0,1,234.7191162109375,71.38951110839844)"><path transform="matrix(0.015,0,0,-0.015,0,0)" d="M498 143C498 153 489 153 486 153C476 153 475 149 472 135C455 70 437 11 396 11C369 11 366 37 366 57C366 79 368 87 379 131L401 221L437 361C444 389 444 391 444 395C444 412 432 422 415 422C391 422 376 400 373 378C355 415 326 442 281 442C164 442 40 295 40 149C40 55 95 -11 173 -11C193 -11 243 -7 303 64C311 22 346 -11 394 -11C429 -11 452 12 468 44C485 80 498 143 498 143ZM361 332C361 326 359 320 358 315L308 119C303 101 303 99 288 82C244 27 203 11 175 11C125 11 111 66 111 105C111 155 143 278 166 324C197 383 242 420 282 420C347 420 361 338 361 332Z" stroke="rgb(0,0,0)" stroke-opacity="1" stroke-width="8" fill="rgb(0,0,0)" fill-opacity="1"/></g></g><g><g transform="matrix(1,0,0,1,242.661865234375,71.38951110839844)"><path transform="matrix(0.015,0,0,-0.015,0,0)" d="M203 1C203 67 178 106 139 106C106 106 86 81 86 53C86 26 106 0 139 0C151 0 164 4 174 13C177 15 179 16 179 16C179 16 181 15 181 1C181 -73 146 -133 113 -166C102 -177 102 -179 102 -182C102 -189 107 -193 112 -193C123 -193 203 -116 203 1Z" stroke="rgb(0,0,0)" stroke-opacity="1" stroke-width="8" fill="rgb(0,0,0)" fill-opacity="1"/></g></g><g><g transform="matrix(1,0,0,1,249.83258056640625,71.38951110839844)"><path transform="matrix(0.015,0,0,-0.015,0,0)" d="M415 282C415 373 362 442 282 442C236 442 195 413 165 382L239 683C239 683 239 694 226 694C203 694 130 686 104 684C96 683 85 682 85 664C85 652 94 652 109 652C157 652 159 645 159 635C159 628 150 594 145 573L63 247C51 197 47 181 47 146C47 51 100 -11 174 -11C292 -11 415 138 415 282ZM343 326C343 267 310 152 292 114C259 47 213 11 174 11C140 11 107 38 107 112C107 131 107 150 123 213L145 305C151 327 151 329 160 340C209 405 254 420 280 420C316 420 343 390 343 326Z" stroke="rgb(0,0,0)" stroke-opacity="1" stroke-width="8" fill="rgb(0,0,0)" fill-opacity="1"/></g></g><g><g transform="matrix(1,0,0,1,256.26861572265625,71.38951110839844)"><path transform="matrix(0.015,0,0,-0.015,0,0)" d="M164 -250L164 750L42 750C31 750 22 741 22 730C22 719 31 710 42 710L124 710L124 -210L42 -210C31 -210 22 -219 22 -230C22 -241 31 -250 42 -250Z" stroke="rgb(0,0,0)" stroke-opacity="1" stroke-width="8" fill="rgb(0,0,0)" fill-opacity="1"/></g></g><g><g transform="matrix(1,0,0,1,260.444580078125,71.38951110839844)"><path transform="matrix(0.015,0,0,-0.015,0,0)" d="M288 208L288 292C288 463 183 663 73 746C71 747 69 748 67 748C62 748 57 743 57 738C57 735 59 732 61 730C165 652 234 452 234 292L234 208C234 48 165 -152 61 -230C59 -232 57 -235 57 -238C57 -243 62 -248 67 -248C69 -248 71 -247 73 -246C183 -163 288 37 288 208Z" stroke="rgb(0,0,0)" stroke-opacity="1" stroke-width="8" fill="rgb(0,0,0)" fill-opacity="1"/></g></g></g></g><g transform="matrix(0.9999862922474267,-0.005235963831419499,0.005235963831419499,0.9999862922474267,-0.6908405270915523,1.1300906993822935)"><g><g><g><g/></g><g><g><g><g transform="matrix(1,0,0,1,134.24481201171875,139.50706481933594)"><path transform="matrix(0.015,0,0,-0.015,0,0)" d="M1401 250C1401 256 1397 261 1392 263C1320 282 1258 323 1204 370C1160 409 1123 456 1096 509C1093 516 1086 520 1078 520C1067 520 1058 511 1058 500C1058 497 1059 494 1060 491C1084 445 1114 403 1149 367L76 367C65 367 56 358 56 347C56 336 65 327 76 327L1193 327C1233 295 1277 269 1325 250C1277 231 1233 205 1193 173L76 173C65 173 56 164 56 153C56 142 65 133 76 133L1149 133C1114 97 1084 55 1060 9C1059 6 1058 3 1058 0C1058 -11 1067 -20 1078 -20C1086 -20 1093 -16 1096 -9C1123 44 1160 91 1204 130C1258 177 1320 218 1392 237C1397 239 1401 244 1401 250Z" stroke="rgb(0,0,0)" stroke-opacity="1" stroke-width="8" fill="rgb(0,0,0)" fill-opacity="1"/></g></g></g></g><g><g><g><g transform="matrix(1,0,0,1,131.74295043945312,151.0041046142578)"><path transform="matrix(0.0105,0,0,-0.0105,0,0)" d="M332 -238C332 -235 330 -232 328 -230C224 -152 155 48 155 208L155 292C155 452 224 652 328 730C330 732 332 735 332 738C332 743 327 748 322 748C320 748 318 747 316 746C206 663 101 463 101 292L101 208C101 37 206 -163 316 -246C318 -247 320 -248 322 -248C327 -248 332 -243 332 -238Z" stroke="rgb(0,0,0)" stroke-opacity="1" stroke-width="8" fill="rgb(0,0,0)" fill-opacity="1"/></g></g><g><g transform="matrix(1,0,0,1,135.835205078125,150.4088592529297)"><path transform="matrix(0.0105,0,0,-0.0105,0,0)" d="M449 201C449 320 367 420 259 420C211 420 168 404 132 369L132 564C152 558 185 551 217 551C340 551 410 642 410 655C410 661 407 666 400 666C400 666 397 666 392 663C372 654 323 634 256 634C216 634 170 641 123 662C115 665 111 665 111 665C101 665 101 657 101 641L101 345C101 327 101 319 115 319C122 319 124 322 128 328C139 344 176 398 257 398C309 398 334 352 342 334C358 297 360 258 360 208C360 173 360 113 336 71C312 32 275 6 229 6C156 6 99 59 82 118C85 117 88 116 99 116C132 116 149 141 149 165C149 189 132 214 99 214C85 214 50 207 50 161C50 75 119 -22 231 -22C347 -22 449 74 449 201ZM692 53C692 82 668 106 639 106C610 106 586 82 586 53C586 24 610 0 639 0C668 0 692 24 692 53ZM1227 174L1202 174C1197 144 1190 100 1180 85C1173 77 1107 77 1085 77L905 77L1011 180C1167 318 1227 372 1227 472C1227 586 1137 666 1015 666C902 666 828 574 828 485C828 429 878 429 881 429C898 429 933 441 933 482C933 508 915 534 880 534C872 534 870 534 867 533C890 598 944 635 1002 635C1093 635 1136 554 1136 472C1136 392 1086 313 1031 251L839 37C828 26 828 24 828 0L1199 0ZM1763 644L1520 644C1398 644 1396 657 1392 676L1367 676L1334 470L1359 470C1362 486 1371 549 1384 561C1391 567 1469 567 1482 567L1689 567L1577 409C1487 274 1454 135 1454 33C1454 23 1454 -22 1500 -22C1546 -22 1546 23 1546 33L1546 84C1546 139 1549 194 1557 248C1561 271 1575 357 1619 419L1754 609C1763 621 1763 623 1763 644Z" stroke="rgb(0,0,0)" stroke-opacity="1" stroke-width="8" fill="rgb(0,0,0)" fill-opacity="1"/></g></g><g><g transform="matrix(1,0,0,1,154.51080322265625,151.0041046142578)"><path transform="matrix(0.0105,0,0,-0.0105,0,0)" d="M288 208L288 292C288 463 183 663 73 746C71 747 69 748 67 748C62 748 57 743 57 738C57 735 59 732 61 730C165 652 234 452 234 292L234 208C234 48 165 -152 61 -230C59 -232 57 -235 57 -238C57 -243 62 -248 67 -248C69 -248 71 -247 73 -246C183 -163 288 37 288 208Z" stroke="rgb(0,0,0)" stroke-opacity="1" stroke-width="8" fill="rgb(0,0,0)" fill-opacity="1"/></g></g></g></g></g><g><g transform="matrix(1,0,0,1,160.5933837890625,139.50706481933594)"><path transform="matrix(0.015,0,0,-0.015,0,0)" d="M552 636C552 682 506 705 465 705C431 705 368 687 338 588C332 567 329 557 305 431L236 431C217 431 206 431 206 412C206 400 215 400 234 400L300 400L225 5C207 -92 190 -183 138 -183C134 -183 109 -183 90 -165C136 -162 145 -126 145 -111C145 -88 127 -76 108 -76C82 -76 53 -98 53 -136C53 -181 97 -205 138 -205C193 -205 233 -146 251 -108C283 -45 306 76 307 83L367 400L453 400C473 400 483 400 483 420C483 431 473 431 456 431L373 431C384 489 383 487 394 545C398 566 412 637 418 649C427 668 444 683 465 683C469 683 495 683 514 665C470 661 460 626 460 611C460 588 478 576 497 576C523 576 552 598 552 636Z" stroke="rgb(0,0,0)" stroke-opacity="1" stroke-width="8" fill="rgb(0,0,0)" fill-opacity="1"/></g></g><g><g transform="matrix(1,0,0,1,167.95016479492188,139.50706481933594)"><path transform="matrix(0.015,0,0,-0.015,0,0)" d="M332 -238C332 -235 330 -232 328 -230C224 -152 155 48 155 208L155 292C155 452 224 652 328 730C330 732 332 735 332 738C332 743 327 748 322 748C320 748 318 747 316 746C206 663 101 463 101 292L101 208C101 37 206 -163 316 -246C318 -247 320 -248 322 -248C327 -248 332 -243 332 -238Z" stroke="rgb(0,0,0)" stroke-opacity="1" stroke-width="8" fill="rgb(0,0,0)" fill-opacity="1"/></g></g><g><g transform="matrix(1,0,0,1,173.79092407226562,139.50706481933594)"><path transform="matrix(0.015,0,0,-0.015,0,0)" d="M527 376C527 428 468 442 434 442C376 442 341 389 329 366C304 432 250 442 221 442C117 442 60 313 60 288C60 278 72 278 72 278C80 278 83 280 85 289C119 395 185 420 219 420C238 420 273 411 273 353C273 322 256 255 219 115C203 53 168 11 124 11C118 11 95 11 74 24C99 29 121 50 121 78C121 105 99 113 84 113C54 113 29 87 29 55C29 9 79 -11 123 -11C189 -11 225 59 228 65C240 28 276 -11 336 -11C439 -11 496 118 496 143C496 153 487 153 484 153C475 153 473 149 471 142C438 35 370 11 338 11C299 11 283 43 283 77C283 99 289 121 300 165L334 302C340 328 363 420 433 420C438 420 462 420 483 407C455 402 435 377 435 353C435 337 446 318 473 318C495 318 527 336 527 376Z" stroke="rgb(0,0,0)" stroke-opacity="1" stroke-width="8" fill="rgb(0,0,0)" fill-opacity="1"/></g></g><g><g><g><g><g transform="matrix(1,0,0,1,182.82183837890625,141.55467224121094)"><path transform="matrix(0.0105,0,0,-0.0105,0,0)" d="M571 143C571 153 562 153 559 153C549 153 549 150 544 135C524 67 491 11 442 11C425 11 418 21 418 44C418 69 427 93 436 115C455 168 497 278 497 335C497 402 454 442 382 442C292 442 243 378 226 355C221 411 180 442 134 442C88 442 69 403 59 385C43 351 29 292 29 288C29 278 41 278 41 278C51 278 52 279 58 301C75 372 95 420 131 420C151 420 162 407 162 374C162 353 159 342 146 290L88 59C85 44 79 21 79 16C79 -2 93 -11 108 -11C120 -11 138 -3 145 17C146 19 158 66 164 91L186 181C192 203 198 225 203 248L216 298C231 329 284 420 379 420C424 420 433 383 433 350C433 288 384 160 368 117C359 94 358 82 358 71C358 24 393 -11 440 -11C534 -11 571 135 571 143Z" stroke="rgb(0,0,0)" stroke-opacity="1" stroke-width="8" fill="rgb(0,0,0)" fill-opacity="1"/></g></g><g><g><g><g><g transform="matrix(1,0,0,1,189.43450927734375,143.99433288574218)"><path transform="matrix(0.00735,0,0,-0.00735,0,0)" d="M508 379C508 409 485 442 440 442C412 442 366 434 294 354C260 316 221 276 183 261L287 683C287 683 287 694 274 694C251 694 178 686 152 684C144 683 133 682 133 664C133 652 142 652 157 652C205 652 207 645 207 635L204 615L59 39C55 25 55 23 55 17C55 -6 75 -11 84 -11C97 -11 112 -2 118 10C123 19 168 204 174 229C208 226 290 210 290 144C290 137 290 133 287 123C285 111 283 99 283 88C283 29 323 -11 375 -11C405 -11 432 5 454 42C479 86 490 143 490 143C490 153 481 153 478 153C468 153 467 149 464 135C444 62 421 11 377 11C358 11 345 22 345 58C345 75 349 98 353 114C357 131 357 135 357 145C357 210 294 239 209 250C240 268 272 300 295 324C343 377 389 420 438 420C444 420 445 420 447 419C459 417 460 417 468 411C470 410 470 409 472 407C424 404 415 365 415 353C415 337 426 318 453 318C479 318 508 340 508 379Z" stroke="rgb(0,0,0)" stroke-opacity="1" stroke-width="8" fill="rgb(0,0,0)" fill-opacity="1"/></g></g></g></g></g></g></g></g><g><g transform="matrix(1,0,0,1,194.7823486328125,139.50706481933594)"><path transform="matrix(0.015,0,0,-0.015,0,0)" d="M288 208L288 292C288 463 183 663 73 746C71 747 69 748 67 748C62 748 57 743 57 738C57 735 59 732 61 730C165 652 234 452 234 292L234 208C234 48 165 -152 61 -230C59 -232 57 -235 57 -238C57 -243 62 -248 67 -248C69 -248 71 -247 73 -246C183 -163 288 37 288 208Z" stroke="rgb(0,0,0)" stroke-opacity="1" stroke-width="8" fill="rgb(0,0,0)" fill-opacity="1"/></g></g><g><g><g transform="matrix(1,0,0,1,203.617919921875,139.50706481933594)"><path transform="matrix(0.015,0,0,-0.015,0,0)" d="M943 250C943 256 939 261 934 263C877 282 833 322 797 367C769 403 748 447 739 494C737 503 729 510 719 510C708 510 699 501 699 490C699 489 700 487 700 486C710 433 733 384 766 342C788 314 814 290 844 270L78 270C67 270 58 261 58 250C58 239 67 230 78 230L844 230C814 210 788 186 766 158C733 116 710 67 700 14C700 13 699 11 699 10C699 -1 708 -10 719 -10C729 -10 737 -3 739 6C748 53 769 97 797 133C833 178 877 218 934 237C939 239 943 244 943 250Z" stroke="rgb(0,0,0)" stroke-opacity="1" stroke-width="8" fill="rgb(0,0,0)" fill-opacity="1"/></g></g></g><g><g><g><g><g transform="matrix(1,0,0,1,226.7020263671875,139.50706481933594)"><path transform="matrix(0.015,0,0,-0.015,0,0)" d="M552 636C552 682 506 705 465 705C431 705 368 687 338 588C332 567 329 557 305 431L236 431C217 431 206 431 206 412C206 400 215 400 234 400L300 400L225 5C207 -92 190 -183 138 -183C134 -183 109 -183 90 -165C136 -162 145 -126 145 -111C145 -88 127 -76 108 -76C82 -76 53 -98 53 -136C53 -181 97 -205 138 -205C193 -205 233 -146 251 -108C283 -45 306 76 307 83L367 400L453 400C473 400 483 400 483 420C483 431 473 431 456 431L373 431C384 489 383 487 394 545C398 566 412 637 418 649C427 668 444 683 465 683C469 683 495 683 514 665C470 661 460 626 460 611C460 588 478 576 497 576C523 576 552 598 552 636Z" stroke="rgb(0,0,0)" stroke-opacity="1" stroke-width="8" fill="rgb(0,0,0)" fill-opacity="1"/></g></g><g><g transform="matrix(1,0,0,1,234.05877685546875,139.50706481933594)"><path transform="matrix(0.015,0,0,-0.015,0,0)" d="M332 -238C332 -235 330 -232 328 -230C224 -152 155 48 155 208L155 292C155 452 224 652 328 730C330 732 332 735 332 738C332 743 327 748 322 748C320 748 318 747 316 746C206 663 101 463 101 292L101 208C101 37 206 -163 316 -246C318 -247 320 -248 322 -248C327 -248 332 -243 332 -238Z" stroke="rgb(0,0,0)" stroke-opacity="1" stroke-width="8" fill="rgb(0,0,0)" fill-opacity="1"/></g></g><g><g transform="matrix(1,0,0,1,239.8995361328125,139.50706481933594)"><path transform="matrix(0.015,0,0,-0.015,0,0)" d="M527 376C527 428 468 442 434 442C376 442 341 389 329 366C304 432 250 442 221 442C117 442 60 313 60 288C60 278 72 278 72 278C80 278 83 280 85 289C119 395 185 420 219 420C238 420 273 411 273 353C273 322 256 255 219 115C203 53 168 11 124 11C118 11 95 11 74 24C99 29 121 50 121 78C121 105 99 113 84 113C54 113 29 87 29 55C29 9 79 -11 123 -11C189 -11 225 59 228 65C240 28 276 -11 336 -11C439 -11 496 118 496 143C496 153 487 153 484 153C475 153 473 149 471 142C438 35 370 11 338 11C299 11 283 43 283 77C283 99 289 121 300 165L334 302C340 328 363 420 433 420C438 420 462 420 483 407C455 402 435 377 435 353C435 337 446 318 473 318C495 318 527 336 527 376Z" stroke="rgb(0,0,0)" stroke-opacity="1" stroke-width="8" fill="rgb(0,0,0)" fill-opacity="1"/></g></g><g><g><g><g><g transform="matrix(1,0,0,1,248.930419921875,142.14991760253906)"><path transform="matrix(0.0105,0,0,-0.0105,0,0)" d="M460 320C460 400 455 480 420 554C374 650 292 666 250 666C190 666 117 640 76 547C44 478 39 400 39 320C39 245 43 155 84 79C127 -2 200 -22 249 -22C303 -22 379 -1 423 94C455 163 460 241 460 320ZM377 332C377 257 377 189 366 125C351 30 294 0 249 0C210 0 151 25 133 121C122 181 122 273 122 332C122 396 122 462 130 516C149 635 224 644 249 644C282 644 348 626 367 527C377 471 377 395 377 332Z" stroke="rgb(0,0,0)" stroke-opacity="1" stroke-width="8" fill="rgb(0,0,0)" fill-opacity="1"/></g></g></g></g></g><g><g transform="matrix(1,0,0,1,255.078125,139.50706481933594)"><path transform="matrix(0.015,0,0,-0.015,0,0)" d="M288 208L288 292C288 463 183 663 73 746C71 747 69 748 67 748C62 748 57 743 57 738C57 735 59 732 61 730C165 652 234 452 234 292L234 208C234 48 165 -152 61 -230C59 -232 57 -235 57 -238C57 -243 62 -248 67 -248C69 -248 71 -247 73 -246C183 -163 288 37 288 208Z" stroke="rgb(0,0,0)" stroke-opacity="1" stroke-width="8" fill="rgb(0,0,0)" fill-opacity="1"/></g></g><g><g transform="matrix(1,0,0,1,265.41107177734375,139.50706481933594)"><path transform="matrix(0.015,0,0,-0.015,0,0)" d="M722 347C722 358 713 367 702 367L76 367C65 367 56 358 56 347C56 336 65 327 76 327L702 327C713 327 722 336 722 347ZM722 153C722 164 713 173 702 173L76 173C65 173 56 164 56 153C56 142 65 133 76 133L702 133C713 133 722 142 722 153Z" stroke="rgb(0,0,0)" stroke-opacity="1" stroke-width="8" fill="rgb(0,0,0)" fill-opacity="1"/></g></g><g><g transform="matrix(1,0,0,1,281.5755615234375,139.50706481933594)"><path transform="matrix(0.015,0,0,-0.015,0,0)" d="M1044 672C1044 683 1034 683 1017 683L885 683C859 683 858 683 846 664L481 94L403 660C400 683 398 683 372 683L235 683C216 683 205 683 205 664C205 652 214 652 234 652C247 652 265 651 277 650C293 648 299 645 299 634C299 630 298 627 295 615L168 106C158 66 141 34 60 31C55 31 42 30 42 12C42 3 48 0 56 0C88 0 123 3 156 3C190 3 226 0 259 0C264 0 277 0 277 20C277 31 266 31 259 31C202 32 191 52 191 75C191 82 192 87 195 98L331 643L332 643L418 23C420 11 421 0 433 0C444 0 450 11 455 18L859 651L860 651L717 78C707 39 705 31 626 31C609 31 598 31 598 12C598 0 610 0 613 0L737 3C778 3 821 0 862 0C868 0 881 0 881 20C881 31 872 31 853 31C816 31 788 31 788 49C788 53 788 55 793 73L926 606C935 642 937 652 1012 652C1035 652 1044 652 1044 672Z" stroke="rgb(0,0,0)" stroke-opacity="1" stroke-width="8" fill="rgb(0,0,0)" fill-opacity="1"/></g></g></g></g><line style="fill:none;stroke-width:0.595238px;stroke:rgb(0, 0, 0);" x1="221.6146240234375" y1="123.91181945800781" x2="301.2184143066406" y2="123.91181945800781"/><line style="fill:none;stroke-width:0.595238px;stroke:rgb(0, 0, 0);" x1="221.6146240234375" y1="123.91181945800781" x2="221.6146240234375" y2="146.3355541229248"/><line style="fill:none;stroke-width:0.595238px;stroke:rgb(0, 0, 0);" x1="301.2184143066406" y1="123.91181945800781" x2="301.2184143066406" y2="146.3355541229248"/><line style="fill:none;stroke-width:0.595238px;stroke:rgb(0, 0, 0);" x1="221.6146240234375" y1="146.3355541229248" x2="301.2184143066406" y2="146.3355541229248"/></g></g></g><g transform="matrix(0.9113314399495751,-0.41167342221648706,0.41167342221648706,0.9113314399495751,-46.662813186562886,53.98101103187314)"><g><g><g transform="matrix(1,0,0,1,92.55023193359375,138.31752014160156)"><path transform="matrix(0.0075,0,0,-0.0075,0,0)" d="M332 -238C332 -235 330 -232 328 -230C224 -152 155 48 155 208L155 292C155 452 224 652 328 730C330 732 332 735 332 738C332 743 327 748 322 748C320 748 318 747 316 746C206 663 101 463 101 292L101 208C101 37 206 -163 316 -246C318 -247 320 -248 322 -248C327 -248 332 -243 332 -238Z" stroke="rgb(0,0,0)" stroke-opacity="1" stroke-width="8" fill="rgb(0,0,0)" fill-opacity="1"/></g></g><g><g transform="matrix(1,0,0,1,95.47061157226562,137.72227478027344)"><path transform="matrix(0.0075,0,0,-0.0075,0,0)" d="M651 183C651 270 569 345 458 357C555 376 624 440 624 514C624 601 532 683 402 683L36 683L36 652L60 652C137 652 139 641 139 605L139 78C139 42 137 31 60 31L36 31L36 0L428 0C561 0 651 89 651 183ZM527 514C527 450 478 366 367 366L222 366L222 612C222 645 224 652 271 652L395 652C492 652 527 567 527 514ZM551 184C551 113 499 31 396 31L271 31C224 31 222 38 222 71L222 344L410 344C509 344 551 251 551 184ZM1717 652L1717 683C1687 681 1656 680 1626 680L1507 683L1507 652C1574 651 1594 618 1594 599C1594 593 1591 585 1589 579L1439 117L1279 607C1278 611 1276 617 1276 622C1276 652 1334 652 1360 652L1360 683C1324 680 1256 680 1218 680L1096 683L1096 652C1153 652 1174 652 1186 616L1208 546L1069 117L908 609C907 612 906 619 906 622C906 652 964 652 990 652L990 683C954 680 886 680 848 680L726 683L726 652C801 652 805 647 817 610L1017 -3C1020 -12 1023 -22 1036 -22C1050 -22 1052 -15 1056 -2L1221 506L1387 -3C1390 -12 1393 -22 1406 -22C1420 -22 1422 -15 1426 -2L1617 585C1635 642 1678 652 1717 652Z" stroke="rgb(0,0,0)" stroke-opacity="1" stroke-width="8" fill="rgb(0,0,0)" fill-opacity="1"/></g></g><g><g transform="matrix(1,0,0,1,108.491455078125,138.31752014160156)"><path transform="matrix(0.0075,0,0,-0.0075,0,0)" d="M288 208L288 292C288 463 183 663 73 746C71 747 69 748 67 748C62 748 57 743 57 738C57 735 59 732 61 730C165 652 234 452 234 292L234 208C234 48 165 -152 61 -230C59 -232 57 -235 57 -238C57 -243 62 -248 67 -248C69 -248 71 -247 73 -246C183 -163 288 37 288 208Z" stroke="rgb(0,0,0)" stroke-opacity="1" stroke-width="8" fill="rgb(0,0,0)" fill-opacity="1"/></g></g></g></g></svg>
</svg>